<svg width="180" height="180" viewBox="0 0 180 180" fill="none" xmlns="http://www.w3.org/2000/svg">
<g clip-path="url(#clip0_2018_7889)">
<g clip-path="url(#clip1_2018_7889)">
<path d="M115.791 9.15828C115.791 3.74649 111.533 -0.640625 106.282 -0.640625C101.031 -0.640625 96.7734 3.74649 96.7734 9.15828V123.083C96.7734 128.494 101.031 132.881 106.282 132.881C111.533 132.881 115.791 128.494 115.791 123.083V9.15828Z" fill="#F73753"/>
<path d="M83.689 98.1661C83.689 92.7543 79.4319 88.3672 74.1805 88.3672C68.929 88.3672 64.6719 92.7543 64.6719 98.1661V170.373C64.6719 175.785 68.929 180.172 74.1805 180.172C79.4319 180.172 83.689 175.785 83.689 170.373V98.1661Z" fill="#F73753"/>
<path d="M147.888 62.0567C147.888 56.6449 143.631 52.2578 138.38 52.2578C133.128 52.2578 128.871 56.6449 128.871 62.0567V114.69C128.871 120.102 133.128 124.489 138.38 124.489C143.631 124.489 147.888 120.102 147.888 114.69V62.0567Z" fill="#F73753"/>
<path d="M147.888 142.674C147.888 137.262 143.631 132.875 138.38 132.875C133.128 132.875 128.871 137.262 128.871 142.674C128.871 148.086 133.128 152.473 138.38 152.473C143.631 152.473 147.888 148.086 147.888 142.674Z" fill="#F73753"/>
<path d="M83.689 70.4317C83.689 65.0199 79.4319 60.6328 74.1805 60.6328C68.929 60.6328 64.6719 65.0199 64.6719 70.4317C64.6719 75.8435 68.929 80.2306 74.1805 80.2306C79.4319 80.2306 83.689 75.8435 83.689 70.4317Z" fill="#F73753"/>
<path d="M179.998 76.3302C179.998 70.9184 175.741 66.5312 170.489 66.5312C165.238 66.5312 160.98 70.9184 160.98 76.3302V106.291C160.98 111.703 165.238 116.09 170.489 116.09C175.741 116.09 179.998 111.703 179.998 106.291V76.3302Z" fill="#F73753"/>
<path d="M19.482 73.2364C19.482 67.8246 15.2249 63.4375 9.97343 63.4375C4.72198 63.4375 0.464844 67.8246 0.464844 73.2364V103.198C0.464844 108.609 4.72198 112.996 9.97343 112.996C15.2249 112.996 19.482 108.609 19.482 103.198V73.2364Z" fill="#F73753"/>
<path d="M51.5836 90.0333C51.5836 84.6215 47.3264 80.2344 42.075 80.2344C36.8235 80.2344 32.5664 84.6215 32.5664 90.0333V142.666C32.5664 148.078 36.8235 152.465 42.075 152.465C47.3264 152.465 51.5836 148.078 51.5836 142.666V90.0333Z" fill="#F73753"/>
</g>
</g>
<defs>
<clipPath id="clip0_2018_7889">
<rect width="180" height="180" fill="white"/>
</clipPath>
<clipPath id="clip1_2018_7889">
<rect width="180" height="180" fill="white"/>
</clipPath>
</defs>
</svg>
