<svg width="48" height="48" viewBox="0 0 48 48" fill="none" xmlns="http://www.w3.org/2000/svg">
<path fill-rule="evenodd" clip-rule="evenodd" d="M14.7622 4.95355C15.3727 4.34298 16.2008 4 17.0642 4H30.9357C31.7991 4 32.6273 4.34301 33.2378 4.95355L43.0465 14.7622C43.657 15.3727 44 16.2008 44 17.0642V30.9357C44 31.7991 43.657 32.6273 43.0465 33.2378L33.2378 43.0465C32.6273 43.657 31.7991 44 30.9357 44H17.0642C16.2008 44 15.3727 43.657 14.7622 43.0465L4.95352 33.2378C4.34298 32.6273 4 31.7991 4 30.9357V17.0642C4 16.2008 4.34298 15.3727 4.95352 14.7622L14.7622 4.95355ZM17.3339 7.90671L7.90671 17.3339V30.6661L17.3339 40.0933H30.6661L40.0933 30.6661V17.3339L30.6661 7.90671H17.3339Z" fill="#161617"/>
<path fill-rule="evenodd" clip-rule="evenodd" d="M24.0001 11.2723C25.0042 11.2723 25.8182 12.1387 25.8182 13.2074V25.7009C25.8182 26.7696 25.0042 27.636 24.0001 27.636C22.9959 27.636 22.1819 26.7696 22.1819 25.7009V13.2074C22.1819 12.1387 22.9959 11.2723 24.0001 11.2723Z" fill="#161617"/>
<path d="M26.727 33.5451C26.727 34.8003 25.5058 35.8178 23.9997 35.8178C22.4937 35.8178 21.2725 34.8003 21.2725 33.5451C21.2725 32.2898 22.4937 31.2723 23.9997 31.2723C25.5058 31.2723 26.727 32.2898 26.727 33.5451Z" fill="#161617"/>
</svg>
