<svg xmlns="http://www.w3.org/2000/svg" width="20" height="20" fill="none" viewBox="0 0 24 24" class="svgr-icon-component" stroke-width="1.5"><path fill="currentColor" fill-rule="evenodd" d="M11.757 5a1 1 0 0 1 1-1h6.24a1 1 0 0 1 1 1v6.24a1 1 0 1 1-2 0V7.414l-6.33 6.331a1 1 0 1 1-1.415-1.414L16.584 6h-3.826a1 1 0 0 1-1-1ZM9.548 7.882a1 1 0 0 1-1 1l-1.94.002A.608.608 0 0 0 6 9.49v7.901c0 .336.272.608.608.608h7.9a.608.608 0 0 0 .608-.608v-1.94a1 1 0 0 1 2 0v1.94A2.608 2.608 0 0 1 14.508 20h-7.9A2.608 2.608 0 0 1 4 17.392v-7.9a2.608 2.608 0 0 1 2.606-2.608l1.941-.002a1 1 0 0 1 1.001 1Z" clip-rule="evenodd"></path></svg>