<svg width="48" height="48" viewBox="0 0 48 48" fill="none" xmlns="http://www.w3.org/2000/svg">
<path d="M24.5 22.6785C23.4985 22.6785 22.679 23.4923 22.679 24.4995C22.679 25.5061 23.4933 26.3204 24.5 26.3204C25.5066 26.3204 26.3209 25.5061 26.3209 24.4995C26.3209 23.4929 25.5066 22.6785 24.5 22.6785Z" fill="#161617" stroke="#161617" stroke-width="0.6"/>
<path d="M24.5 3.7C13.0305 3.7 3.7 13.0329 3.7 24.5C3.7 35.9695 13.0329 45.3 24.5 45.3C35.9695 45.3 45.3 35.9671 45.3 24.5C45.3 13.0305 35.9695 3.7 24.5 3.7ZM41.7066 26.2507C40.8829 34.392 34.3923 40.8851 26.2507 41.7067V35.8044C26.2507 34.8385 25.4658 34.0537 24.5 34.0537C23.5342 34.0537 22.7493 34.8385 22.7493 35.8044V41.7066C14.608 40.8829 8.11492 34.3923 7.29329 26.2507H13.1956C14.1615 26.2507 14.9463 25.4658 14.9463 24.5C14.9463 23.5342 14.1615 22.7493 13.1956 22.7493H7.29338C8.11711 14.608 14.6077 8.11492 22.7493 7.29329V13.1956C22.7493 14.1615 23.5342 14.9463 24.5 14.9463C25.4658 14.9463 26.2507 14.1615 26.2507 13.1956V7.29338C34.392 8.11711 40.8851 14.6077 41.7067 22.7493H35.8044C34.8385 22.7493 34.0537 23.5342 34.0537 24.5C34.0537 25.4658 34.8385 26.2507 35.8044 26.2507H41.7066Z" fill="#161617" stroke="#161617" stroke-width="0.6"/>
</svg>
