<svg width="48" height="48" viewBox="0 0 48 48" fill="none" xmlns="http://www.w3.org/2000/svg">
<path fill-rule="evenodd" clip-rule="evenodd" d="M20.096 31.1913C20.8541 31.9947 22.1199 32.0313 22.9233 31.2731C23.7266 30.515 23.7632 29.2492 23.0051 28.4459L15.2216 20.1987C14.8435 19.7981 14.3169 19.5711 13.766 19.5714C13.2152 19.5717 12.6888 19.7992 12.3111 20.2002L4.54415 28.4474C3.78686 29.2515 3.82482 30.5173 4.62893 31.2746C5.43304 32.0319 6.6988 31.9939 7.45608 31.1898L11.7757 26.6032L11.7757 42.6672C11.7757 43.7718 12.6711 44.6672 13.7757 44.6672C14.8802 44.6672 15.7757 43.7718 15.7757 42.6672L15.7757 26.6136L20.096 31.1913Z" fill="#161617"/>
<path fill-rule="evenodd" clip-rule="evenodd" d="M40.3008 17.581C41.0682 18.3755 42.3344 18.3974 43.1288 17.6299C43.9232 16.8625 43.9451 15.5964 43.1777 14.8019L34.2988 5.61045C33.9216 5.22006 33.402 4.99971 32.8592 5C32.3165 5.00029 31.7971 5.22118 31.4204 5.61198L22.5602 14.8035C21.7936 15.5987 21.8169 16.8648 22.6121 17.6314C23.4074 18.398 24.6735 18.3748 25.4401 17.5795L30.8195 11.9989L30.8195 38.9938C30.8195 40.0984 31.7149 40.9938 32.8195 40.9938C33.9241 40.9938 34.8195 40.0984 34.8195 38.9938L34.8195 11.9068L40.3008 17.581Z" fill="#161617"/>
</svg>
