<svg width="48" height="48" viewBox="0 0 48 48" fill="none" xmlns="http://www.w3.org/2000/svg">
<path d="M7.24008 41.7445C6.69984 41.7309 6.1736 41.9187 5.76219 42.272C5.35079 42.6253 5.08316 43.1192 5.01058 43.6592C4.981 43.9559 5.01362 44.2556 5.10633 44.5388C5.19903 44.8219 5.34975 45.0823 5.54871 45.303C5.74767 45.5236 5.99041 45.6997 6.26119 45.8196C6.53198 45.9396 6.82475 46.0008 7.12051 45.9993H40.7599C41.3002 46.013 41.8264 45.8252 42.2378 45.4718C42.6492 45.1185 42.9168 44.6246 42.9894 44.0847C43.019 43.7879 42.9864 43.4883 42.8937 43.2051C42.801 42.9219 42.6502 42.6615 42.4513 42.4408C42.2523 42.2202 42.0096 42.0442 41.7388 41.9242C41.468 41.8042 41.1753 41.743 40.8795 41.7445H26.1099V34.6532H30.7659C32.3965 34.6531 33.9991 34.2258 35.4166 33.4131C36.8341 32.6005 38.0178 31.4304 38.8517 30.0175C39.6857 28.6047 40.1412 26.9976 40.1736 25.3538C40.2061 23.7101 39.8143 22.086 39.0368 20.6408L31.441 6.50076C30.7208 5.14105 29.6478 4.00412 28.3366 3.21142C27.0254 2.41871 25.5253 2 23.9965 2C22.4677 2 20.9675 2.41871 19.6563 3.21142C18.3452 4.00412 17.2722 5.14105 16.5519 6.50076L8.96319 20.6408C8.18566 22.086 7.79392 23.7101 7.82636 25.3538C7.8588 26.9976 8.31432 28.6047 9.14825 30.0175C9.98219 31.4304 11.1659 32.6005 12.5834 33.4131C14.0009 34.2258 15.6035 34.6531 17.2341 34.6532H21.8901V41.7445H7.24008ZM17.2341 30.3984C16.3344 30.3989 15.4501 30.1635 14.6678 29.7154C13.8855 29.2673 13.2322 28.6219 12.7719 27.8424C12.3116 27.063 12.0601 26.1763 12.0422 25.2693C12.0243 24.3623 12.2405 23.4662 12.6696 22.6689L20.2654 8.52887C20.6234 7.84279 21.1605 7.26836 21.8187 6.86762C22.4769 6.46689 23.2311 6.25508 24 6.25508C24.7689 6.25508 25.5231 6.46689 26.1813 6.86762C26.8395 7.26836 27.3766 7.84279 27.7346 8.52887L35.3304 22.6689C35.7595 23.4662 35.9757 24.3623 35.9578 25.2693C35.9399 26.1763 35.6884 27.063 35.2281 27.8424C34.7678 28.6219 34.1145 29.2673 33.3322 29.7154C32.5499 30.1635 31.6656 30.3989 30.7659 30.3984H26.1099V24.0163C26.1099 23.4521 25.8876 22.9109 25.4919 22.512C25.0963 22.113 24.5596 21.8889 24 21.8889C23.4404 21.8889 22.9037 22.113 22.5081 22.512C22.1124 22.9109 21.8901 23.4521 21.8901 24.0163V30.3984H17.2341Z" fill="#161617"/>
</svg>
