<svg width="164" height="54" viewBox="0 0 164 54" fill="none" xmlns="http://www.w3.org/2000/svg">
<g clip-path="url(#clip0_8025_5134)">
<path d="M74.3269 27.7144L73.6887 27.2953C71.4923 25.0668 68.4136 24.0953 64.3213 24.343C60.9047 24.5525 58.2015 25.9239 56.1365 27.2001C56.1365 27.162 56.1365 27.143 56.1365 27.1049C56.1365 26.0192 56.2492 24.8382 56.3806 23.6953C56.4932 22.5334 56.6246 21.3525 56.6246 20.2287C56.6246 19.1049 56.4932 18.0001 56.1178 17.0858C56.0239 16.8573 55.7986 16.7049 55.5358 16.7049C54.4283 16.7239 52.2882 17.4858 51.7626 17.962L51.481 18.5906C51.481 19.8287 51.1994 23.2953 50.9178 23.7144L50.7677 24.1334C50.2984 29.0858 50.2984 33.4287 50.7301 37.162C50.7864 37.543 51.481 38.0954 52.0254 38.3049C52.6261 38.5334 54.5033 38.0192 55.5921 37.6001L56.0051 37.543C56.343 37.5049 56.5495 37.2192 56.5308 36.8192L56.5495 35.7525C57.338 32.5334 60.4917 28.6858 64.2274 28.1144C66.3487 27.7715 68.0006 28.3239 69.3335 29.7906C69.5024 30.0573 69.8966 32.362 68.5075 35.0287C67.475 36.9906 65.3913 38.6668 62.6693 39.6954C60.0787 40.6858 57.2441 41.0858 53.7337 40.9715C53.5835 40.8763 50.4485 38.7239 50.4485 38.7239C47.6702 36.743 44.2161 34.2668 41.0811 33.0668C40.5367 32.8573 39.5418 32.0192 38.9599 31.5239L38.6407 31.2573C36.8386 29.7906 33.3845 27.4668 30.625 25.6001C30.625 25.6001 29.386 24.743 29.142 24.5906C29.142 24.4953 29.142 24.2668 29.142 24.2668C29.217 24.1715 30.9629 23.1239 30.9629 23.1239C33.3845 21.6763 34.5108 20.9715 34.7549 20.6096C34.6986 20.6668 35.074 20.4192 35.074 20.4192C35.0928 20.4192 41.0999 16.9525 41.0999 16.9525C46.8818 13.7334 53.4333 10.0763 56.8687 6.45726L57.0376 5.90487L57.1127 5.40964C57.338 4.62868 57.3567 4.03821 57.169 3.35249C57.1127 3.16202 56.9437 2.93345 56.6997 2.89535C54.0153 2.62868 50.5424 4.26678 47.3886 7.25726C46.6753 7.94297 46.0746 8.26678 45.4551 8.60964L44.967 8.8763C41.4941 10.8763 33.6473 15.8096 29.5549 18.4763C29.8178 14.0001 30.6437 7.63821 31.6387 2.32392L31.526 1.69535L31.0943 0.89535L30.7751 0.323922H30.6813C29.8553 -0.114173 29.1983 0.0572552 28.7102 0.171541L27.8842 0.476303L26.7954 0.876303C26.5889 0.914398 26.42 1.04773 26.3449 1.25726C24.3926 6.05726 22.7594 13.962 22.3651 20.2858C18.4605 17.7525 14.8375 15.943 13.0541 15.0668H12.9978L12.7913 14.9906C12.153 14.9144 11.3833 14.4382 10.6325 13.962C10.5574 13.9239 9.14944 12.9906 9.14944 12.9906L6.87799 11.5049L6.27728 11.3715C5.30112 11.543 3.42388 12.8192 2.86071 13.6954C2.78563 13.8096 2.76685 13.9239 2.76685 14.0573C2.76685 14.2477 2.82317 14.4192 2.86071 14.6096L2.95458 15.0858L3.06721 15.3715C4.156 16.5144 6.91553 18.4001 9.59998 19.8668L12.735 21.543L17.5219 24.1906L18.3291 24.8573L18.8923 25.1811C18.8923 25.1811 18.9486 25.2192 18.9861 25.2382C17.7096 26.0953 10.2758 31.143 10.2758 31.143L5.69533 34.2287C5.26357 34.5334 3.46143 35.3525 3.04844 35.5049C2.05351 35.9239 1.30261 36.5525 1.00226 37.2192L0.87085 37.4858L1.00226 37.6573L1.35893 37.9239L1.82824 38.2287L2.33509 38.5715L2.8044 38.6477C3.61161 38.6858 4.79426 38.2096 7.02817 37.2192C9.07435 36.3049 14.631 32.8954 17.015 31.4477L18.0287 30.8382C18.4417 30.8763 18.911 30.5144 19.324 30.1906C19.7933 29.8096 20.8446 29.162 21.4641 28.8763C21.4828 28.8763 21.8395 28.6668 22.1774 28.4763C22.1774 28.5715 22.1774 28.743 22.1774 28.743C22.2901 36.1334 22.703 41.4858 23.4915 45.6192V45.6954L23.5853 45.8668C23.9796 46.4573 24.4113 48.1906 24.8243 49.7334L25.7254 52.8192L25.9882 53.1049C26.4951 53.4668 28.0719 54.0763 29.1232 53.943L29.386 53.9049L29.5549 53.5239C29.6488 53.0668 29.6676 52.6096 29.6676 52.1144C29.6676 51.562 29.63 50.9334 29.5737 50.1715L29.4986 49.0668C29.1607 43.9239 28.8416 36.4763 28.8416 31.5239V31.1239C29.7051 31.6763 33.4784 34.0763 33.4784 34.0763C39.8985 38.3049 49.6038 44.6858 55.4607 46.3811C55.7611 46.4763 56.0802 46.4001 56.3055 46.1906L57.2066 45.6001L57.3755 45.5239C57.7134 45.3715 57.9387 44.7811 57.9762 44.1715C62.9133 43.9239 69.8028 41.9811 73.5009 37.2763C74.9276 35.4477 75.5659 33.2192 75.5659 31.3144C75.5659 29.7525 75.1341 28.4001 74.3645 27.6573" fill="#FCAF16"/>
<path d="M131.695 7.56201H149.472C157.939 7.56201 162.35 10.4001 162.35 16.6477C162.35 21.0858 159.309 24.1334 155.236 24.9525V25.1049C161.055 25.8096 163.814 29.6763 163.814 34.0572C163.814 39.543 159.854 44.2858 150.036 44.2858H131.695V7.56201ZM137.458 23.0287H149.191C153.546 23.0287 156.775 21.3525 156.775 17.4477C156.775 14.0382 155.179 11.7525 148.534 11.7525H137.458V23.0287ZM137.458 40.0953H148.834C155.893 40.0953 157.77 37.2953 157.77 33.7334C157.77 29.5239 154.898 27.1811 148.534 27.1811H137.458V40.0953Z" fill="#776C61"/>
<path d="M92.5547 7.56201H98.3366V23.9811L117.785 7.56201H125.969L105.414 24.1334L127.678 44.2668H119.493L98.3366 24.5906V44.2668H92.5547V7.56201Z" fill="#776C61"/>
</g>
<defs>
<clipPath id="clip0_8025_5134">
<rect width="163" height="54" fill="white" transform="translate(0.833252)"/>
</clipPath>
</defs>
</svg>
