<svg width="163" height="50" viewBox="0 0 163 50" fill="none" xmlns="http://www.w3.org/2000/svg">
<g clip-path="url(#clip0_8025_5188)">
<path d="M70.3884 3.51514C67.6942 3.51514 65.4985 5.68302 65.4985 8.35546C65.4985 11.0279 67.6942 13.1902 70.3884 13.1902C73.0827 13.1902 75.2784 11.0223 75.2784 8.35546C75.2784 5.68857 73.0827 3.51514 70.3884 3.51514Z" fill="#CE0080"/>
<path d="M95.9414 18.014H92.1718V16.4505C92.1718 14.2992 92.9559 12.464 95.947 11.5769C98.3332 10.8672 99.8455 9.7306 99.8455 7.71796C99.8455 5.58888 98.0979 4.13623 95.947 4.13623C90.5026 4.13623 84.3748 8.48864 84.3748 15.4747V18.0196H81.9214C79.7706 18.0196 78.0229 19.7494 78.0229 21.8785C78.0229 24.0076 79.7649 25.7375 81.9214 25.7375H84.3748V46.1467C84.3748 48.2813 86.1168 50.0056 88.2733 50.0056C90.4298 50.0056 92.1718 48.2813 92.1718 46.1467V25.7375H95.9414C98.0923 25.7375 99.8399 24.0076 99.8399 21.8785C99.8399 19.7494 98.0923 18.0196 95.9414 18.0196V18.014Z" fill="#00367F"/>
<path d="M70.3885 18.0142C68.2376 18.0142 66.49 19.744 66.49 21.8731V46.1412C66.49 48.2759 68.2376 50.0002 70.3885 50.0002C72.5394 50.0002 74.287 48.2759 74.287 46.1412V21.8731C74.287 19.744 72.5394 18.0142 70.3885 18.0142Z" fill="#00367F"/>
<path d="M158.435 42.2877H146.134C152.038 35.3626 161.415 24.3679 161.415 24.3679C162.02 23.6583 162.333 22.7711 162.333 21.8785C162.333 21.3296 162.216 20.7751 161.969 20.254C161.331 18.89 159.953 18.0195 158.435 18.0195H137.475C135.324 18.0195 133.576 19.7494 133.576 21.8785C133.576 24.0076 135.324 25.7374 137.475 25.7374H150.039C144.135 32.6625 134.758 43.6571 134.758 43.6571C134.153 44.3668 133.84 45.254 133.84 46.1466C133.84 46.7011 133.957 47.2555 134.204 47.7711C134.842 49.1351 136.22 50.0056 137.738 50.0056H158.435C160.586 50.0056 162.333 48.2812 162.333 46.1466C162.333 44.012 160.586 42.2877 158.435 42.2877Z" fill="#00367F"/>
<path d="M116.733 16.8884C107.385 16.8884 99.7839 23.9742 99.7839 33.2224C99.7839 42.4705 107.385 49.9999 116.733 49.9999H124.771C126.928 49.9999 128.67 48.2756 128.67 46.141C128.67 44.0063 126.922 42.282 124.771 42.282H116.733C112.925 42.282 109.536 40.7407 108.275 36.6766H127.633C134.848 36.6766 133.38 30.062 133.38 30.062C131.885 22.3164 124.99 16.8828 116.733 16.8828V16.8884ZM108.163 30.0676C109.463 26.6244 112.807 24.6063 116.728 24.6063C120.649 24.6063 123.998 26.6244 125.292 30.0676H108.158H108.163Z" fill="#00367F"/>
<path d="M57.9311 5.43375H54.1391C53.114 5.38939 41.5306 5.07336 30.2048 11.954L26.0991 14.6043C19.9769 18.685 13.6699 22.8877 0.333252 23.7416V29.6076C15.3671 28.7039 22.6263 23.8691 29.1238 19.5389L33.0279 17.0106C43.1494 10.8618 53.859 11.2776 53.9654 11.2832C54.0046 11.2832 54.0551 11.2832 54.0943 11.2832H57.9255C59.4771 11.2832 60.7318 9.96912 60.7318 8.35568C60.7318 6.74224 59.4771 5.42266 57.9255 5.42266L57.9311 5.43375Z" fill="#CE0080"/>
<path d="M57.7967 18.4631C57.6903 18.4631 47.2663 18.8789 37.1504 12.7356L33.2463 10.2074C26.1607 5.48348 18.2181 0.199601 0.333252 0V5.8605C16.5489 6.04347 23.4945 10.662 30.2216 15.1475L34.3274 17.7977C45.9332 24.8503 57.5783 24.3402 58.0656 24.318C59.6115 24.2404 60.799 22.8654 60.7262 21.2519C60.6534 19.6385 59.3371 18.391 57.7911 18.4631H57.7967Z" fill="#00A0E9"/>
<path d="M57.9311 30.7051H54.0999C54.0607 30.7051 54.0102 30.7051 53.971 30.7051C53.8646 30.7051 43.155 31.1265 33.0335 24.9777L29.1294 22.455C22.6263 18.1248 15.3671 13.29 0.333252 12.3862V18.2523C13.6699 19.1117 19.9769 23.3088 26.0991 27.3896L30.2048 30.0398C41.525 36.9205 53.114 36.6045 54.1391 36.5601H57.9311C59.4827 36.5601 60.7374 35.2461 60.7374 33.6326C60.7374 32.0192 59.4827 30.7051 57.9311 30.7051Z" fill="#8FC31F"/>
<path d="M27.7683 13.5284C28.6029 14.0662 29.4151 14.604 30.2217 15.1474L33.0727 16.9882C35.1732 15.7185 37.2961 14.7316 39.3461 13.9609C38.6124 13.5839 37.8842 13.1736 37.1504 12.7356L33.3024 10.2461C32.2717 10.7617 31.2355 11.3273 30.2049 11.9538L27.7683 13.5284Z" fill="#00367F"/>
<path d="M14.3477 20.9971C16.9803 21.9618 19.2208 23.104 21.282 24.3126C23.3433 23.2592 25.1861 22.1281 26.9225 20.9971C25.1861 19.8715 23.3433 18.7405 21.282 17.687C19.2208 18.8957 16.9803 20.0379 14.3477 20.9971Z" fill="#00367F"/>
</g>
<defs>
<clipPath id="clip0_8025_5188">
<rect width="162" height="50" fill="white" transform="translate(0.333252)"/>
</clipPath>
</defs>
</svg>
