<svg width="162" height="54" viewBox="0 0 162 54" fill="none" xmlns="http://www.w3.org/2000/svg">
<path d="M117.289 27.7367C122.304 26.5479 125.955 22.8199 126.262 18.0458H117.98V16.372H129.788C129.808 18.4738 129.366 20.3568 128.549 21.983H134.064V15.5161H137.446V31.5883H134.064V23.7139H127.502C125.244 26.7666 121.602 28.6401 117.827 29.2298L117.289 27.7462V27.7367ZM124.466 35.7157C124.466 36.1437 124.466 36.5526 125.33 36.5526H138.08V38.2264H122.871C121.17 38.2264 121.17 37.0091 121.17 36.1437V30.6563H124.475V35.7157H124.466Z" fill="#ED1B23"/>
<path d="M149.58 16.8473C149.58 20.8796 152.463 23.9609 155.383 25.3018L154.259 26.6142C152.54 26.0816 149.696 24.3793 147.899 21.8211C146.131 24.3888 143.287 26.0816 141.519 26.6142L140.415 25.3018C143.287 23.9609 146.102 20.9652 146.102 16.9234V15.7821H149.59V16.8473H149.58ZM157.978 32.4344V29.8952H144.738V28.1929H161.312V34.0607H148.072V35.9912C148.072 36.3716 148.226 36.5809 148.668 36.5809H161.667V38.2642H146.842C145.478 38.2642 144.757 37.4463 144.757 36.21V32.444H157.978V32.4344ZM161.312 15.5063V27.0327H157.958V21.222H153.289V19.5387H157.958V15.5063H161.312Z" fill="#ED1B23"/>
<path d="M109.708 15.5063V38.2547H113.138V15.5063H109.708ZM104.222 23.7136H99.8981V25.7488H104.222V30.5324C103.367 30.8558 102.617 31.0364 101.503 31.0364H96.6123C96.1511 31.0364 95.7956 30.6655 95.7956 30.2091V18.892H102.06V17.2467H92.2407V31.0364C92.2407 31.9399 92.9709 32.6722 93.874 32.6722H101.503C102.665 32.6722 103.597 32.463 104.222 32.0826V38.2451H107.652V15.5063H104.222V23.7136Z" fill="#ED1B23"/>
<path d="M78.4729 27.5181V25.2832H86.0342V23.6475H71.7955C71.3439 23.6475 70.9692 23.2861 70.9692 22.8296V21.3936H85.7268V15.8872H67.4239V17.523H82.1815V19.7483H67.4239V23.6285C67.4239 24.5415 68.1637 25.2737 69.0765 25.2737H74.9276V27.5086H65.512V29.1444H87.9654V27.5086H78.4921L78.4729 27.5181ZM78.569 30.2H74.5913C73.5345 34.5271 68.3559 36.705 66.4631 36.9712L67.4527 38.4263C69.3935 38.1885 73.8131 36.6194 76.5801 33.6237C79.3472 36.6194 83.7668 38.1885 85.7075 38.4263L86.7068 36.9712C84.8044 36.6954 79.6258 34.5176 78.5786 30.2H78.569Z" fill="#ED1B23"/>
<path d="M38.1687 49.0208C32.0966 55.0217 22.1718 55.0217 16.0996 49.0208L4.88735 37.9224C-1.18478 31.912 -1.18478 22.088 4.88735 16.0776L16.0996 4.9792C22.1718 -1.02171 32.0966 -1.02171 38.1687 4.9792L49.381 16.0776C55.4532 22.088 55.4532 31.912 49.381 37.9224L38.1687 49.0208Z" fill="#ED1B23"/>
<path d="M20.4901 43.3049C19.5966 43.3049 18.876 42.6107 18.8375 41.7358C18.8183 41.2983 18.9721 40.8798 19.2699 40.5565C19.5677 40.2332 19.9809 40.043 20.4228 40.0239C21.3356 39.9859 22.1138 40.6896 22.1522 41.5931C22.1907 42.4966 21.4797 43.2669 20.5669 43.2954C20.5477 43.2954 20.5189 43.2954 20.4997 43.2954L20.4901 43.3049Z" fill="white"/>
<path d="M26.5237 13.0151C25.611 13.0151 24.8808 13.3004 24.2947 13.8805C23.0265 15.1359 22.354 17.7131 22.4116 21.1463C22.4789 25.3783 23.5069 33.6902 26.8696 37.9698C27.4173 38.664 28.0034 39.2156 28.6182 39.615C29.2139 40.0049 29.8769 40.3853 30.9145 40.3853C31.1931 40.3853 31.5006 40.3568 31.8176 40.2998C33.7488 39.8433 36.17 37.713 37.9666 34.8885C38.2453 34.4605 38.716 34.2037 39.2253 34.2037C39.5039 34.2037 39.7825 34.2798 40.0131 34.432C40.3494 34.6412 40.58 34.9645 40.6664 35.3545C40.7529 35.7349 40.6856 36.1343 40.4743 36.4672C38.1972 40.043 35.1996 42.5632 32.4422 43.1908C32.4422 43.1908 32.4037 43.2004 32.3749 43.2099C31.8657 43.305 31.3757 43.3525 30.9049 43.3525C29.1275 43.3525 27.8784 42.6868 26.9849 42.0972C26.101 41.5171 25.2747 40.7467 24.5349 39.8052C19.7983 33.7853 19.4716 22.4872 19.4524 21.2224C19.4044 18.2171 19.8367 14.1468 22.2099 11.8168C23.3628 10.6756 24.8136 10.105 26.5237 10.105H26.8024C28.5126 10.105 29.9633 10.6851 31.1163 11.8168C33.4894 14.1468 33.9218 18.2171 33.8737 21.2224C33.8161 24.3512 33.2396 30.4187 29.9633 35.8585C29.6943 36.296 29.2043 36.5718 28.6855 36.5718C28.4165 36.5718 28.1571 36.4957 27.9265 36.3625C27.2251 35.9441 26.9945 35.0406 27.4077 34.3464C29.7039 30.5423 30.8088 26.3579 30.9049 21.1748C30.9626 17.7416 30.2996 15.1549 29.0218 13.909C28.4357 13.3289 27.7055 13.0436 26.8024 13.0436H26.543L26.5237 13.0151Z" fill="white"/>
</svg>
