<svg width="164" height="48" viewBox="0 0 164 48" fill="none" xmlns="http://www.w3.org/2000/svg">
<path d="M40 24C40 35.0461 31.0445 44 19.9966 44C8.95426 44 0 35.0461 0 24C0 12.9539 8.95426 4 19.9966 4C31.0445 4 40 12.9539 40 24Z" fill="white"/>
<path d="M29.4359 22.3973C26.2352 20.2459 22.1391 21.1228 19.9887 24.3593C18.1918 27.0638 15.4826 27.4013 14.4304 27.4013C11.01 27.4013 8.66593 25.0169 7.97363 22.5517H7.97111L7.95246 22.4834L7.93155 22.3995C7.65861 21.3712 7.59056 20.8785 7.59056 19.7851C7.59056 13.8897 13.7033 7.32553 22.5041 7.32553C31.517 7.32553 36.6736 14.1175 38 17.8914L37.9362 17.6916C35.379 10.3094 28.304 5 19.9781 5C9.49734 5 1 13.4103 1 23.7868C1 33.0607 7.7579 41 17.1318 41C24.6084 41 29.6312 36.8491 31.9354 31.1319C33.2023 28.005 32.3039 24.3294 29.4356 22.3973" fill="#003668"/>
<path d="M38.175 18.8906C37.0791 15.2231 31.9445 8 22.7397 8C14.0405 8 8 14.5394 8 20.4123C8 21.5013 8.06725 21.9914 8.33626 23.0167C8.22417 22.5679 8.1634 22.1181 8.1634 21.681C8.1634 15.5635 14.3008 11.3244 20.6143 11.3244C29.1573 11.3244 36.0785 18.2338 36.0785 26.7546C36.0785 33.4372 32.2257 39.2181 26.6276 41.9968L26.6286 42C33.8465 39.3936 39 32.4973 39 24.3977C39 22.4822 38.7395 20.7918 38.175 18.8906Z" fill="#E6002D"/>
<path d="M58.8606 31.8171V28.7235H56.2506V27.1846H58.8606V24.2362H60.6073V31.8171H58.8606ZM57.698 35.4735C57.698 34.938 57.5061 34.4795 57.1233 34.0945C56.7415 33.7093 56.2836 33.5179 55.7482 33.5179C55.224 33.5179 54.7731 33.7096 54.3955 34.0945C54.0192 34.4795 53.8292 34.938 53.8292 35.4733C53.8292 36.0182 54.0192 36.4812 54.3955 36.8599C54.7733 37.2385 55.224 37.4289 55.7482 37.4289C56.2836 37.4289 56.7415 37.2388 57.1233 36.8599C57.5061 36.4812 57.698 36.0185 57.698 35.4735ZM59.4114 35.4893C59.4114 35.97 59.3145 36.4224 59.1206 36.8442C58.9307 37.2611 58.6669 37.6388 58.3426 37.9581C58.0169 38.2789 57.6329 38.5324 57.1862 38.7197C56.7415 38.907 56.267 38.9995 55.7636 38.9995C55.2715 38.9995 54.7992 38.907 54.3493 38.7197C53.8983 38.5324 53.5103 38.2787 53.1854 37.9581C52.8608 37.639 52.597 37.2613 52.4074 36.8442C52.2128 36.4202 52.1131 35.9574 52.1156 35.4893C52.1156 35.0077 52.2135 34.5563 52.4077 34.1343C52.597 33.717 52.8608 33.3393 53.1857 33.0204C53.5103 32.6996 53.8983 32.4461 54.349 32.2588C54.7979 32.0719 55.2785 31.9765 55.7634 31.978C56.267 31.978 56.7415 32.0718 57.1862 32.2588C57.6329 32.4464 58.0167 32.6998 58.3428 33.0204C58.6674 33.3396 58.9312 33.7172 59.1208 34.1343C59.3147 34.5563 59.4117 35.0075 59.4117 35.4893M48.2632 26.1748V24.6526H56.3145V26.1748H52.8874L56.4559 30.616L55.2446 31.6414L52.352 27.9702L49.5056 31.8825L48.2478 30.8568L51.8173 26.1748H48.2632ZM73.1211 27.8258H65.7467V29.7981H73.1211V27.8258ZM65.7477 26.2869H73.1211V24.4755H74.8512V31.3538H64.0341V24.4752H65.7477V26.2869ZM62.9963 33.2764H75.8889V34.8478H70.3068V38.5347H68.5631V34.8478H62.9963V33.2764ZM88.2313 32.2353V28.9797H85.7789V27.4573H88.231V24.236H89.9777V32.2355L88.2313 32.2353ZM87.0674 35.473C87.0674 34.9385 86.8765 34.479 86.4927 34.095C86.1122 33.709 85.6541 33.5174 85.1186 33.5174C84.5944 33.5174 84.1438 33.709 83.7662 34.095C83.3896 34.479 83.1997 34.9385 83.1997 35.473C83.1997 36.0179 83.3896 36.4818 83.7662 36.8594C84.1438 37.239 84.5944 37.4284 85.1184 37.4284C85.6541 37.4284 86.1122 37.239 86.493 36.8594C86.8765 36.4818 87.0672 36.0179 87.0672 35.473M88.7821 35.4898C88.7821 35.9706 88.6852 36.4217 88.4913 36.8447C88.3011 37.2615 88.0374 37.6391 87.7132 37.9586C87.3871 38.2795 87.0036 38.5319 86.5566 38.7202C86.1122 38.9075 85.6374 39 85.1341 39C84.6409 39 84.1696 38.9075 83.7187 38.7202C83.2688 38.5319 82.88 38.2795 82.5559 37.9586C82.2316 37.6391 81.9676 37.2615 81.7771 36.8447C81.5834 36.4204 81.484 35.9577 81.4863 35.4898C81.4863 35.0082 81.5842 34.5558 81.7771 34.1351C81.9668 33.7177 82.2308 33.3399 82.5559 33.0209C82.88 32.7003 83.2688 32.4456 83.7187 32.2596C84.168 32.0726 84.6488 31.9771 85.1341 31.9785C85.6374 31.9785 86.1122 32.0723 86.5566 32.2596C87.0036 32.4456 87.3871 32.7003 87.7132 33.0209C88.0381 33.3399 88.3019 33.7177 88.4913 34.1351C88.6852 34.5558 88.7821 35.008 88.7821 35.4898ZM77.5864 26.96V25.4695H80.8733V24.0748H82.7281V25.4695H85.8574V26.96H82.4612L85.9832 30.5995L84.8194 31.7061L81.7853 28.4989L78.8131 31.9618L77.6185 30.8405L81.1251 26.96H77.5864ZM103.734 38.5354H102.005V24.236H103.734V29.7489H105.747V31.5297H103.734V38.5354ZM96.2976 24.3315L100.888 35.891L99.3474 36.5798L96.2976 28.74L93.2944 36.6924L91.7058 35.9865L96.2976 24.3315ZM118.75 33.629H117.004V24.2355H118.75V28.0823H120.542V29.7013H118.75L118.75 33.629ZM107.822 38.2942V33.9982H109.567V36.7235H119.001V38.2942H107.822ZM113.435 29.8779V26.0785H107.461V24.5226H115.149V29.8779H113.435ZM115.936 31.2402V32.7959H106.832V31.2402H109.677V28.0508H111.407V31.2402H115.936ZM132.287 24.2357H134.033V38.5352H132.287V24.2357ZM129.724 36.5639H122.256V30.0222H127.821V26.6875H122.256V25.1162H129.567V31.5791H123.985V35.0082H129.724L129.724 36.5639ZM146.547 27.361H139.173V28.869H146.547V27.361ZM139.205 34.3505V36.7238H148.451V38.2942H137.459V34.3505H139.205ZM146.547 25.8228V24.2988H148.276V30.4069H143.733V31.866H149.315V33.4219H136.423V31.866H141.988V30.4071H137.459V24.2988H139.173V25.8228H146.547ZM161.233 27.8258H153.859V29.7981H161.233V27.8258ZM153.859 26.2869H161.233V24.4755H162.962V31.3538H152.145V24.4752H153.859V26.2869ZM151.107 33.2764H164V34.8478H158.418V38.5347H156.673V34.8478H151.107V33.2764ZM55.1805 14.9557H53.9918V9.22278H55.1805V11.5066H56.2307V9.21163H57.4542V15.1086H56.2307V12.6839H55.1805V14.9557ZM55.2031 17.6623C55.2031 17.3247 55.0793 17.0312 54.8347 16.7798C54.5871 16.5294 54.2953 16.4032 53.9568 16.4032C53.6185 16.4032 53.3306 16.5294 53.0902 16.7798C52.8519 17.0312 52.7323 17.3247 52.7323 17.6623C52.7323 17.9989 52.8519 18.2903 53.0902 18.5332C53.3306 18.7765 53.6185 18.8971 53.9568 18.8971C54.2953 18.8971 54.5871 18.7762 54.8347 18.5332C55.0793 18.2903 55.2031 17.9989 55.2031 17.6623ZM56.4504 17.674C56.4517 17.9876 56.3825 18.2974 56.2481 18.5795C56.1161 18.8596 55.9382 19.1147 55.7221 19.3338C55.4899 19.5553 55.2204 19.7324 54.9267 19.8567C54.6233 19.9867 54.2973 20.0529 53.9682 20.051C53.6375 20.0525 53.3099 19.9864 53.0047 19.8567C52.7083 19.7333 52.4363 19.5561 52.2018 19.3338C51.9867 19.1141 51.8093 18.8591 51.6769 18.5795C51.5427 18.2973 51.4739 17.9875 51.4755 17.674C51.4755 17.3521 51.5426 17.0449 51.6769 16.7555C51.8074 16.4716 51.9851 16.2129 52.2021 15.9908C52.4333 15.7794 52.7002 15.6081 53.0047 15.4786C53.31 15.3491 53.6376 15.2832 53.9682 15.285C54.3065 15.285 54.6264 15.3491 54.9267 15.4786C55.2181 15.6027 55.487 15.7758 55.7221 15.9908C55.94 16.2124 56.118 16.4712 56.2481 16.7555C56.382 17.0424 56.4511 17.3562 56.4504 17.674ZM51.9369 13.4128C51.9369 13.0992 51.8255 12.8298 51.6015 12.6017C51.3798 12.3734 51.1094 12.2596 50.7949 12.2596C50.4792 12.2596 50.2088 12.3734 49.9861 12.6017C49.7621 12.8298 49.6505 13.0992 49.6505 13.4128C49.6505 13.727 49.7621 13.9975 49.9861 14.2258C50.2088 14.4529 50.4792 14.5677 50.7949 14.5677C51.1094 14.5677 51.3798 14.4529 51.6015 14.2256C51.8253 13.9975 51.9369 13.7273 51.9369 13.4128ZM53.1253 13.4262C53.1275 13.7228 53.0644 14.0162 52.9406 14.2846C52.8195 14.5489 52.6468 14.7852 52.433 14.9791C52.2175 15.1831 51.9707 15.344 51.6955 15.4616C51.4179 15.5795 51.1178 15.6385 50.7949 15.6385C50.4698 15.6385 50.1685 15.5795 49.8879 15.4616C49.613 15.3475 49.3604 15.1839 49.1422 14.9788C48.9343 14.7813 48.7646 14.5459 48.6418 14.2846C48.5146 14.0171 48.4493 13.7235 48.4509 13.4262C48.4509 13.1203 48.5148 12.8331 48.6418 12.566C48.7665 12.3025 48.9359 12.0635 49.1422 11.8601C49.3628 11.6611 49.6149 11.5016 49.8879 11.3887C50.1688 11.2709 50.4698 11.2131 50.7949 11.2131C51.1178 11.2131 51.4179 11.2709 51.6955 11.3887C51.9709 11.5066 52.2175 11.6635 52.433 11.8601C52.6452 12.0599 52.8176 12.2996 52.9406 12.566C53.0644 12.8351 53.1275 13.129 53.1253 13.4262ZM50.1017 9.87084V9H51.4633V9.87084H53.3565V10.9533H48V9.8711L50.1017 9.87084ZM66.7224 14.7786V12.5077H64.8074V11.3778H66.7221V9.21087H68.0035V14.7786H66.7224ZM65.869 17.4608C65.869 17.0705 65.7286 16.7319 65.447 16.4501C65.1663 16.1682 64.83 16.0261 64.437 16.0261C64.0532 16.0261 63.7211 16.168 63.4457 16.4501C63.1681 16.7319 63.0289 17.0708 63.0289 17.4608C63.0289 17.8618 63.1681 18.2014 63.4457 18.4802C63.7211 18.758 64.0532 18.8968 64.437 18.8968C64.83 18.8968 65.1663 18.758 65.447 18.4802C65.7286 18.2014 65.869 17.8618 65.869 17.4608ZM67.1268 17.4745C67.1268 17.8268 67.0565 18.1593 66.913 18.4685C66.7729 18.7742 66.5792 19.0513 66.3413 19.2859C66.1032 19.5216 65.8206 19.7079 65.4937 19.8445C65.1624 19.9829 64.8075 20.0531 64.4495 20.0508C64.0929 20.052 63.7396 19.9819 63.4094 19.8445C63.0793 19.7076 62.7937 19.5216 62.5563 19.2859C62.3179 19.052 62.1244 18.7748 61.9859 18.4685C61.842 18.1578 61.7683 17.8181 61.7701 17.4745C61.7701 17.1212 61.8424 16.7887 61.9859 16.4795C62.1241 16.1727 62.3177 15.8951 62.5563 15.6611C62.7937 15.4254 63.0793 15.2404 63.4094 15.1025C63.7397 14.9657 64.093 14.8957 64.4495 14.8964C64.8178 14.8964 65.1663 14.9659 65.4935 15.1025C65.8206 15.2404 66.1032 15.4254 66.3416 15.6611C66.5797 15.8968 66.7706 16.1693 66.913 16.4797C67.0565 16.7889 67.1268 17.1209 67.1268 17.4745ZM58.9421 10.6363V9.51805H64.8526V10.6363H62.3376L64.957 13.8961L64.0676 14.6503L61.9446 11.9542L59.8554 14.8257L58.9312 14.073L61.5516 10.6363H58.9421ZM78.104 15.9315H76.833V9.21087H78.104V11.5071H79.5812V12.7895H78.104V15.9315ZM74.1219 12.1656C74.1219 11.9298 74.0774 11.7091 73.9896 11.5018C73.9012 11.295 73.778 11.1056 73.6255 10.9422C73.4678 10.7907 73.2865 10.667 73.089 10.5762C72.8878 10.4831 72.6694 10.435 72.4485 10.4353C72.2173 10.4353 71.9996 10.4827 71.7955 10.5762C71.5953 10.6684 71.4105 10.7919 71.2476 10.9422C71.1001 11.1083 70.9793 11.2971 70.8897 11.5018C70.7973 11.7104 70.75 11.9369 70.7512 12.1658C70.7512 12.4013 70.7977 12.621 70.8897 12.8253C70.9824 13.0293 71.101 13.2103 71.2476 13.3669C71.4069 13.5229 71.5925 13.6483 71.7955 13.7369C72.0016 13.8275 72.224 13.8734 72.4485 13.8718C72.6712 13.8718 72.8847 13.8277 73.089 13.7372C73.2894 13.6498 73.4715 13.5241 73.6255 13.3669C73.7781 13.2104 73.9015 13.0268 73.9896 12.8253C74.0784 12.6172 74.1234 12.3925 74.1219 12.1656ZM71.4425 15.9903V18.3456H78.3692V19.4983H70.1624V15.9903H71.4425ZM75.3575 12.1541C75.3575 12.5465 75.2792 12.9145 75.1266 13.2607C74.973 13.6046 74.7571 13.9158 74.4902 14.1779C74.2194 14.4387 73.9049 14.6478 73.5616 14.7953C73.2118 14.9489 72.8362 15.026 72.437 15.026C72.0368 15.026 71.6583 14.9489 71.3043 14.7953C70.9614 14.6501 70.6482 14.4407 70.3809 14.1779C70.1142 13.9161 69.8992 13.6047 69.7475 13.2604C69.5927 12.9131 69.5139 12.5356 69.5163 12.1541C69.5163 11.7618 69.5929 11.3936 69.7475 11.0473C69.8998 10.7032 70.1147 10.3916 70.3809 10.1291C70.6488 9.86736 70.9618 9.65838 71.3043 9.51272C71.6626 9.35833 72.048 9.27994 72.437 9.28234C72.8362 9.28234 73.2118 9.35913 73.5616 9.51298C73.9043 9.66082 74.2186 9.86942 74.49 10.1291C74.7565 10.392 74.9724 10.7035 75.1266 11.0473C75.2792 11.3936 75.3578 11.7618 75.3578 12.1541M88.284 15.9315V12.8369H86.3682V11.6837H88.284V9.21087H89.5653V15.9315H88.284ZM81.2203 19.4983V15.9903H82.4903V18.3456H89.6583V19.4983H81.2203ZM80.5044 10.6363V9.51805H86.4137V10.6363H83.9098L86.5189 14.5682L85.5604 15.2257L83.5054 12.0604L81.4741 15.3075L80.492 14.6501L83.101 10.6363H80.5044ZM98.7535 11.8485H93.3396V13.2957H98.7535V11.8485ZM93.3396 10.7186H98.7535V9.38904H100.022V14.4372H92.0819V9.38904H93.3396V10.7186ZM91.3205 15.8489H100.785V17.0018H96.6884V19.7094H95.4058V17.0018H91.3205V15.8489Z" fill="white"/>
</svg>
