<svg width="163" height="32" viewBox="0 0 163 32" fill="none" xmlns="http://www.w3.org/2000/svg">
<g clip-path="url(#clip0_8025_5087)">
<path d="M47.3006 0L35.1086 32H45.4718L46.9442 27.7647H58.6297L60.1021 32H70.4652L58.2733 0H47.3006ZM49.3116 20.0784L52.7869 10.0822L56.2622 20.0784H49.3116Z" fill="#03CF5D"/>
<path d="M113.594 19.8431H127.767V12.1569H113.594V7.84314H127.92V0H103.688V32H128.224V24.1569H113.594V19.8431Z" fill="#03CF5D"/>
<path d="M82.8094 21.0411L75.4943 0H65.1311L77.323 32H88.2957L100.488 0H90.1245L82.8094 21.0411Z" fill="#03CF5D"/>
<path d="M21.8499 17.1268L10.2676 0H0.666504V32H10.7248V14.8732L22.3071 32H31.9083V0H21.8499V17.1268Z" fill="#03CF5D"/>
<path d="M154.806 21.0222L155.749 20.6161C159.362 19.0594 161.2 15.6912 161.2 11.4166C161.2 7.37437 159.768 4.38397 156.943 2.52842C154.317 0.803392 150.911 0 146.225 0H133.101V32H142.855V23.0588H146.36L152.303 32H162.666L154.806 21.0222ZM148.036 14.902H142.702V8.15686H148.036C149.846 8.15686 151.313 9.66682 151.313 11.5294C151.313 13.392 149.846 14.902 148.036 14.902Z" fill="#03CF5D"/>
</g>
<defs>
<clipPath id="clip0_8025_5087">
<rect width="162" height="32" fill="white" transform="translate(0.666504)"/>
</clipPath>
</defs>
</svg>
