<svg width="69" height="56" viewBox="0 0 69 56" fill="none" xmlns="http://www.w3.org/2000/svg">
<g clip-path="url(#clip0_8025_5130)">
<path d="M22.365 33.3893L38.0168 13.9483H29.4839C25.6514 13.9483 23.0281 15.1295 20.6974 17.8759L12.457 28.1034V0H4.18743C2.2468 0 0.666992 1.59466 0.666992 3.56337V56H8.9366C10.887 56 12.457 54.4053 12.457 52.4366V38.4883L19.1566 46.7864L24.8517 53.864C26.0024 55.3208 27.514 55.9902 29.0645 55.9902H40.601L33.1408 46.7471L22.365 33.3795V33.3893ZM58.5348 46.1072C56.7989 46.1072 55.3751 44.6701 55.3751 42.9081V0H47.1055C45.1649 0 43.5754 1.59466 43.5754 3.55352V45.1426C43.5754 51.5704 47.9735 56 54.3414 56H63.4302C65.3806 56 66.9604 54.4053 66.9604 52.4366V46.0974H58.5348V46.1072Z" fill="#221E1F"/>
<path d="M13.5786 26.6761L13.5981 26.6564C13.5981 26.6564 13.5884 26.6663 13.5688 26.6761H13.5786ZM68.6671 18.7422V10.8477L67.9357 11.6253C67.9064 11.6351 65.6927 13.9188 59.3345 13.9188H29.2694C24.5202 13.9188 22.2773 15.8679 20.5805 17.9842L19.654 19.1359C19.654 19.1359 19.5955 19.2048 19.5663 19.2344L13.5981 26.6466C15.7728 24.9928 18.7374 23.9986 21.7702 23.9986H59.3248C63.8789 23.9986 68.2575 22.6501 68.6183 19.2048C68.6671 18.9194 68.6573 18.7422 68.6573 18.7422H68.6671Z" fill="#ED1B23"/>
</g>
<defs>
<clipPath id="clip0_8025_5130">
<rect width="68" height="56" fill="white" transform="translate(0.666992)"/>
</clipPath>
</defs>
</svg>
