<svg width="164" height="40" viewBox="0 0 164 40" fill="none" xmlns="http://www.w3.org/2000/svg">
<path d="M163.035 9.12993C160.677 7.74749 157.126 7.09693 154.605 7.09693C147.937 7.09693 144.847 10.0787 144.847 14.3344C144.847 17.9938 147.612 20.2165 150.62 21.3821C152.111 21.9242 153.765 22.4935 155.012 22.8459C157.018 23.4151 157.804 24.3638 157.804 25.7463C157.804 27.4811 156.584 28.5111 153.412 28.5111C151.244 28.5111 148.398 27.6437 146.365 26.4781L144.467 30.7068C147.069 32.1976 150.566 32.9837 153.467 32.9837C159.701 32.9837 163.333 29.8665 163.333 25.5565C163.333 21.4634 161.165 20.0268 158.725 18.9696C157.777 18.5901 156.015 18.0209 155.093 17.7498C151.976 16.8824 150.295 16.0963 150.295 14.0362C150.295 12.5182 151.298 11.3256 154.713 11.3256C157.18 11.3256 159.593 12.1659 161.246 13.1146L163.035 9.12993ZM137.419 7.44931V27.8606H136.796L129.586 7.44931H119.827V32.5229H125.113V11.7864H125.791L132.92 32.5229H142.678V7.44931H137.419ZM118.065 10.4039C115.897 7.99145 112.346 7.06982 109.147 7.06982C101.747 7.06982 97.2476 11.4882 97.2476 19.9997C97.2476 28.1316 100.717 32.9295 109.093 32.9295C112.21 32.9295 115.49 32.1976 117.713 30.8965L116.466 26.7221C114.677 27.6166 111.994 28.213 109.473 28.213C104.214 28.213 102.832 24.8517 102.832 19.9454C102.832 14.226 105.38 11.4882 109.364 11.4882C111.722 11.4882 113.701 12.5182 115.029 13.9007L118.065 10.4039Z" fill="#636466"/>
<path d="M19.9398 39.2726C30.5927 39.2726 39.2125 30.6527 39.2125 19.9998C39.2125 9.37405 30.5927 0.727051 19.9398 0.727051C9.31399 0.727051 0.666992 9.34694 0.666992 19.9998C0.694099 30.6527 9.31399 39.2726 19.9398 39.2726Z" fill="#C00C3F"/>
<path d="M19.1809 11.5425V28.4299H24.5751V26.939H20.726V11.5425H19.1809Z" fill="white"/>
<path d="M13.8136 16.1501C15.0876 16.1501 16.1176 15.1201 16.1176 13.8461C16.1176 12.572 15.0876 11.542 13.8136 11.542C12.5396 11.542 11.5095 12.572 11.5095 13.8461C11.5095 15.1201 12.5396 16.1501 13.8136 16.1501Z" fill="white"/>
<path d="M20.7258 3.8982C20.536 3.8982 20.1565 3.87109 19.9397 3.87109C11.0487 3.87109 3.81128 11.1085 3.81128 19.9995C3.81128 24.3095 5.49189 28.3483 8.52782 31.4114C11.5638 34.4473 15.6297 36.1279 19.9397 36.1279C24.2496 36.1279 28.2885 34.4473 31.3516 31.4114C34.3875 28.3754 36.0681 24.3095 36.0681 19.9995V19.2676H35.4175H24.5749V20.7585H34.5501V20.9753C34.0351 28.5652 27.6922 34.6099 19.9668 34.6099C16.0635 34.6099 12.4041 33.092 9.63919 30.3271C6.84722 27.5893 5.32925 23.9029 5.32925 19.9995C5.32925 16.0962 6.84722 12.4368 9.61209 9.6719C12.377 6.90703 16.0363 5.38906 19.9397 5.38906C20.1023 5.38906 20.536 5.38906 20.7258 5.41616V3.8982Z" fill="white"/>
<path d="M78.4898 22.9811H83.2063V27.3724C82.3389 27.6977 80.6312 28.023 79.0319 28.023C73.8275 28.023 72.0926 25.3665 72.0926 19.9994C72.0926 14.8763 73.7461 11.8403 78.9506 11.8403C81.851 11.8403 83.5045 12.762 84.8598 14.4968L88.465 11.1898C86.2694 8.04541 82.4202 7.09668 78.8151 7.09668C70.7102 7.09668 66.4274 11.5151 66.4274 19.9723C66.4274 28.3753 70.2765 32.9292 78.7608 32.9292C82.6642 32.9292 86.4591 31.9263 88.5192 30.4896V18.3188H78.4627V22.9811H78.4898ZM53.7415 7.44906H47.9407V32.5226H65.7497V27.6435H53.7415V7.44906Z" fill="#636466"/>
</svg>
