<svg width="163" height="44" viewBox="0 0 163 44" fill="none" xmlns="http://www.w3.org/2000/svg">
<g clip-path="url(#clip0_8025_5174)">
<path d="M18.8613 22.5551C18.2228 16.8349 24.3086 12.24 32.4599 12.3099C40.6111 12.372 47.7375 17.0599 48.3761 22.7724C49.0146 28.5004 42.9288 33.0797 34.7775 33.0176C26.6263 32.9633 19.4999 28.2753 18.8613 22.5551ZM49.8975 24.3325C49.1644 17.2385 40.958 11.4251 31.5769 11.3475C22.188 11.2698 15.1877 16.959 15.9209 24.0531C16.654 31.1471 24.8604 36.9605 34.2415 37.0381C43.6225 37.1079 50.6385 31.4265 49.8975 24.3325Z" fill="#FBB584"/>
<path d="M35.7314 37.1775C31.1118 41.9353 23.6937 42.3311 19.1609 38.0623C14.6359 33.7935 14.7069 26.4821 19.3343 21.7321C23.9539 16.982 31.3798 16.5862 35.8969 20.8473C40.4219 25.1161 40.3509 32.4275 35.7235 37.1775M18.6169 21.5769C13.2485 27.1031 13.1617 35.6019 18.4198 40.5615C23.678 45.5211 32.3022 45.0632 37.6706 39.537C43.047 34.0108 43.1337 25.5119 37.8677 20.5523C32.6096 15.5927 23.9854 16.0507 18.609 21.5769" fill="#F89B6C"/>
<path d="M19.1057 3.78761C28.7154 0.240595 38.2225 3.82641 40.3352 11.7975C42.4479 19.7686 36.37 29.1134 26.7603 32.6527C17.1507 36.1997 7.64356 32.6139 5.53086 24.6428C3.41027 16.6717 9.49611 7.33462 19.1057 3.78761ZM10.182 6.83012C0.20969 14.6072 -2.3287 25.8691 4.50604 31.9852C11.3487 38.109 24.9709 36.7663 34.951 28.9892C44.9233 21.22 47.4617 9.95801 40.619 3.83417C33.7764 -2.2819 20.1463 -0.939154 10.182 6.83012Z" fill="#F37321"/>
<path d="M72.8537 13.187V30.7824H70.0552V21.4996H59.4602V30.7824H56.6616V13.187H59.4602V19.0935H70.0552V13.187H72.8537Z" fill="black"/>
<path d="M79.5701 30.7823C78.2614 30.7823 77.2288 30.4252 76.4641 29.7034C75.6836 28.9816 75.2974 28.058 75.2974 26.9248V25.9856C75.2974 24.8369 75.6836 23.9056 76.4641 23.1837C77.2288 22.4464 78.2614 22.0816 79.5701 22.0816H86.8699V22.0117C86.8699 20.5992 86.0816 19.9006 84.5128 19.9006H76.3931V17.5566H84.4655C86.1447 17.5566 87.4296 17.9758 88.3125 18.8218C89.2112 19.6367 89.6685 20.8165 89.6685 22.361V27.0257C89.6685 28.221 89.2585 29.1601 88.4308 29.8509C87.6819 30.4796 86.6334 30.79 85.2775 30.79H79.5622L79.5701 30.7823ZM84.6863 24.4178H80.2559C78.8212 24.4178 78.1117 25.0155 78.1117 26.2107V26.6454C78.1117 27.8251 78.829 28.415 80.2559 28.415H84.6863C86.1447 28.415 86.8778 27.8251 86.8778 26.6454V26.2107C86.8778 25.0155 86.1447 24.4178 84.6863 24.4178Z" fill="black"/>
<path d="M97.867 17.5488H100.618C102.36 17.5488 103.732 18.0456 104.725 19.039C105.719 20.0325 106.215 21.4218 106.215 23.1992V30.7822H103.417V23.3389C103.417 22.2368 103.196 21.4296 102.762 20.9251C102.218 20.2654 101.43 19.9394 100.405 19.9394H98.0246C97.0313 19.9394 96.2509 20.2654 95.6912 20.9251C95.2891 21.4296 95.0842 22.2368 95.0842 23.3389V30.7822H92.2856V23.1992C92.2856 21.4218 92.7823 20.0403 93.7756 19.039C94.7689 18.0456 96.1327 17.5488 97.8591 17.5488H97.867Z" fill="black"/>
<path d="M119.12 29.0126C118.127 30.1924 116.889 30.7823 115.407 30.7823H113.681C112.128 30.7823 110.89 30.301 109.968 29.3386C109.093 28.4383 108.659 27.1576 108.659 25.5044V17.5566H111.434V25.5277C111.434 26.4901 111.647 27.1964 112.065 27.6388C112.546 28.1433 113.176 28.3995 113.957 28.3995H115.171C115.967 28.3995 116.605 28.1433 117.086 27.6388C117.52 27.1964 117.741 26.4901 117.741 25.5277V17.5566H120.492V25.5277C120.492 26.4901 120.705 27.1964 121.123 27.6388C121.603 28.1433 122.234 28.3995 123.015 28.3995H124.229C125.025 28.3995 125.663 28.1433 126.144 27.6388C126.578 27.1964 126.798 26.4901 126.798 25.5277V17.5566H129.573V25.5044C129.573 27.1576 129.124 28.4383 128.217 29.3386C127.303 30.301 126.057 30.7823 124.481 30.7823H122.778C121.327 30.7823 120.113 30.1924 119.112 29.0126H119.12Z" fill="black"/>
<path d="M137.796 19.9392C136.802 19.9392 136.022 20.2652 135.462 20.9249C135.06 21.4294 134.855 22.2366 134.855 23.3388V30.782H132.057V13.1401H134.855V18.3559C135.667 17.8203 136.589 17.5487 137.63 17.5487H140.381C142.124 17.5487 143.495 18.0454 144.488 19.0389C145.482 20.0324 145.978 21.4217 145.978 23.1991V30.782H143.18V23.3388C143.18 22.2366 142.959 21.4294 142.526 20.9249C141.982 20.2652 141.193 19.9392 140.168 19.9392H137.788H137.796Z" fill="black"/>
<path d="M152.561 30.7823C151.252 30.7823 150.219 30.4252 149.455 29.7034C148.674 28.9816 148.288 28.058 148.288 26.9248V25.9856C148.288 24.8369 148.674 23.9056 149.455 23.1837C150.219 22.4464 151.252 22.0816 152.561 22.0816H159.861V22.0117C159.861 20.5992 159.072 19.9006 157.504 19.9006H149.384V17.5566H157.456C159.135 17.5566 160.42 17.9758 161.303 18.8218C162.202 19.6367 162.659 20.8165 162.659 22.361V27.0257C162.659 28.221 162.249 29.1601 161.422 29.8509C160.673 30.4796 159.624 30.79 158.268 30.79H152.553L152.561 30.7823ZM157.669 24.4178H153.239C151.804 24.4178 151.095 25.0155 151.095 26.2107V26.6454C151.095 27.8251 151.812 28.415 153.239 28.415H157.669C159.128 28.415 159.861 27.8251 159.861 26.6454V26.2107C159.861 25.0155 159.128 24.4178 157.669 24.4178Z" fill="black"/>
</g>
<defs>
<clipPath id="clip0_8025_5174">
<rect width="162" height="44" fill="white" transform="translate(0.666992)"/>
</clipPath>
</defs>
</svg>
