<svg width="163" height="42" viewBox="0 0 163 42" fill="none" xmlns="http://www.w3.org/2000/svg">
<g clip-path="url(#clip0_8025_5332)">
<path d="M68.6264 0.591309H61.6187V41.4031H68.6264V0.591309Z" fill="#00428E"/>
<path d="M24.5347 41.4089L11.7032 20.228L22.6765 0.591309H15.6914L7.22205 15.8943V0.591309H0.333252V41.4089H7.22205V25.5089L17.051 41.4089H24.5347Z" fill="#00428E"/>
<path d="M44.4475 34.957C44.4475 37.7237 43.1729 38.8258 40.2893 38.8258C37.4058 38.8258 36.1311 37.7179 36.1311 34.957V7.04879C36.1311 4.28782 37.4114 3.17999 40.2893 3.17999C43.1672 3.17999 44.4475 4.28782 44.4475 7.04879V34.957ZM48.923 1.98606C46.8325 0.355884 44.3455 0 40.2893 0C36.2331 0 33.7461 0.350144 31.6613 1.98606C29.5596 3.62198 29.3386 5.39565 29.3386 7.76056V34.2394C29.3386 36.6101 29.5596 38.3838 31.6613 40.0139C33.7518 41.6499 36.2331 42 40.2893 42C44.3455 42 46.8325 41.6499 48.923 40.0139C51.0191 38.378 51.2457 36.6101 51.2457 34.2394V7.76056C51.2457 5.38991 51.0191 3.62198 48.923 1.98606Z" fill="#00428E"/>
<path d="M92.607 35.7835C92.607 37.4481 91.7459 38.8315 89.3438 38.8315C86.9418 38.8315 85.8088 37.7581 85.8088 35.7663V6.2337C85.8088 4.28208 86.8002 3.18573 89.3382 3.18573C91.5929 3.18573 92.6013 4.28208 92.6013 6.21648V10.9233H99.8073V7.94424C99.8073 5.5736 99.5921 3.61624 97.4903 1.98606C95.5528 0.476425 93.3661 0 89.6214 0C85.8768 0 83.4351 0.350144 81.339 1.98606C79.2429 3.62198 79.022 5.39565 79.022 7.76056V34.2394C79.022 36.6101 79.2429 38.3838 81.339 40.0139C83.4351 41.6499 85.7238 42 89.6214 42C93.519 42 95.3999 41.6499 97.496 40.0139C99.5921 38.378 99.813 36.4321 99.813 34.0615V30.2731H92.607V35.7835Z" fill="#00428E"/>
<path d="M141.078 22.6562C141.078 22.6562 143.281 22.5185 145.326 23.5287C147.377 24.5332 148.499 26.3069 148.499 26.3069C148.499 26.3069 146.295 26.4447 144.25 25.4402C142.199 24.4356 141.078 22.6562 141.078 22.6562Z" fill="#00428E"/>
<path d="M127.651 20.8194C127.651 20.8194 129.9 20.9342 132.048 19.9297C134.195 18.9252 135.418 17.1802 135.418 17.1802C135.418 17.1802 133.164 17.0654 131.022 18.0757C128.881 19.0802 127.657 20.8251 127.657 20.8251" fill="#00428E"/>
<path d="M128.048 21.4334C128.048 21.4334 130.184 21.1234 132.223 21.8811C134.257 22.6445 135.424 24.1886 135.424 24.1886C135.424 24.1886 133.294 24.4986 131.254 23.7409C129.215 22.9774 128.048 21.4334 128.048 21.4334Z" fill="#00428E"/>
<path d="M134.784 20.4805C134.784 20.4805 136.885 21.0373 139.18 20.492C141.474 19.9467 143.083 18.5116 143.083 18.5116C143.083 18.5116 140.981 17.9549 138.687 18.5002C136.393 19.0397 134.778 20.4805 134.778 20.4805" fill="#00428E"/>
<path d="M134.863 21.0601C134.863 21.0601 135.503 22.9313 137.157 24.2343C138.812 25.5373 140.862 25.7956 140.862 25.7956C140.862 25.7956 140.222 23.9243 138.568 22.6214C136.914 21.3126 134.869 21.0601 134.869 21.0601" fill="#00428E"/>
<path d="M141.117 22.0534C141.117 22.0534 143.417 22.4724 145.763 21.7664C148.114 21.0718 149.626 19.522 149.626 19.522C149.626 19.522 147.332 19.1087 144.981 19.809C142.63 20.5093 141.117 22.0534 141.117 22.0534Z" fill="#00428E"/>
<path d="M149.411 22.4209C149.411 22.4209 151.383 22.0191 152.98 20.6989C154.578 19.3786 155.19 17.6509 155.19 17.6509C155.19 17.6509 153.218 18.0527 151.621 19.3786C150.023 20.6931 149.406 22.4266 149.406 22.4266" fill="#00428E"/>
<path d="M154.855 21.3587C154.855 21.3587 157.201 21.2726 159.263 19.9524C161.325 18.6265 162.333 16.5601 162.333 16.5601C162.333 16.5601 159.999 16.8011 157.937 18.1271C155.869 19.4473 154.855 21.3587 154.855 21.3587Z" fill="#00428E"/>
<path d="M148.686 23.3849C148.686 23.3849 150.357 24.5329 152.482 24.7166C154.617 24.9003 156.396 24.0565 156.396 24.0565C156.396 24.0565 154.719 22.9027 152.595 22.719C150.459 22.5353 148.686 23.3791 148.686 23.3791" fill="#00428E"/>
<path d="M127.221 21.6976C124.694 22.3003 122.626 23.2187 120.933 24.2749L120.655 22.8226C118.921 23.6148 117.012 24.7341 115.148 26.3011L118.14 10.6021H118.361L118.338 10.6709L120.655 22.8226C124.048 21.2671 126.756 20.9514 127.079 20.9169L123.204 0.666016H113.262L105.472 41.3802H112.271L113.942 32.6094L114.027 32.3282C114.384 31.3696 116.123 27.2827 120.927 24.2806L124.201 41.4491H130.999L127.221 21.6976Z" fill="#00428E"/>
</g>
<defs>
<clipPath id="clip0_8025_5332">
<rect width="162" height="42" fill="white" transform="translate(0.333252)"/>
</clipPath>
</defs>
</svg>
