<svg width="162" height="48" viewBox="0 0 162 48" fill="none" xmlns="http://www.w3.org/2000/svg">
<g clip-path="url(#clip0_8025_5257)">
<path fill-rule="evenodd" clip-rule="evenodd" d="M4.21411 23.9763C4.21411 35.0219 13.3625 43.9929 24.6265 43.9929C35.8905 43.9929 45.0389 35.0219 45.0389 23.9763C45.0389 12.9308 35.8809 3.96924 24.6168 3.96924C13.3528 3.96924 4.21411 12.9308 4.21411 23.9763Z" fill="white"/>
<path fill-rule="evenodd" clip-rule="evenodd" d="M24.6169 0C11.0924 0 0.166504 10.714 0.166504 23.9763C0.166504 37.2386 11.0924 48 24.6169 48C38.1415 48 49.0674 37.2386 49.0674 23.9763C49.0674 10.714 38.1415 0 24.6169 0ZM24.6652 41.4446C14.8503 41.4446 6.81285 33.6104 6.81285 23.9384C6.81285 14.2664 14.8503 6.42274 24.6652 6.42274C34.4802 6.42274 42.5176 14.257 42.5176 23.929C42.5176 33.6009 34.5285 41.4352 24.6652 41.4352V41.4446Z" fill="#003876"/>
<path fill-rule="evenodd" clip-rule="evenodd" d="M2.52362 20.1587L2.47532 20.2534L2.42702 20.7271L2.37872 21.1534C2.37872 21.1534 2.37872 21.2481 2.42702 21.2481C2.52362 21.2481 2.52362 21.2007 2.52362 21.1534C2.55582 21.1218 2.58803 21.106 2.62023 21.106C2.62023 21.106 2.76513 21.1534 2.81343 21.2007C2.91004 21.2007 3.15155 21.3902 3.44136 21.5797C3.63457 21.7217 3.82777 21.8638 3.92438 21.9112C3.87608 21.9586 3.82777 21.9586 3.82777 21.9586C3.44136 22.148 2.71683 22.4796 2.57192 22.527C2.57192 22.527 2.47532 22.5743 2.42702 22.5743V22.4796C2.37872 22.4322 2.37872 22.3849 2.33041 22.3849H2.28211L2.23381 22.4796V22.9532L2.18551 23.2848L2.13721 23.5216C2.13721 23.6164 2.18551 23.6164 2.23381 23.6164C2.23381 23.6164 2.28211 23.6164 2.28211 23.5216C2.28211 23.4743 2.33041 23.4269 2.37872 23.3795C2.42702 23.2848 2.57192 23.1901 2.71683 23.0953C2.95834 23.0006 4.01132 22.4796 4.05962 22.4796C4.20453 22.4322 4.30113 22.3849 4.54264 22.3849L4.88076 22.4322L5.36378 22.4796C5.41208 22.527 5.55698 22.527 5.55698 22.6217V22.8585L5.60529 22.9059L5.65359 22.8585C5.70189 22.8585 5.70189 22.8111 5.70189 22.7638L5.75019 22.4322V22.0059L5.8468 21.5323C5.8468 21.5323 5.8468 21.4376 5.79849 21.4376L5.75019 21.3902C5.75019 21.3902 5.70189 21.3902 5.65359 21.4849V21.7217C5.60529 21.8165 5.55698 21.8638 5.41208 21.8638L4.97736 21.8165L4.59095 21.7691C4.44604 21.7691 4.30113 21.7691 4.15623 21.6744C4.01132 21.5796 2.99698 20.8692 2.85208 20.7271C2.70717 20.585 2.65887 20.5376 2.65887 20.4429C2.61057 20.3955 2.61057 20.3008 2.61057 20.3008C2.61057 20.1587 2.56226 20.1587 2.51396 20.1587H2.52362Z" fill="white"/>
<path fill-rule="evenodd" clip-rule="evenodd" d="M4.39779 18.9274C3.28684 18.5485 3.28684 17.8853 3.43175 17.5064C3.52835 17.2222 3.72156 16.9854 4.01137 16.8433C4.34949 16.6539 4.83251 16.6065 5.31552 16.7959C5.84685 16.938 6.18496 17.1749 6.32987 17.4591C6.47477 17.7433 6.42647 18.0274 6.37817 18.1222C6.13666 18.88 5.31552 19.2116 4.40745 18.9274H4.39779ZM4.11764 16.1423C3.68292 16.3791 3.39311 16.7581 3.1999 17.3264C3.00669 17.8475 3.05499 18.3211 3.2482 18.7474C3.48971 19.1737 3.87613 19.4579 4.35915 19.6C5.18028 19.8842 6.23326 19.6 6.61968 18.4158C6.76458 17.8948 6.76458 17.4212 6.52307 16.9949C6.28156 16.5686 5.89515 16.237 5.41213 16.0949C4.92911 15.9528 4.44609 15.9528 4.10798 16.1423H4.11764Z" fill="white"/>
<path fill-rule="evenodd" clip-rule="evenodd" d="M6.47471 10.9983L6.2815 11.2825L6.2332 11.3772L6.1366 11.4719L5.94339 11.8035C5.94339 11.8035 5.89509 11.8982 5.89509 11.9456L5.94339 11.9929C5.94339 11.9929 5.99169 11.9929 6.03999 11.9456C6.08829 11.8982 6.1366 11.8035 6.1849 11.7561C6.2815 11.7087 6.3298 11.7087 6.57131 11.8508C6.57131 11.8508 7.96241 12.6561 8.25222 12.7981C8.15562 12.8455 7.8658 12.8929 7.8658 12.8929L6.89977 13.0823C5.98203 13.3192 4.97735 13.5086 4.97735 13.5086H4.88075C4.88075 13.5086 4.73584 13.556 4.73584 13.6034V13.6507C4.73584 13.6507 4.78414 13.7455 4.83244 13.7928L7.09297 15.1664C7.38279 15.3559 7.47939 15.4506 7.47939 15.498V15.5453L7.38279 15.7348V15.8295L7.43109 15.8769C7.43109 15.8769 7.52769 15.8295 7.52769 15.7822L7.7209 15.4032L7.7692 15.3559L7.8175 15.2611L8.05901 14.8822C8.05901 14.8822 8.15562 14.7875 8.05901 14.7401H8.01071L7.96241 14.7875C7.96241 14.7875 7.86581 14.9296 7.8175 14.977C7.7692 15.0243 7.6726 15.0243 7.33448 14.8349C7.33448 14.8349 5.94339 14.0296 5.79848 13.9349H5.84678C6.1366 13.8875 6.71622 13.7928 7.23788 13.6507L8.05901 13.4613L9.07335 13.2244C9.12166 13.2244 9.21826 13.1771 9.26656 13.1297V13.0823C9.26656 13.0823 9.21826 12.9876 9.16996 12.9402L6.76452 11.4719C6.57131 11.3298 6.52301 11.2825 6.52301 11.1877L6.57131 11.1404L6.61962 11.0456V10.9035C6.52301 10.8562 6.47471 10.9509 6.47471 10.9983Z" fill="white"/>
<path fill-rule="evenodd" clip-rule="evenodd" d="M8.92855 8.26074C8.83195 8.35547 8.68704 8.4502 8.49384 8.63966C8.25233 8.87649 8.10742 9.16068 8.10742 9.44487C8.10742 9.6817 8.20403 9.87116 8.39723 10.0133C8.68705 10.2974 9.02516 10.3448 9.65308 10.2501H9.89459C10.3293 10.1554 10.5225 10.2501 10.7157 10.3922C10.764 10.4869 10.8123 10.5816 10.8123 10.7237C10.8606 10.8185 10.8123 10.9606 10.6674 11.1027C10.5225 11.2448 10.281 11.4342 9.94289 11.2921C9.84629 11.2448 9.74969 11.1974 9.74969 11.15C9.65308 11.1027 9.60478 11.1027 9.60478 11.15C9.55648 11.1974 9.60478 11.2448 9.65308 11.2921L10.0395 11.7184C10.1361 11.7658 10.1844 11.8131 10.281 11.7658C10.4742 11.671 10.6191 11.5763 10.8123 11.3869C11.0055 11.15 11.1504 10.9606 11.1987 10.7237V10.5343C11.1987 10.2027 11.0055 9.96589 10.9089 9.87116C10.5708 9.53961 10.2327 9.49224 9.51784 9.58697L9.37293 9.63434C8.88991 9.6817 8.74501 9.63434 8.6001 9.5396C8.5518 9.44487 8.5035 9.35014 8.5035 9.25541C8.4552 9.11332 8.5518 9.01859 8.6484 8.87649C8.84161 8.68703 8.98652 8.68703 9.13142 8.68703C9.27633 8.68703 9.37293 8.78176 9.37293 8.78176L9.46954 8.82913H9.51784L9.56614 8.78176C9.56614 8.78176 9.51784 8.68703 9.46954 8.63966L9.13142 8.30811L9.08312 8.26074C9.08312 8.26074 8.98652 8.26074 8.93821 8.26074H8.92855Z" fill="white"/>
<path fill-rule="evenodd" clip-rule="evenodd" d="M12.0101 5.7124V5.75977L11.9618 5.80713L11.8169 5.94923L10.9475 6.56498L10.7543 6.70707L10.4162 6.9439L10.3196 7.03863L10.3679 7.086L10.4162 7.13336L10.4645 7.086L10.6094 6.99127C10.7543 6.9439 10.8026 6.99127 10.8992 7.086C10.9958 7.18073 11.0441 7.27546 11.4788 7.84384L11.9618 8.45959C12.2034 8.79115 12.3966 9.07534 12.4932 9.21743C12.5415 9.31217 12.5898 9.4069 12.5415 9.45426L12.4449 9.54899C12.3483 9.59636 12.3483 9.64372 12.3966 9.69109H12.4449L12.5415 9.64372L12.8313 9.45426L12.9762 9.31217L13.266 9.1227L13.9905 8.60169C14.1354 8.50696 14.1837 8.45959 14.1354 8.31749C14.0871 8.22276 13.9422 7.98594 13.8939 7.89121L13.7973 7.84384H13.749C13.749 7.84384 13.749 7.93857 13.749 7.98594C13.8456 8.12803 13.8456 8.22276 13.7973 8.31749C13.7007 8.41222 13.5558 8.55432 13.4592 8.60169C13.1211 8.88588 13.0728 8.83851 12.8796 8.64905L12.5898 8.22276L12.4449 8.08067L12.2517 7.79648C12.3483 7.70174 12.6864 7.46492 12.7347 7.41755C12.8796 7.37019 12.9762 7.37019 13.0245 7.41755L13.1211 7.51228L13.1694 7.55965H13.2177L13.266 7.51228L13.2177 7.41755L13.0728 7.18073L12.9279 6.89654H12.8796L12.8313 6.84917H12.783C12.783 6.84917 12.7347 6.89653 12.7347 6.9439C12.7347 7.03863 12.6864 7.086 12.6381 7.13336C12.5898 7.18073 12.4932 7.27546 12.0584 7.55965L11.3822 6.65971C11.4788 6.56498 11.8169 6.32815 11.8652 6.28079C12.0584 6.18606 12.1068 6.18606 12.2034 6.23342C12.2517 6.28079 12.3 6.32815 12.3 6.32815C12.3483 6.42288 12.3966 6.37552 12.3966 6.37552C12.4449 6.37552 12.4449 6.32815 12.4449 6.28079L12.3 6.09132L12.2517 5.99659L12.1551 5.80713L12.1068 5.75977L12.0584 5.7124H12.0101Z" fill="white"/>
<path fill-rule="evenodd" clip-rule="evenodd" d="M14.7536 4.24414L14.4638 4.38624L14.2706 4.52833L13.7393 4.76516C13.7393 4.76516 13.5944 4.81252 13.6427 4.90725C13.6427 4.95462 13.691 4.95462 13.7876 4.90725L13.9325 4.85989C13.9325 4.85989 14.0291 4.85989 14.1257 5.00199L14.5604 5.8072L14.9468 6.51768C15.14 6.8966 15.3332 7.18079 15.3815 7.37025C15.4298 7.46498 15.4298 7.55971 15.3815 7.55971L15.2366 7.65444C15.2366 7.65444 15.1883 7.74917 15.1883 7.79654C15.1883 7.79654 15.2366 7.8439 15.3332 7.79654L15.6714 7.60708L15.8163 7.51235L16.0095 7.41762L16.4442 7.22816C16.5408 7.13342 16.5408 7.08606 16.5408 7.08606L16.4925 7.03869L16.3959 7.08606L16.2027 7.13342C16.1061 7.18079 16.0578 7.13342 15.9612 7.03869C15.8646 6.8966 15.7197 6.61241 15.5264 6.23348L15.14 5.523C14.8019 4.90725 14.7536 4.81252 14.7053 4.67043C14.657 4.62306 14.657 4.5757 14.657 4.52833C14.657 4.48097 14.657 4.48097 14.7053 4.4336L14.8502 4.38624C14.8502 4.38624 14.8985 4.33887 14.8985 4.29151V4.24414H14.7536Z" fill="white"/>
<path fill-rule="evenodd" clip-rule="evenodd" d="M21.9216 2.12207L21.5352 2.16944L21.3903 2.2168L20.9072 2.31153C20.9072 2.31153 20.8106 2.31153 20.8106 2.3589L20.7623 2.40626L20.8106 2.45363H21.0522C21.1971 2.45363 21.2454 2.45363 21.2454 2.59573L21.4386 3.54303L21.5835 4.06405C21.6801 4.5377 21.7284 4.91663 21.5352 5.15345C21.3903 5.39028 21.1005 5.48501 21.0038 5.48501C20.8589 5.53237 20.6657 5.53237 20.4242 5.43764C20.231 5.34291 20.0378 5.15345 19.8929 4.44297L19.748 3.87459L19.6031 2.92728C19.5548 2.78519 19.6031 2.73782 19.6997 2.69046L19.7963 2.64309C19.8929 2.64309 19.8929 2.59573 19.8929 2.54836C19.8929 2.50099 19.7963 2.50099 19.748 2.50099L19.4099 2.59573L19.2167 2.64309L18.9752 2.69046L18.5405 2.73782C18.5405 2.73782 18.4921 2.78519 18.4438 2.78519V2.83255L18.4921 2.87992H18.7337C18.8786 2.87992 18.8786 2.92728 18.9269 3.06938C18.9752 3.21147 18.9752 3.30621 19.1201 3.96932L19.265 4.63243C19.3616 5.15345 19.5548 5.53237 19.8929 5.72184C20.3276 5.95866 20.7623 5.86393 20.9555 5.81657C21.2454 5.7692 21.5835 5.67447 21.825 5.34291C22.1631 4.91663 22.1148 4.39561 22.0182 3.92195L21.9216 3.4483L21.7284 2.50099C21.7284 2.3589 21.7284 2.31153 21.825 2.26417H21.9699C21.9699 2.2168 22.0665 2.2168 22.0665 2.16944C22.0665 2.12207 22.0182 2.12207 21.9699 2.07471L21.9216 2.12207Z" fill="white"/>
<path fill-rule="evenodd" clip-rule="evenodd" d="M24.134 1.93242C24.134 1.93242 24.0857 1.97979 24.0857 2.07452L23.8925 4.67014C23.8925 5.04906 23.8925 5.14379 23.7959 5.19116H23.6027C23.5061 5.19116 23.4578 5.23852 23.4578 5.23852L23.5061 5.33325H24.0857L24.2306 5.38062H24.6653C24.6653 5.38062 24.8102 5.38062 24.8102 5.33325L24.7619 5.28589L24.6653 5.23852C24.6653 5.23852 24.5204 5.23852 24.4721 5.19116C24.4238 5.19116 24.3272 5.09643 24.3272 4.76487V4.7175C24.3272 4.7175 24.3755 3.11656 24.3755 2.97446L24.4238 3.02183C24.617 3.25865 25.0034 3.68494 25.3415 4.06386L25.9212 4.67961L26.6457 5.43746C26.6457 5.43746 26.7423 5.53219 26.7906 5.53219C26.8872 5.53219 26.8872 5.43746 26.8872 5.39009L27.0804 2.60501C27.0804 2.32082 27.1287 2.27345 27.2253 2.27345H27.3702L27.4668 2.22609V2.17872C27.4668 2.17872 27.3702 2.08399 27.3219 2.08399H26.211V2.13136C26.211 2.13136 26.211 2.22609 26.3076 2.22609H26.5008C26.5974 2.27345 26.6457 2.32082 26.6457 2.55765V2.60501C26.6457 2.60501 26.5974 4.20596 26.5974 4.53752C26.5491 4.44278 26.3076 4.20596 26.3076 4.20596L25.6797 3.54284C25.0517 2.83236 24.3852 2.08399 24.3852 2.03663L24.3369 1.98926C24.3369 1.98926 24.2403 1.89453 24.192 1.89453L24.1437 1.9419L24.134 1.93242Z" fill="white"/>
<path fill-rule="evenodd" clip-rule="evenodd" d="M29.1381 2.45361V2.54834L29.2347 2.59571L29.3796 2.64307C29.4279 2.69044 29.4762 2.73781 29.4279 2.8799L29.2347 3.82721L29.0415 4.58505C28.9449 4.96397 28.8483 5.3429 28.8 5.48499C28.7516 5.62709 28.7033 5.67445 28.655 5.67445L28.5101 5.62709H28.4135L28.3652 5.67445V5.72182L28.4618 5.81655L28.8 5.86392L29.0415 5.91128L29.2347 5.95865L29.7177 6.10074C29.8143 6.10074 29.8626 6.05338 29.8626 6.05338L29.8143 6.00601L29.766 5.95865L29.5245 5.86392C29.4279 5.81655 29.4279 5.76918 29.4279 5.67445C29.4762 5.48499 29.5728 5.10607 29.6694 4.72715L29.8143 3.9693L30.0558 3.06936C30.1041 2.92727 30.1524 2.8799 30.249 2.8799H30.4905V2.83254C30.4905 2.83254 30.4422 2.73781 30.3939 2.73781L30.0558 2.69044L29.8626 2.64307L29.283 2.45361H29.1381Z" fill="white"/>
<path fill-rule="evenodd" clip-rule="evenodd" d="M31.6884 3.06934L31.6401 3.1167V3.16407L31.6884 3.21143L31.8333 3.30616C31.9299 3.40089 31.9782 3.44826 31.9782 3.68509V6.61226C31.9782 6.84909 31.9299 6.94382 32.0265 6.94382C32.1232 6.99118 32.1715 6.94382 32.3647 6.75436L32.413 6.70699L33.4756 5.71232L33.9586 5.3334L34.4416 4.81238C34.6832 4.62292 34.7798 4.57555 34.8281 4.57555C34.9247 4.52819 34.973 4.57555 35.0213 4.62292H35.1179L35.1662 4.57555C35.1662 4.57555 35.1179 4.48082 35.0696 4.43346L34.8281 4.33873L34.6832 4.29136L34.5866 4.244L34.2484 4.1019C34.2484 4.1019 34.1035 4.05453 34.0552 4.1019V4.14927C34.0552 4.14927 34.1035 4.19663 34.1518 4.244L34.2967 4.29136V4.38609C34.2967 4.38609 34.2484 4.43346 34.2001 4.48082L33.1858 5.52286C33.1858 5.52286 32.6545 6.04388 32.5579 6.13861C32.5579 5.99651 32.6545 4.06401 32.6545 4.06401C32.6545 3.82718 32.6545 3.73245 32.7028 3.73245C32.7028 3.73245 32.7189 3.71666 32.7511 3.68509C32.7511 3.68509 32.8477 3.68508 32.896 3.73245C32.9926 3.73245 32.9926 3.68509 32.9926 3.68509V3.63772C32.9926 3.63772 32.9926 3.59035 32.896 3.54299L32.5579 3.40089L32.413 3.35353L32.1715 3.2588L31.785 3.1167L31.6884 3.06934Z" fill="white"/>
<path fill-rule="evenodd" clip-rule="evenodd" d="M36.1226 5.14363L36.0743 5.191L36.1709 5.28573L36.2675 5.38046C36.3641 5.47519 36.3641 5.52256 36.3158 5.66465C36.2192 5.75938 36.1709 5.90148 35.7845 6.4225L35.3498 7.08561C35.1082 7.41717 34.915 7.70136 34.7701 7.84346C34.6735 7.93819 34.6252 7.98555 34.5769 7.98555L34.432 7.89082H34.2871V7.93819L34.3837 8.03292L34.6735 8.22238L34.8667 8.31711L35.1082 8.55394L35.8811 9.02759C36.026 9.12232 36.0743 9.16968 36.1709 9.07495C36.2675 9.02759 36.4607 8.79076 36.509 8.69603L36.5573 8.6013L36.509 8.55394C36.509 8.55394 36.4124 8.55394 36.4124 8.6013C36.2675 8.7434 36.1709 8.7434 36.0743 8.7434C35.9777 8.7434 35.7845 8.6013 35.6879 8.55394C35.4947 8.41184 35.3981 8.31711 35.3981 8.22238C35.3981 8.17501 35.3981 8.08028 35.4947 7.98555L35.7845 7.60663L35.8811 7.41717L36.0743 7.13298C36.1709 7.22771 36.509 7.46453 36.6056 7.5119C36.6539 7.55926 36.7022 7.60663 36.7022 7.65399V7.74873L36.6539 7.84346L36.6056 7.89082C36.6056 7.89082 36.6056 7.93819 36.6539 7.98555C36.7022 8.03292 36.7505 7.93819 36.7505 7.93819L36.9437 7.70136L37.1369 7.46453L37.1852 7.41717V7.3698L37.1369 7.32244H37.0403C36.992 7.3698 36.9437 7.32244 36.8471 7.27507C36.7988 7.22771 36.5573 7.13298 36.2192 6.89615H36.2675L36.8954 5.94884C36.992 5.99621 37.3301 6.2804 37.3784 6.32777C37.5233 6.4225 37.5716 6.46986 37.5716 6.51723C37.5716 6.56459 37.5716 6.56459 37.5233 6.56459C37.5233 6.61196 37.5233 6.65932 37.475 6.70669V6.84878C37.475 6.84878 37.5716 6.84878 37.6199 6.80142L37.7165 6.65932L37.8132 6.56459L37.9581 6.37513H38.0064C38.0064 6.31198 37.9903 6.2804 37.9581 6.2804L37.9098 6.23304L37.7165 6.1383C37.6682 6.09094 36.8954 5.61729 36.7988 5.52256L36.6056 5.42783L36.2675 5.191C36.2675 5.191 36.1709 5.09627 36.1226 5.14363Z" fill="white"/>
<path fill-rule="evenodd" clip-rule="evenodd" d="M39.3973 9.76651C39.3007 9.76651 39.2524 9.71914 39.1558 9.62441C39.0592 9.52968 38.9626 9.43495 38.9626 9.34022V9.29285L39.9286 8.34555H39.9769C39.9769 8.34555 40.0735 8.44028 40.1218 8.48764C40.2667 8.62974 40.3151 8.77183 40.3151 8.91393C40.3151 9.15076 40.2184 9.34022 40.0252 9.48231C39.7837 9.76651 39.5422 9.81387 39.3973 9.76651ZM39.3973 7.45508H39.349V7.50244L39.3973 7.59717L39.4939 7.73927C39.5422 7.834 39.5422 7.88137 39.4456 7.9761L38.7694 8.63921L38.2381 9.20759C37.9483 9.49179 37.7067 9.72861 37.5618 9.87071C37.4169 9.91807 37.3686 9.96544 37.3203 9.91807L37.1754 9.82334L37.1271 9.77598L37.0788 9.82334L37.0305 9.87071L37.0788 9.96544L37.3686 10.2023L37.5135 10.3444L37.6101 10.4391L37.9483 10.818L38.0449 10.8654L38.0932 10.818L38.1415 10.7706L38.0932 10.7233L37.9483 10.5812L37.9 10.4865C37.9 10.4391 37.9483 10.3917 37.9966 10.297C38.0932 10.1549 38.383 9.91807 38.6728 9.63388L38.7211 9.58652L38.9626 9.87071C38.9626 9.87071 39.0109 9.87071 39.0109 9.91807L38.9626 10.2496L38.866 10.6286C38.8177 10.9127 38.8177 11.1022 38.8177 11.2443C38.8177 11.3864 38.8177 11.4811 38.866 11.5285C38.9143 11.6706 38.9626 11.7653 39.1558 11.9548L39.4456 12.239L39.5422 12.2863H39.5905V12.1916L39.4939 12.0969C39.4456 12.0021 39.349 11.8601 39.349 11.5759V11.5285C39.349 11.1969 39.3973 10.818 39.4939 10.3065V10.0696C40.0252 10.117 40.3634 10.0223 40.6532 9.78545C40.8947 9.54862 40.8947 9.21707 40.8464 9.12234C40.7981 8.79078 40.6049 8.55395 40.4117 8.36449L39.9286 7.9382L39.832 7.84347L39.4939 7.51192C39.4939 7.51192 39.4456 7.46455 39.3973 7.46455V7.45508Z" fill="white"/>
<path fill-rule="evenodd" clip-rule="evenodd" d="M41.8995 11.2826C41.5613 11.472 41.4164 11.851 41.3681 12.4193V12.7035C41.3681 13.1298 41.2232 13.3193 41.03 13.414C40.8368 13.5561 40.547 13.5087 40.3538 13.2246C40.2089 13.0825 40.1123 12.7983 40.3538 12.5141C40.4021 12.4193 40.4504 12.372 40.4987 12.3246L40.547 12.2772V12.2299C40.4987 12.1351 40.4021 12.1825 40.3538 12.2299L39.8708 12.5614C39.8064 12.593 39.7742 12.6246 39.7742 12.6562V12.7509C39.8225 12.9404 39.9191 13.1298 40.064 13.3193C40.2089 13.5561 40.4021 13.7456 40.6436 13.8403C41.0783 13.9824 41.4164 13.8403 41.5613 13.7456C41.8995 13.4614 42.0444 13.1298 42.0927 12.4667V12.3246C42.141 11.8036 42.1893 11.7089 42.3342 11.5668C42.4308 11.5194 42.5274 11.5194 42.6723 11.5194C42.7689 11.5194 42.9138 11.6141 42.9621 11.7562C43.1553 11.9457 43.107 12.1351 43.0587 12.2299C43.0587 12.372 42.9621 12.4667 42.9138 12.4667C42.8172 12.5141 42.8655 12.5614 42.8655 12.6088C42.9138 12.7035 43.0104 12.6088 43.0587 12.5614L43.4451 12.3246L43.4934 12.2772L43.5417 12.1825C43.4934 12.0404 43.3968 11.851 43.2519 11.6615C42.8655 11.1405 42.3342 10.9984 41.9091 11.2826H41.8995Z" fill="white"/>
<path fill-rule="evenodd" clip-rule="evenodd" d="M44.4014 13.7831C44.4014 13.7831 44.3531 13.8305 44.4014 13.9252L44.4497 14.0673C44.4497 14.0673 44.4497 14.162 44.3048 14.2568L43.4354 14.683L42.7109 15.0146C42.3245 15.2041 41.9863 15.3462 41.8414 15.3935C41.6965 15.4409 41.6482 15.4409 41.5999 15.3935L41.5516 15.2988L41.455 15.2041H41.4067C41.4067 15.2041 41.3584 15.2514 41.4067 15.3462L41.5516 15.6777L41.6482 15.8672L41.7448 16.0566L41.938 16.4829L42.0346 16.5777L42.0829 16.5303H42.1313L42.0829 16.4356L42.0346 16.1987C41.9863 16.104 42.0346 16.0566 42.1313 16.0093C42.2762 15.9145 42.6143 15.7724 43.0007 15.583L43.7252 15.2514C44.3531 14.9199 44.4497 14.8725 44.5947 14.8251C44.6913 14.7778 44.7879 14.7778 44.8362 14.8725L44.8845 14.9672C44.9328 15.0146 44.9811 15.062 45.0294 15.0146C45.0777 14.9672 45.0294 14.9199 45.0294 14.8725L44.8845 14.5883L44.7879 14.3989L44.5463 13.8778C44.5463 13.8778 44.4497 13.7357 44.4014 13.7831Z" fill="white"/>
<path fill-rule="evenodd" clip-rule="evenodd" d="M45.6476 16.4263C45.6476 16.4263 45.2129 16.4263 45.1163 16.4736C45.1163 16.4736 45.0197 16.521 45.068 16.5684C45.068 16.6157 45.1163 16.6157 45.1646 16.6157L45.3095 16.6631C45.4061 16.6631 45.4544 16.7578 45.551 16.9947C45.551 16.9947 45.6959 17.5157 45.7442 17.6104C45.6476 17.6104 44.015 18.0841 44.015 18.0841C43.6286 18.2262 43.2422 18.3209 43.0973 18.3209C42.9524 18.3682 42.8558 18.3682 42.8558 18.3209L42.7592 18.1788L42.7109 18.0841H42.6626C42.6626 18.0841 42.6143 18.1314 42.6143 18.2262L42.7592 18.5577L42.8075 18.7472L42.8558 18.9366L43.0007 19.4103C43.049 19.5524 43.0973 19.505 43.0973 19.505C43.0973 19.505 43.1134 19.4892 43.1456 19.4576V19.4103L43.0973 19.1735V19.1261C43.0973 19.1261 43.1456 19.0314 43.2422 18.984C43.4354 18.8893 43.7735 18.7945 44.1599 18.6998C44.1599 18.6998 45.6476 18.2735 45.8891 18.1788C45.9374 18.2735 46.034 18.6998 46.034 18.6998C46.0823 18.7945 46.0823 18.8893 46.0823 18.984C46.0823 19.1261 46.034 19.2208 45.9857 19.2208L45.9374 19.2682C45.9374 19.2682 45.8408 19.2682 45.8408 19.3156V19.3629L45.9374 19.4103L46.4688 19.2682C46.5171 19.2682 46.5654 19.2682 46.5654 19.2208V19.1261C46.5654 19.1261 46.4688 18.984 46.4205 18.7945L45.8891 17.0989L45.7925 16.6726V16.4831C45.7925 16.4831 45.6959 16.4357 45.6476 16.4357V16.4263Z" fill="white"/>
<path fill-rule="evenodd" clip-rule="evenodd" d="M46.6137 20.2915C46.6137 20.2915 46.6137 20.4336 46.5654 20.481C46.5654 20.5757 46.4205 20.6704 46.3239 20.8125C46.0824 21.002 45.1647 21.6651 45.068 21.7125C44.9714 21.7598 44.8748 21.8072 44.6333 21.8546H44.2952L43.8122 21.9019C43.7156 21.9019 43.619 21.9019 43.619 21.8072L43.5707 21.6651L43.5224 21.5704H43.4741C43.4741 21.5704 43.4258 21.6651 43.4258 21.7125L43.4741 22.044V22.4703L43.5224 22.944C43.5224 22.944 43.5707 22.9913 43.5707 23.0387H43.6673V22.7071C43.6673 22.6124 43.7639 22.565 43.9088 22.565L44.3435 22.5177L44.6816 22.4703C44.8265 22.4703 44.9714 22.4229 45.1647 22.4703C45.3096 22.5177 46.4108 23.0387 46.604 23.1808C46.749 23.2755 46.7973 23.3229 46.8456 23.4176C46.8939 23.465 46.9422 23.5123 46.9422 23.5597C46.9422 23.7018 46.9905 23.7018 47.0388 23.7018C47.0388 23.7018 47.0549 23.6544 47.0871 23.5597L47.0388 23.0861L46.9905 22.6598C46.9905 22.6598 46.9905 22.565 46.8939 22.565C46.8456 22.565 46.8456 22.6598 46.8456 22.7071C46.8456 22.7545 46.7973 22.7545 46.749 22.7545C46.7007 22.7545 46.6524 22.7545 46.5557 22.7071C46.4591 22.7071 46.1693 22.565 45.8795 22.4229C45.638 22.3282 45.4448 22.2335 45.2999 22.1861C45.3482 22.1861 45.3965 22.1388 45.3965 22.1388C45.7346 21.9019 46.4108 21.4283 46.5074 21.3809C46.5557 21.3335 46.604 21.2862 46.6524 21.2862L46.7007 21.3335C46.749 21.4283 46.749 21.4756 46.7973 21.4283H46.8456V21.002L46.7973 20.8599V20.3389L46.749 20.1968H46.7007C46.7007 20.1968 46.604 20.1968 46.604 20.2915H46.6137Z" fill="white"/>
<path fill-rule="evenodd" clip-rule="evenodd" d="M0.842773 23.9763C0.842773 36.8597 11.4789 47.3369 24.617 47.3369C37.7551 47.3369 48.4395 36.8597 48.4395 23.9763C48.4395 11.0929 37.7551 0.663086 24.617 0.663086C11.4789 0.663086 0.842773 11.0929 0.842773 23.9763ZM1.13259 23.9763C1.13259 11.2824 11.6721 0.947278 24.617 0.947278C37.5619 0.947278 48.1014 11.2824 48.1014 23.9763C48.1014 36.6702 37.5619 47.0053 24.617 47.0053C11.6721 47.0053 1.13259 36.6702 1.13259 23.9763Z" fill="white"/>
<path fill-rule="evenodd" clip-rule="evenodd" d="M12.9666 26.5718C13.4496 28.8359 14.4543 31.4789 16.4829 33.9798L24.617 26.0034L32.751 34.0271C34.77 31.4789 35.7844 28.8359 36.2674 26.5718C32.5095 25.8613 28.6164 25.4824 24.617 25.4824C20.6176 25.4824 16.7244 25.8613 12.9666 26.5718Z" fill="#003876"/>
<path fill-rule="evenodd" clip-rule="evenodd" d="M36.7988 12.8833C36.7988 12.8833 29.7757 13.1201 24.617 9.05615C19.4681 13.1201 12.4353 12.8833 12.4353 12.8833V21.4753C12.4353 22.3753 12.4353 23.9762 12.8217 25.8614C16.6279 25.1035 20.5693 24.7246 24.617 24.7246C28.6648 24.7246 32.6062 25.1035 36.4124 25.8614C36.7988 23.9762 36.7988 22.4132 36.7988 21.4753V12.8833Z" fill="#003876"/>
<path fill-rule="evenodd" clip-rule="evenodd" d="M18.4053 36.1586C20.0379 37.6174 22.0666 39.0384 24.6169 40.2604C27.1672 39.0384 29.1863 37.6648 30.7802 36.1586L24.6169 30.1147L18.4053 36.1586Z" fill="#003876"/>
<path fill-rule="evenodd" clip-rule="evenodd" d="M16.4829 33.9797C17.0142 34.7376 17.6905 35.4386 18.4053 36.1491L24.617 30.1053L30.7803 36.1491C31.5531 35.4386 32.1714 34.7376 32.751 34.0271L24.617 26.0034L16.4829 33.9797Z" fill="white"/>
<path fill-rule="evenodd" clip-rule="evenodd" d="M12.8215 25.8614C12.8698 26.0982 12.9181 26.335 12.9664 26.5719C16.7243 25.8614 20.6175 25.4825 24.6169 25.4825C28.6163 25.4825 32.5094 25.8614 36.2673 26.5719C36.3156 26.335 36.3639 26.0982 36.4122 25.8614C32.606 25.1035 28.6646 24.7246 24.6169 24.7246C20.5692 24.7246 16.6277 25.1035 12.8215 25.8614Z" fill="white"/>
<path fill-rule="evenodd" clip-rule="evenodd" d="M14.5604 19.4006C14.5604 19.4006 14.8019 19.4006 15.0917 19.3059C15.2366 19.2112 15.5264 19.0217 15.6713 19.2112V17.5629C15.623 17.5155 15.4781 17.5155 15.1883 17.6102C15.1883 17.6102 14.8502 17.7523 14.5604 17.7997C14.5604 17.7997 14.4638 17.7997 14.4638 17.8944V19.2585C14.4638 19.2585 14.4155 19.4006 14.5604 19.4006Z" fill="white"/>
<path fill-rule="evenodd" clip-rule="evenodd" d="M16.4346 19.3059C16.7244 19.4006 16.9659 19.4006 16.9659 19.4006C17.1108 19.4006 17.0625 19.2585 17.0625 19.2585V17.8944C17.0625 17.7997 16.9659 17.7997 16.9659 17.7997C16.6761 17.7523 16.338 17.6102 16.338 17.6102C16.0482 17.5155 15.9033 17.5155 15.855 17.5629V19.2112C15.9999 19.0217 16.2897 19.2112 16.4346 19.3059Z" fill="white"/>
<path fill-rule="evenodd" clip-rule="evenodd" d="M17.5455 19.827L17.4489 18.2735C17.4489 18.1787 17.4006 18.1314 17.4006 18.1314C17.4006 18.1314 17.3523 18.0366 17.304 17.9893H17.2557V19.4481C17.2557 19.4481 17.304 19.5902 17.2074 19.5902C17.2074 19.5902 16.9176 19.6849 16.4829 19.5428L16.1931 19.4007C16.0965 19.3534 15.855 19.2586 15.7584 19.5902C15.6618 19.2586 15.4202 19.3534 15.3236 19.4007L15.0338 19.5428C14.6474 19.6849 14.3093 19.5902 14.3093 19.5902C14.261 19.5902 14.261 19.4481 14.261 19.4481V17.9893H14.2127L14.1161 18.1314C14.1161 18.1314 14.0678 18.1787 14.0678 18.2735L13.9712 19.827C13.9712 19.827 13.9712 19.9691 14.1161 19.9691L15.3719 19.7797C15.3719 19.7797 15.5169 19.7323 15.5169 19.827C15.5169 19.827 15.5652 19.9691 15.7584 19.9691C15.9516 19.9691 15.9999 19.827 15.9999 19.827C15.9999 19.7323 16.1931 19.7797 16.1931 19.7797L17.4489 19.9691C17.5455 19.9691 17.5455 19.827 17.5455 19.827Z" fill="white"/>
<path fill-rule="evenodd" clip-rule="evenodd" d="M24.6168 23.9289C21.4869 23.9289 18.9365 21.428 18.9365 18.3587C18.9365 15.2895 21.4869 12.7412 24.6168 12.7412C27.7468 12.7412 30.3454 15.2421 30.3454 18.3587C30.3454 21.4754 27.7468 23.9289 24.6168 23.9289ZM24.6168 15.4789C22.9842 15.4789 21.6801 16.7483 21.6801 18.3587C21.6801 19.9692 22.9842 21.1912 24.6168 21.1912C26.2494 21.1912 27.5536 19.9218 27.5536 18.3587C27.5536 16.7957 26.2011 15.4789 24.6168 15.4789Z" fill="white"/>
<path fill-rule="evenodd" clip-rule="evenodd" d="M22.115 34.927C22.0184 35.0218 21.5354 35.306 21.5354 35.306C21.5354 35.306 21.5193 35.3375 21.4871 35.4007C21.4871 35.4007 21.4871 35.4481 21.5354 35.4481H21.5837L21.6803 35.4007C21.6803 35.4007 21.8252 35.306 21.8735 35.306V36.6322C21.8735 36.7269 21.8252 36.7269 21.7769 36.7743H21.5837C21.5837 36.7743 21.5354 36.7743 21.5354 36.8217C21.5354 36.869 21.5354 36.869 21.632 36.869H22.4531C22.5175 36.869 22.5497 36.8532 22.5497 36.8217C22.5497 36.7743 22.5014 36.7743 22.5014 36.7743H22.3082C22.3082 36.7743 22.2599 36.7269 22.2599 36.6322V34.9839L22.2116 34.8892L22.115 34.9365V34.927Z" fill="white"/>
<path fill-rule="evenodd" clip-rule="evenodd" d="M23.2258 36.3861C23.2258 36.1493 23.3707 36.0072 23.4673 35.9124C23.7088 36.0545 23.902 36.1493 23.902 36.3861C23.902 36.5756 23.7571 36.7177 23.5639 36.7177C23.3707 36.7177 23.2258 36.5756 23.2258 36.3861ZM22.9843 35.4009C22.9843 35.6377 23.1292 35.7325 23.2741 35.8272C23.0326 35.9693 22.8394 36.1587 22.8394 36.3956C22.8394 36.7271 23.1292 36.9166 23.5156 36.9166C23.9986 36.9166 24.2401 36.6324 24.2401 36.3482C24.2401 36.0166 23.9986 35.8746 23.8054 35.7798C23.9503 35.7325 24.1435 35.5904 24.1435 35.3062C24.1435 35.0693 23.9503 34.8799 23.6122 34.8799C23.1292 34.8799 22.9843 35.2114 22.9843 35.4009ZM23.2741 35.3535C23.2741 35.2114 23.3707 35.0693 23.5639 35.0693C23.7088 35.0693 23.8054 35.1641 23.8054 35.3535C23.8054 35.543 23.7088 35.6377 23.6122 35.6851C23.3707 35.543 23.2741 35.4483 23.2741 35.3535Z" fill="white"/>
<path fill-rule="evenodd" clip-rule="evenodd" d="M24.9551 36.3861C24.9551 36.1493 25.1483 36.0072 25.2449 35.9124C25.4381 36.0545 25.6313 36.1493 25.6313 36.3861C25.6313 36.5756 25.4864 36.7177 25.2932 36.7177C25.1 36.7177 24.9551 36.5756 24.9551 36.3861ZM24.7135 35.4009C24.7135 35.6377 24.9068 35.7325 25.0517 35.8272C24.7618 35.9693 24.6169 36.1587 24.6169 36.3956C24.6169 36.7271 24.8585 36.9166 25.2932 36.9166C25.7279 36.9166 26.0177 36.6324 26.0177 36.3482C26.0177 36.0166 25.7279 35.8746 25.583 35.7798C25.6796 35.7325 25.9211 35.5904 25.9211 35.3062C25.9211 35.0693 25.6796 34.8799 25.3415 34.8799C24.8585 34.8799 24.7135 35.2114 24.7135 35.4009ZM25.0517 35.3535C25.0517 35.2114 25.1 35.0693 25.3415 35.0693C25.4381 35.0693 25.583 35.1641 25.583 35.3535C25.583 35.543 25.4381 35.6377 25.3415 35.6851C25.1483 35.543 25.0517 35.4483 25.0517 35.3535Z" fill="white"/>
<path fill-rule="evenodd" clip-rule="evenodd" d="M27.4088 34.9272H26.636C26.5394 34.9272 26.5394 34.9746 26.5394 35.022L26.4911 35.6851C26.4911 35.6851 26.4911 35.7325 26.5394 35.7325C26.7326 35.7798 27.1673 35.9219 27.1673 36.3008C27.1673 36.6324 26.9741 36.7271 26.7809 36.7271C26.5877 36.7271 26.4911 36.6324 26.4911 36.4429C26.4911 36.3482 26.4428 36.3482 26.3945 36.3482C26.3462 36.3482 26.3462 36.3956 26.3462 36.4429V36.7271C26.3462 36.7271 26.3462 36.8219 26.3945 36.8692C26.4911 36.9166 26.5877 36.9166 26.6843 36.9166C27.2639 36.9166 27.5537 36.5377 27.5537 36.2061C27.5537 35.7798 27.119 35.543 26.6843 35.4483C26.6843 35.4009 26.7326 35.2588 26.7326 35.2114H27.1673C27.3605 35.2114 27.3605 35.2588 27.3605 35.3062C27.3605 35.4009 27.4088 35.4009 27.4088 35.4009C27.4088 35.4009 27.4571 35.3535 27.4571 35.3062L27.5054 35.022C27.5054 35.022 27.5054 34.9272 27.4571 34.9272H27.4088Z" fill="white"/>
<path fill-rule="evenodd" clip-rule="evenodd" d="M4.06934 29.6411C4.06934 30.0201 4.40745 30.3516 4.79386 30.3516C5.18028 30.3516 5.51839 30.0201 5.51839 29.6411C5.51839 29.2149 5.18028 28.9307 4.79386 28.9307C4.40745 28.9307 4.06934 29.2149 4.06934 29.6411Z" fill="white"/>
<path fill-rule="evenodd" clip-rule="evenodd" d="M45.1261 29.6411C45.1261 30.0201 44.7879 30.3516 44.4015 30.3516C44.0151 30.3516 43.677 30.0201 43.677 29.6411C43.677 29.2149 44.0151 28.9307 44.4015 28.9307C44.7879 28.9307 45.1261 29.2149 45.1261 29.6411Z" fill="white"/>
<path fill-rule="evenodd" clip-rule="evenodd" d="M34.2 18.9746H32.4708C32.4708 18.9746 32.3742 18.9746 32.4225 19.0693L32.5191 19.3062C32.5191 19.3062 32.5674 19.3535 32.6157 19.3535H34.0551C34.1034 19.3535 34.1517 19.3062 34.1517 19.3062L34.2483 19.0693C34.2966 18.9746 34.2 18.9746 34.2 18.9746Z" fill="white"/>
<path fill-rule="evenodd" clip-rule="evenodd" d="M33.862 19.5905H32.7993C32.7993 19.5905 32.6544 19.5431 32.7027 19.6378L32.7993 19.8273C32.7993 19.8273 32.7993 19.8746 32.8959 19.8746H33.7654C33.862 19.8746 33.862 19.8273 33.862 19.8273L33.9586 19.6378C34.0069 19.5431 33.862 19.5905 33.862 19.5905Z" fill="white"/>
<path fill-rule="evenodd" clip-rule="evenodd" d="M33.717 20.1587C33.7653 20.064 33.6687 20.064 33.6687 20.064H32.9925C32.9925 20.064 32.8959 20.064 32.9442 20.1587L33.1374 20.6323V21.2007C33.1374 21.2007 33.1857 21.3428 33.234 21.3428H33.3789C33.4755 21.3428 33.5238 21.2481 33.5238 21.2007V20.6323L33.717 20.1587Z" fill="white"/>
<path fill-rule="evenodd" clip-rule="evenodd" d="M33.2339 18.7379C33.2339 18.7379 33.8618 18.7853 34.1517 18.5011C34.2966 18.4063 34.3449 18.2169 34.3449 18.0274C34.2966 17.8379 34.1033 17.6011 33.9101 17.4117C33.9101 17.4117 33.6203 17.0801 33.6686 16.7012C33.6686 16.6538 33.6203 16.6064 33.5237 16.7012C33.5237 16.7012 32.5094 17.3643 32.7026 18.1221C32.7026 18.1221 32.4128 17.7906 32.7026 17.3643C32.7026 17.3643 32.7026 17.3169 32.606 17.3643C32.5094 17.4117 32.0747 17.8379 32.4611 18.4063C32.4611 18.4063 32.7026 18.6905 33.2339 18.7379Z" fill="white"/>
<path fill-rule="evenodd" clip-rule="evenodd" d="M25.7763 42.4771V43.5665H25.4865V42.4771H24.7619V42.5718C24.7619 42.5718 24.9068 42.7139 24.9068 42.856V45.12H23.3708V43.0928H24.3852V42.6191H22.6077V42.6665C22.6077 42.6665 22.7526 42.8086 22.7526 42.9507V45.6411H24.9165V46.3989H25.4961V44.0401H25.7859V46.3989H26.4139V42.4771H25.7859H25.7763Z" fill="white"/>
<path fill-rule="evenodd" clip-rule="evenodd" d="M42.6142 36.6703C42.1311 36.244 40.2087 34.7378 40.2087 34.6904C40.2087 34.6904 38.238 37.0019 38.1897 37.0492C38.238 37.0492 38.5761 37.3334 38.5761 37.3808C38.6244 37.3334 40.1604 35.4956 40.1604 35.4956C40.1604 35.4956 41.7447 36.765 42.2277 37.144C42.0345 37.3808 41.9379 37.5229 41.9379 37.5229C41.9379 37.5229 40.8753 36.6703 40.827 36.6703C40.827 36.6703 40.4889 37.0966 40.4406 37.0966C40.4889 37.144 41.5032 37.9965 41.5032 37.9965L41.31 38.2334C41.31 38.2334 40.2957 37.3808 40.2474 37.3808C40.1991 37.3808 39.8126 37.8544 39.7643 37.9018C39.8126 37.9018 39.8126 37.9492 39.8609 37.9492C39.8609 37.9492 40.0542 37.9018 40.1508 37.9965L40.9719 38.6596C40.9719 38.6596 40.5372 39.1807 40.4889 39.1807C40.5372 39.228 40.8753 39.4649 40.8753 39.5122C40.9236 39.4649 43.2324 36.7271 43.2324 36.7271C43.2324 36.6798 42.8943 36.3956 42.8943 36.3956C42.846 36.3956 42.7494 36.5377 42.6045 36.6798L42.6142 36.6703Z" fill="white"/>
<path fill-rule="evenodd" clip-rule="evenodd" d="M17.304 41.1133C17.304 41.1606 15.6714 44.6088 15.6714 44.6562C15.7197 44.6562 16.2027 44.893 16.251 44.9404C16.251 44.893 17.8836 41.4448 17.8836 41.3975C17.8836 41.3975 17.3523 41.1606 17.304 41.1133Z" fill="white"/>
<path fill-rule="evenodd" clip-rule="evenodd" d="M16.4346 40.7344L16.3863 40.7817C16.4829 40.8291 16.4829 40.9712 16.4346 41.1133L16.0965 41.7764C16.0965 41.7764 15.5651 41.4922 15.5168 41.4922C15.4685 41.4922 15.3236 41.8711 15.2753 41.9185C15.3236 41.9185 15.9033 42.2027 15.9033 42.2027C15.9033 42.2027 14.9372 44.2773 14.8889 44.3247C14.9372 44.3247 15.3719 44.5141 15.4202 44.5615C15.4202 44.5141 17.0528 41.0659 17.0528 41.0186C17.0528 41.0186 16.4732 40.7344 16.4249 40.7344H16.4346Z" fill="white"/>
<path fill-rule="evenodd" clip-rule="evenodd" d="M14.802 41.814L14.7537 41.7667C15.2367 41.4351 15.5265 41.0088 15.768 40.5352C15.768 40.5352 14.9952 40.1562 14.9469 40.1562L14.8986 40.2036C14.8986 40.2036 15.0918 40.3457 14.9469 40.6299C14.9469 40.6299 14.4639 41.6246 13.1211 42.0509C13.1694 42.0982 13.266 42.3824 13.266 42.4298H13.3143C13.3143 42.4298 13.749 42.3824 14.3286 42.0509L14.3769 42.0035V42.0509C14.4735 42.2403 14.6185 42.4771 14.7634 43.235C14.8117 43.1876 15.2464 42.9508 15.2464 42.9034C15.1981 42.6192 15.0049 42.2403 14.8117 41.814H14.802Z" fill="white"/>
<path fill-rule="evenodd" clip-rule="evenodd" d="M32.7027 44.1348C32.751 44.1348 35.1082 42.9981 35.1082 42.9981C35.1082 42.9981 35.4463 43.7086 35.4463 43.7559C35.4946 43.7559 36.0259 43.5191 36.0259 43.4717C36.0259 43.4717 35.4946 42.335 35.4463 42.2876C35.398 42.2876 32.5095 43.6517 32.5095 43.6991C32.5095 43.6991 32.7027 44.078 32.7027 44.1254V44.1348Z" fill="white"/>
<path fill-rule="evenodd" clip-rule="evenodd" d="M34.3449 39.9763C34.2966 39.9763 33.6687 40.3078 33.6204 40.3078C33.6204 40.3552 33.6687 40.3552 33.6687 40.4026C33.6687 40.4026 33.8619 40.4499 33.9102 40.5447L34.7313 42.2403C34.7313 42.2403 35.2626 42.0035 35.3109 42.0035C35.3109 41.9561 35.0211 41.3404 35.0211 41.3404L35.5524 41.1036C35.5524 41.1036 35.4075 40.7246 35.3592 40.6773C35.3592 40.7246 34.8279 40.9615 34.8279 40.9615C34.8279 40.9615 34.3449 40.0142 34.3449 39.9668V39.9763Z" fill="white"/>
<path fill-rule="evenodd" clip-rule="evenodd" d="M31.7367 42.6669C31.9782 43.1405 32.6061 43.33 33.1761 43.0458C33.7074 42.809 33.9972 42.1932 33.7557 41.7291C33.6108 41.4449 33.4176 41.3028 33.1278 41.208C33.3693 41.1133 33.5625 41.0186 33.5625 41.0186C33.5625 40.9712 33.3693 40.6397 33.3693 40.5923C33.321 40.5923 32.5482 40.9712 32.5482 40.9712L32.4033 40.687C32.4033 40.687 31.727 40.9712 31.6787 41.0186L31.727 41.0659C31.727 41.0659 31.8719 41.1133 31.9686 41.208V41.2554C31.9686 41.2554 31.1474 41.6343 31.0991 41.6343C31.0991 41.6817 31.2923 42.0606 31.3406 42.0606C31.3406 42.0606 31.4855 42.0132 31.727 41.9185C31.5821 42.1553 31.5821 42.4395 31.727 42.6764L31.7367 42.6669ZM32.9926 42.7143C32.7027 42.809 32.3646 42.7143 32.2197 42.4301C32.0748 42.1459 32.2197 41.8143 32.5095 41.6722C32.751 41.5301 33.0892 41.6722 33.2341 41.9564C33.379 42.2406 33.2824 42.5722 32.9926 42.7143Z" fill="white"/>
<path fill-rule="evenodd" clip-rule="evenodd" d="M7.8175 37.0493C7.8175 37.0493 7.33448 36.481 7.28618 36.481L7.23788 36.5283C7.23788 36.5283 7.23788 36.7178 7.14128 36.8125C7.14128 36.8125 6.46505 37.3809 6.41675 37.4283C6.46505 37.4283 8.38747 39.5976 8.38747 39.645C8.43577 39.645 8.77388 39.3608 8.77388 39.3134L7.18958 37.5704C7.18958 37.5704 7.7692 37.0967 7.8175 37.0493Z" fill="white"/>
<path fill-rule="evenodd" clip-rule="evenodd" d="M9.02501 37.1912C9.21822 37.3807 9.55633 37.807 9.55633 37.807C9.55633 37.807 8.8318 38.4227 8.7835 38.4701C8.7835 38.4701 9.16991 38.8964 9.21822 38.9437C9.21822 38.8964 11.3338 37.106 11.3338 37.106C11.3338 37.0586 10.8508 36.5376 10.8508 36.4902C10.8186 36.5218 10.7864 36.5534 10.7542 36.5849C10.8025 36.6323 10.7542 36.7744 10.6576 36.8218L10.561 36.9165C10.561 36.9165 10.078 36.3955 9.98139 36.2534C9.98139 35.9692 9.88478 35.6376 9.64327 35.3534C9.20856 34.8798 8.48403 34.7851 8.05897 35.164C7.57595 35.5903 7.57595 36.3008 8.01067 36.7649C8.30048 37.0491 8.63859 37.1912 9.02501 37.1912ZM10.1746 37.2386L9.93309 37.4754C9.93309 37.4754 9.69158 37.2386 9.49837 37.0018C9.54667 37.0018 9.59497 36.9544 9.59497 36.9544C9.69158 36.907 9.73988 36.8597 9.78818 36.7649C9.93309 37.0018 10.1746 37.2386 10.1746 37.2386ZM8.44539 35.6376C8.7352 35.4008 9.12161 35.4008 9.31482 35.6376C9.55633 35.8745 9.50803 36.2534 9.21822 36.4902C8.97671 36.727 8.59029 36.727 8.34878 36.4902C8.15557 36.2534 8.20388 35.8745 8.44539 35.6376Z" fill="white"/>
<path fill-rule="evenodd" clip-rule="evenodd" d="M71.0157 10.4771L69.7212 10.5244L67.6055 10.4771C67.4606 10.4771 67.0742 10.4771 67.0742 10.856C67.0742 11.0928 67.364 11.1875 67.6055 11.2349C67.8471 11.2823 67.9437 11.4244 67.9437 11.6138C67.9437 11.898 67.8471 12.2769 67.6538 12.7032C67.4606 13.0348 66.6878 14.3989 65.9246 15.7251C65.2967 16.8619 64.7171 17.8945 64.4369 18.4628C64.292 18.226 64.1471 17.9418 64.1471 17.9418C63.1811 16.3882 61.0172 12.7032 60.7757 12.1348C60.7274 12.0401 60.5341 11.6612 60.5341 11.4717C60.5341 11.377 60.5824 11.2823 60.679 11.2823C60.7274 11.2349 60.824 11.2349 60.824 11.2349C61.1138 11.1402 61.3553 11.0928 61.3553 10.856C61.3553 10.7139 61.307 10.4771 60.824 10.4771H59.1913L58.4185 10.5244L56.641 10.4771H55.5784C54.9987 10.4771 54.9504 10.7139 54.9504 10.856C54.9504 10.9507 54.9987 11.2349 55.4818 11.2349C55.7233 11.2349 56.0614 11.3296 56.3512 11.4717C56.7859 11.7085 57.3172 12.2769 57.8389 13.0253C58.6117 14.2094 61.6451 19.0218 61.79 19.3533C62.0798 20.0164 62.273 20.4427 62.273 21.6174V23.4078L62.2247 25.5771C62.1764 26.0508 62.0798 26.5718 61.6451 26.6665L60.9206 26.7139C60.3892 26.7139 60.3409 26.9981 60.3409 27.0928C60.3409 27.4717 60.8723 27.4717 61.0172 27.4717H62.6981L63.8573 27.4244L64.92 27.4717H67.2771C67.8567 27.4717 67.9533 27.2349 67.9533 27.0928C67.9533 26.9981 67.905 26.7139 67.422 26.7139L66.3111 26.6191C65.828 26.5718 65.5865 26.2876 65.5382 25.5771L65.4899 23.4078V21.6174C65.4899 20.9069 65.4899 20.2059 65.7797 19.448C66.1661 18.5481 69.2961 13.4042 70.0593 12.5138C70.5423 11.898 70.7838 11.6612 71.2185 11.4717C71.5566 11.2823 71.9431 11.2349 72.1363 11.2349C72.7159 11.2349 72.7642 10.9033 72.7642 10.8086C72.7642 10.5718 72.5227 10.4771 72.1363 10.4771H71.0253H71.0157Z" fill="#656668"/>
<path fill-rule="evenodd" clip-rule="evenodd" d="M83.6225 10.1455C77.121 10.1455 74.136 14.721 74.136 18.9744C74.136 23.2278 77.0244 27.8033 83.381 27.8033C89.013 27.8033 92.9158 24.0235 92.9158 18.5955C92.9158 13.1674 89.3511 10.1455 83.6225 10.1455ZM84.347 26.335C80.4056 26.335 77.6137 23.0289 77.6137 18.3113C77.6137 12.4569 80.9852 11.5665 83.0042 11.5665C86.7621 11.5665 89.4091 14.7778 89.4091 19.4007C89.4091 25.6813 85.8444 26.335 84.3567 26.335H84.347Z" fill="#656668"/>
<path fill-rule="evenodd" clip-rule="evenodd" d="M99.224 10.9983L99.0308 24.0711C99.0308 26.0036 98.8859 26.4773 98.4512 26.6194L97.4852 26.7141C97.0505 26.7141 96.9539 26.9036 96.9539 27.093C96.9539 27.4719 97.4369 27.4719 97.6301 27.4719L99.6974 27.4246H100.712L102.876 27.4719C103.069 27.4719 103.552 27.4719 103.552 27.093C103.552 26.8562 103.359 26.7141 102.972 26.7141C102.682 26.7141 102.248 26.7141 101.861 26.572C101.572 26.4773 101.282 26.1457 101.233 24.3079C101.233 24.3079 100.992 16.1895 100.992 15.4317C101.089 15.5738 101.185 15.7159 101.185 15.7159C102.151 16.7105 104.122 18.8325 106.044 20.7176L109.029 23.6448L112.691 27.2351C112.98 27.4719 113.27 27.7561 113.608 27.7561C114.091 27.7561 114.091 27.1404 114.091 26.9036L114.333 12.9782C114.333 11.6993 114.574 11.4246 115.009 11.2825L115.637 11.2351C116.168 11.2351 116.265 10.9983 116.265 10.8562C116.265 10.4773 115.782 10.4773 115.54 10.4773L113.763 10.5246H113.328L112.555 10.4773H110.633C110.343 10.4773 109.86 10.4773 109.86 10.8562C109.86 11.093 110.053 11.2351 110.391 11.2351C110.681 11.2351 111.213 11.2351 111.502 11.3298C111.937 11.5193 112.13 11.8509 112.179 13.1676C112.179 13.1676 112.372 21.0018 112.372 22.6975C112.082 22.366 110.971 21.2766 110.971 21.2766L107.648 17.8757C104.566 14.8538 101.195 11.3583 100.673 10.7993L100.48 10.6099C100.19 10.2783 99.9969 10.0889 99.7071 10.0889C99.224 10.0889 99.224 10.752 99.224 10.9888V10.9983Z" fill="#656668"/>
<path fill-rule="evenodd" clip-rule="evenodd" d="M121.936 14.4939C121.936 16.4264 122.95 18.0369 125.355 19.8746L126.37 20.6798C128.147 21.9966 128.534 22.9913 128.534 24.0333C128.534 25.1701 127.519 26.3921 125.694 26.3921C124.776 26.3921 123.192 26.1079 122.66 24.2701C122.515 23.8912 122.467 23.4649 122.467 23.2281C122.467 22.7544 122.225 22.6597 122.032 22.6597C121.646 22.6597 121.598 23.1807 121.598 23.4176C121.598 23.4649 121.453 26.2974 121.453 26.2974C121.453 26.8184 121.549 27.0078 121.984 27.2447C122.95 27.6236 123.955 27.8131 125.355 27.8131C126.843 27.8131 128.051 27.4815 129.065 26.8658C130.939 25.6437 131.229 23.8438 131.229 22.906C131.229 20.7367 130.263 19.221 127.471 17.1464C127.471 17.099 126.843 16.6727 126.843 16.6727C124.872 15.2139 124.534 14.5034 124.534 13.6035C124.534 12.3814 125.5 11.5289 127.036 11.5289C128.389 11.5289 128.959 12.0973 129.345 12.5709C129.78 13.0919 129.876 13.755 129.876 13.8877C129.876 14.4087 130.118 14.456 130.311 14.456C130.746 14.456 130.746 13.935 130.746 13.6035L130.794 11.3394V10.9605C130.794 10.6289 130.456 10.5816 130.36 10.5342C129.683 10.3447 128.727 10.1553 127.326 10.1553C124.148 10.1553 121.936 11.9457 121.936 14.4939Z" fill="#656668"/>
<path fill-rule="evenodd" clip-rule="evenodd" d="M146.772 10.3354L146.676 10.3827L145.71 10.4774C145.323 10.5248 141.672 10.5248 140.126 10.5248L138.967 10.4774H136.851C136.658 10.4774 136.175 10.4774 136.175 10.8564C136.175 11.0932 136.368 11.2353 136.755 11.2353L137.576 11.2827C138.204 11.4248 138.397 11.6142 138.445 12.3721V20.9168C138.445 22.944 138.445 24.6965 138.349 25.587C138.252 26.2501 138.155 26.5817 137.866 26.6764L137.093 26.7237C136.61 26.7237 136.513 26.9132 136.513 27.1027C136.513 27.2921 136.658 27.4816 137.141 27.4816H138.967L139.981 27.4342L141.71 27.4816L146.232 27.5763C147.053 27.5763 147.439 27.5763 147.623 26.8658C147.719 26.3922 147.912 24.886 147.912 24.365C147.912 24.1281 147.912 23.7966 147.526 23.7966C147.188 23.7966 147.14 24.0808 147.091 24.2702C146.946 25.1228 146.705 25.5491 146.222 25.7764C145.642 26.0133 144.734 26.0133 144.155 26.0133C141.894 26.0133 141.701 25.7291 141.653 24.3176V19.1264C142.329 19.1264 144.396 19.1737 144.782 19.2211C145.604 19.3158 145.797 19.6474 145.893 19.9316L145.942 20.4999V20.6894C145.942 20.9262 146.135 21.0683 146.376 21.0683C146.763 21.0683 146.763 20.642 146.763 20.4526L146.811 18.9937L147.004 17.6296V17.3928C147.004 17.156 146.859 17.0139 146.666 17.0139C146.473 17.0139 146.376 17.156 146.183 17.3454C145.99 17.5349 145.7 17.6296 145.217 17.6296C144.879 17.677 143.585 17.677 141.653 17.677V12.0121C142.232 12.0121 144.444 12.0594 144.782 12.1068C145.845 12.2015 146.038 12.4384 146.135 12.7699C146.232 13.0068 146.28 13.3383 146.28 13.5278C146.28 13.9067 146.473 14.0014 146.666 14.0014C146.811 14.0014 147.004 13.9541 147.101 13.6225L147.149 12.5805L147.198 12.1542L147.342 10.9322L147.391 10.6953C147.391 10.3164 147.149 10.3164 147.053 10.3164L146.763 10.3638L146.772 10.3354Z" fill="#656668"/>
<path fill-rule="evenodd" clip-rule="evenodd" d="M157.699 10.4771L156.588 10.5244L153.651 10.4771C153.409 10.4771 152.926 10.4771 152.926 10.8086C152.926 11.0928 153.119 11.2349 153.506 11.2349L154.23 11.2823C154.569 11.377 154.81 11.5665 154.858 12.3717C154.907 13.0821 154.907 13.6884 154.907 17.0419V20.9164C154.907 23.0857 154.907 24.7908 154.81 25.6813C154.762 26.3444 154.617 26.5813 154.327 26.676L153.554 26.7233C153.071 26.7233 152.975 26.9128 152.975 27.1023C152.975 27.2917 153.119 27.4812 153.602 27.4812H155.38L156.443 27.4338H157.505L159.959 27.4812C160.539 27.4812 160.587 27.197 160.587 27.1023C160.587 27.0075 160.539 26.7233 160.056 26.7233L158.896 26.6286C158.365 26.5813 158.22 26.2971 158.172 25.7287C158.075 24.7814 158.075 23.0857 158.075 20.9164V17.0419C158.075 13.6884 158.075 13.0821 158.124 12.3717C158.172 11.6138 158.317 11.377 158.8 11.2823L159.428 11.2349C159.814 11.2349 160.007 11.0928 160.007 10.8086C160.007 10.4771 159.476 10.4771 159.331 10.4771H157.699Z" fill="#656668"/>
<path fill-rule="evenodd" clip-rule="evenodd" d="M67.2095 32.1421H65.5769C65.4803 32.1421 65.2388 32.1421 65.2388 32.3316C65.2388 32.4263 65.3354 32.521 65.5286 32.521H65.915C66.2048 32.6157 66.3014 32.7105 66.3497 33.0894V36.8218C66.3497 38.0059 66.3014 38.9437 65.7218 39.5121C65.1905 40.0331 64.5143 40.0805 64.2341 40.0805C63.8477 40.0805 63.3647 40.0331 62.8913 39.6542C62.4566 39.2753 62.0219 38.7069 62.0219 37.0112V35.4577L62.0702 33.0989C62.0702 32.7199 62.1668 32.5779 62.4083 32.5305H62.6981C62.9396 32.5305 62.9879 32.4358 62.9879 32.341C62.9879 32.1516 62.7464 32.1516 62.6498 32.1516H59.6164C59.4715 32.1516 59.2783 32.1516 59.2783 32.341C59.2783 32.4358 59.3749 32.5305 59.5681 32.5305H59.9545C60.2927 32.6252 60.341 32.7199 60.3893 33.0989V37.0681C60.3893 38.4796 60.7274 39.4269 61.4519 40.09C62.3213 40.8478 63.5192 40.8478 64.0023 40.8478C64.6785 40.8478 65.5383 40.7531 66.4077 40.0426C67.3737 39.2374 67.5186 37.9207 67.5186 36.6418V35.4577L67.5669 33.0989C67.5669 32.7199 67.6635 32.5779 67.905 32.5305H68.1949C68.2915 32.5305 68.4847 32.5305 68.4847 32.341C68.4847 32.1516 68.2915 32.1516 68.1949 32.1516H67.2288L67.2095 32.1421Z" fill="#656668"/>
<path fill-rule="evenodd" clip-rule="evenodd" d="M73.0831 32.4263L72.9865 38.9817C72.9865 39.929 72.9382 40.1658 72.6967 40.2605L72.2136 40.3079C71.9721 40.3079 71.9238 40.4026 71.9238 40.4973C71.9238 40.6868 72.1653 40.6868 72.3102 40.6868L73.3246 40.6394H73.5178L73.8076 40.6868H74.9185C75.0152 40.6868 75.2567 40.6868 75.2567 40.4973C75.2567 40.3552 75.1601 40.3079 74.9669 40.3079L74.4355 40.2131C74.2906 40.1658 74.0974 40.0237 74.0974 39.0764C74.0974 39.0764 74.0008 35.0219 73.9525 34.643C74.0491 34.6904 74.0974 34.7377 74.0974 34.7377L76.5512 37.286L78.0389 38.7543L79.8647 40.5447C80.0096 40.6868 80.1545 40.8289 80.2994 40.8289C80.5409 40.8289 80.5409 40.4973 80.5409 40.4026L80.6858 33.421C80.6858 32.7578 80.7824 32.6158 81.0239 32.521H81.362C81.6035 32.521 81.6518 32.3789 81.6518 32.3316C81.6518 32.1421 81.4103 32.1421 81.2654 32.1421H78.8117C78.6668 32.1421 78.4253 32.1421 78.4253 32.3316C78.4253 32.4263 78.5219 32.521 78.7151 32.521L79.2464 32.5684C79.4879 32.6631 79.5845 32.8052 79.5845 33.4683C79.5845 33.4683 79.6811 37.4849 79.6811 38.2806C79.5362 38.1385 73.8076 32.3316 73.8076 32.3316L73.711 32.1895L73.3246 31.9526C73.0831 31.9526 73.0831 32.2842 73.0831 32.4263Z" fill="#656668"/>
<path fill-rule="evenodd" clip-rule="evenodd" d="M88.1532 32.1421H86.1342C85.9893 32.1421 85.7478 32.1421 85.7478 32.3316C85.7478 32.4263 85.8444 32.521 86.0376 32.521L86.424 32.5684C86.5689 32.5684 86.7138 32.6631 86.7138 33.0894L86.7621 35.4482V37.3807C86.7621 38.4701 86.7621 39.3132 86.6655 39.7868C86.6655 40.1184 86.5689 40.2131 86.424 40.2605L86.0376 40.3079C85.7961 40.3079 85.7478 40.4026 85.7478 40.4973C85.7478 40.5921 85.8444 40.6868 86.0859 40.6868L87.535 40.6394L88.018 40.6868H89.2738C89.5637 40.6868 89.612 40.5447 89.612 40.4973C89.612 40.45 89.5637 40.3079 89.3222 40.3079L88.7425 40.2605C88.501 40.2131 88.4044 40.071 88.4044 39.7868L88.3561 37.3807V33.0894C88.4044 32.7105 88.4527 32.5684 88.6942 32.521H89.0323C89.2255 32.521 89.3222 32.4263 89.3222 32.3316C89.3222 32.1421 89.0323 32.1421 88.984 32.1421H88.1629H88.1532Z" fill="#656668"/>
<path fill-rule="evenodd" clip-rule="evenodd" d="M100.76 32.1421H99.1758C99.0309 32.1421 98.7894 32.1421 98.7894 32.3316C98.7894 32.521 98.9826 32.521 99.0792 32.521L99.5139 32.5684L99.5622 32.6631L99.4656 33.0894L98.1132 36.4429C98.1132 36.4429 97.437 38.1385 97.2921 38.4227C97.1954 38.0912 95.4179 33.563 95.4179 33.563C95.2247 33.042 95.1764 32.8052 95.1764 32.7105C95.1764 32.6631 95.2247 32.6157 95.273 32.5684L95.6594 32.521C95.8527 32.521 95.901 32.3789 95.901 32.3316C95.901 32.2368 95.8527 32.1421 95.5628 32.1421H92.5295C92.3846 32.1421 92.1431 32.1421 92.1431 32.3316C92.1431 32.3789 92.1431 32.521 92.3846 32.521L92.771 32.5684C93.1574 32.6631 93.3506 32.7578 93.5921 33.3262L96.4323 40.1184C96.6738 40.6394 96.7221 40.8289 96.9636 40.8289C97.1568 40.8289 97.2534 40.6868 97.4949 40.1184L97.5432 39.9763L99.0309 36.5755L99.7072 35.2114L100.432 33.6104C100.721 32.8999 100.866 32.7105 101.011 32.6157C101.205 32.521 101.398 32.521 101.494 32.521C101.736 32.521 101.784 32.4263 101.784 32.3316C101.784 32.1421 101.543 32.1421 101.446 32.1421H100.77H100.76Z" fill="#656668"/>
<path fill-rule="evenodd" clip-rule="evenodd" d="M109.715 32.0474C109.667 32.0947 109.184 32.1421 109.184 32.1421H104.759C104.663 32.1421 104.421 32.1421 104.421 32.3316C104.421 32.4263 104.518 32.521 104.711 32.521H105.146C105.436 32.6157 105.532 32.7105 105.532 33.0894L105.581 35.4482V37.3807L105.532 39.7395C105.484 40.071 105.436 40.2131 105.243 40.2605L104.856 40.3079C104.663 40.3079 104.615 40.4026 104.615 40.4973C104.615 40.5921 104.663 40.6868 104.904 40.6868L106.353 40.6394L107.175 40.6868L109.483 40.7342C109.918 40.7342 110.063 40.7342 110.16 40.3552C110.256 40.1184 110.305 39.3606 110.305 39.1332C110.305 38.9911 110.305 38.8017 110.16 38.8017C109.966 38.8017 109.918 38.9911 109.918 39.0858C109.87 39.5121 109.725 39.7016 109.483 39.8437C109.194 39.9384 108.711 39.9384 108.421 39.9384C107.31 39.9384 107.213 39.7963 107.165 39.0858V36.4902L108.749 36.5376C109.136 36.585 109.232 36.7271 109.281 36.8691C109.281 36.9165 109.329 37.1533 109.329 37.1533V37.2954C109.329 37.3902 109.425 37.4375 109.522 37.4375C109.715 37.4375 109.715 37.2481 109.715 37.1533L109.764 36.4429C109.764 36.3955 109.86 35.7324 109.86 35.7324V35.5903C109.86 35.4956 109.812 35.4008 109.667 35.4008L109.474 35.5903C109.377 35.685 109.184 35.7324 108.942 35.7324H107.165V32.8999L108.749 32.9473C109.281 32.9947 109.377 33.1368 109.425 33.2789L109.474 33.6578C109.474 33.8472 109.619 33.8946 109.667 33.8946C109.764 33.8946 109.86 33.8472 109.908 33.7051L109.957 33.1841V32.9473L110.005 32.3316L110.053 32.2368C110.053 32.0474 109.908 32.0474 109.86 32.0474H109.715Z" fill="#656668"/>
<path fill-rule="evenodd" clip-rule="evenodd" d="M123.191 40.3079L122.902 40.2605C122.708 40.2605 122.274 40.1658 121.694 39.55L119.627 37.1439C119.627 37.1439 119.385 36.8123 119.289 36.7176C120.303 35.865 120.728 35.1166 120.728 34.2167C120.728 33.3641 120.197 32.7957 119.907 32.6157C119.279 32.1895 118.506 32.1421 117.791 32.1421H114.661C114.565 32.1421 114.323 32.1421 114.323 32.3316C114.323 32.4263 114.42 32.521 114.613 32.521H114.999C115.338 32.6157 115.434 32.7105 115.434 33.0894L115.482 35.4482V37.3807L115.386 39.7395C115.338 40.071 115.289 40.2131 115.144 40.2605L114.758 40.3079C114.516 40.3079 114.468 40.4026 114.468 40.4973C114.468 40.5921 114.565 40.6868 114.806 40.6868L116.197 40.6394H116.535L117.83 40.6868C118.12 40.6868 118.168 40.5921 118.168 40.4973C118.168 40.4026 118.12 40.3079 117.927 40.3079L117.395 40.2605C117.105 40.2131 117.057 40.071 117.009 39.7395L116.961 37.3807V37.2386H117.927C118.023 37.2386 118.071 37.2386 118.071 37.286L118.603 37.9964L119.182 38.8017C119.859 39.7016 120.293 40.2226 120.767 40.45C121.105 40.6394 121.395 40.6868 122.023 40.6868H123.134C123.134 40.6868 123.423 40.6868 123.423 40.4973C123.423 40.4026 123.375 40.3079 123.182 40.3079H123.191ZM118.622 36.3387C118.429 36.4808 118.284 36.5281 117.849 36.5281L117.028 36.4334C116.996 36.4018 116.98 36.3544 116.98 36.2913V32.9378C116.98 32.9378 116.98 32.8905 117.028 32.8431H117.608C118.187 32.8431 119.24 33.222 119.24 34.7756C119.24 35.7703 118.854 36.1871 118.612 36.3292L118.622 36.3387Z" fill="#656668"/>
<path fill-rule="evenodd" clip-rule="evenodd" d="M125.983 34.1695C125.983 35.1168 126.515 35.9126 127.713 36.8599L128.244 37.2388C129.113 37.9493 129.307 38.4229 129.307 38.9345C129.307 39.5029 128.824 40.1186 127.858 40.1186C127.423 40.1186 126.611 39.9765 126.37 39.0766L126.273 38.5082C126.273 38.3187 126.128 38.2714 126.032 38.2714C125.839 38.2714 125.839 38.5082 125.839 38.6029C125.839 38.6503 125.742 40.0618 125.742 40.0618C125.742 40.346 125.79 40.4407 126.032 40.5354C126.515 40.7249 126.998 40.8196 127.713 40.8196C128.428 40.8196 129.065 40.6775 129.538 40.346C130.505 39.7302 130.649 38.8397 130.649 38.3661C130.649 37.2767 130.166 36.5283 128.775 35.4863C128.775 35.4389 128.485 35.2495 128.485 35.2495C127.471 34.4916 127.278 34.1601 127.278 33.6959C127.278 33.0801 127.809 32.6538 128.534 32.6538C129.21 32.6538 129.548 32.938 129.693 33.1749C129.935 33.459 129.983 33.7906 129.983 33.838C129.983 34.0748 130.128 34.1222 130.176 34.1222C130.418 34.1222 130.418 33.838 130.418 33.6959L130.466 32.5591V32.3696C130.466 32.2275 130.273 32.1802 130.224 32.1328C129.886 32.0855 129.403 31.9434 128.688 31.9434C127.104 31.9434 125.993 32.8433 125.993 34.1601L125.983 34.1695Z" fill="#656668"/>
<path fill-rule="evenodd" clip-rule="evenodd" d="M137.344 32.1421H135.325C135.18 32.1421 134.938 32.1421 134.938 32.3316C134.938 32.4263 135.035 32.521 135.228 32.521L135.615 32.5684C135.76 32.5684 135.905 32.6631 135.905 33.0894L135.953 35.4482V37.3807C135.953 38.4701 135.953 39.3132 135.905 39.7868C135.856 40.1184 135.808 40.2131 135.615 40.2605L135.228 40.3079C135.035 40.3079 134.987 40.4026 134.987 40.4973C134.987 40.5921 135.035 40.6868 135.277 40.6868L136.726 40.6394L137.257 40.6868H138.513C138.754 40.6868 138.803 40.5447 138.803 40.4973C138.803 40.45 138.754 40.3079 138.513 40.3079L137.982 40.2605C137.692 40.2131 137.595 40.071 137.595 39.7868L137.547 37.3807V33.0894C137.595 32.7105 137.643 32.5684 137.885 32.521H138.223C138.416 32.521 138.513 32.4263 138.513 32.3316C138.513 32.1421 138.271 32.1421 138.175 32.1421H137.354H137.344Z" fill="#656668"/>
<path fill-rule="evenodd" clip-rule="evenodd" d="M142.348 32.2368C142.348 32.3316 142.106 33.3736 142.106 33.5536C142.106 33.6009 142.106 33.8378 142.3 33.8378C142.493 33.8378 142.541 33.6483 142.541 33.601L142.734 33.2694C142.831 33.0326 143.072 32.9852 143.749 32.9852C143.749 32.9852 145.043 32.9378 145.333 32.9378V37.3712L145.285 39.73C145.236 40.0616 145.14 40.2037 144.995 40.251L144.608 40.2984C144.415 40.2984 144.367 40.3931 144.367 40.4879C144.367 40.5826 144.415 40.6773 144.657 40.6773L146.096 40.63L146.628 40.6773H147.874C148.164 40.6773 148.164 40.5352 148.164 40.4879C148.164 40.4405 148.115 40.2984 147.874 40.2984L147.342 40.251C147.053 40.2037 147.004 40.0616 146.956 39.73L146.908 37.3712V32.9378H148.25C148.975 32.9852 149.458 33.1747 149.458 33.5062L149.506 33.601C149.506 33.743 149.506 33.9325 149.7 33.9325C149.893 33.9325 149.893 33.743 149.893 33.6483L149.941 32.3789C149.941 32.2368 149.941 32.0474 149.748 32.0474L149.603 32.0947L148.637 32.1421H144.212L143.053 32.0947L142.715 32L142.57 31.9526C142.425 31.9526 142.377 32.1421 142.329 32.2368H142.348Z" fill="#656668"/>
<path fill-rule="evenodd" clip-rule="evenodd" d="M160.297 32.1421H158.616C158.52 32.1421 158.326 32.1421 158.326 32.3316C158.326 32.4736 158.471 32.4736 158.616 32.521C158.713 32.5684 158.761 32.6157 158.761 32.7105L158.616 33.2315C158.616 33.2315 157.119 35.9218 157.032 36.1587C156.935 36.0166 156.839 35.8745 156.839 35.8745C156.356 35.0219 155.303 33.2315 155.206 32.9947C155.158 32.9947 155.061 32.6631 155.061 32.6631C155.061 32.6157 155.061 32.521 155.158 32.521C155.351 32.4736 155.448 32.4263 155.448 32.3316C155.448 32.2842 155.448 32.1421 155.206 32.1421H152.559C152.269 32.1421 152.269 32.2842 152.269 32.3316C152.269 32.3789 152.269 32.521 152.511 32.521L152.946 32.6631C153.187 32.7578 153.429 33.042 153.718 33.421C154.105 34.0367 155.592 36.4429 155.689 36.585C155.834 36.9165 155.931 37.1533 155.931 37.7217V38.669L155.882 39.7584C155.882 39.9953 155.834 40.2321 155.641 40.2794L155.254 40.3268C155.013 40.3268 154.965 40.4689 154.965 40.5163C154.965 40.7057 155.206 40.7057 155.303 40.7057L156.752 40.6584L157.235 40.7057H158.442C158.732 40.7057 158.78 40.5636 158.78 40.5163C158.78 40.4689 158.78 40.3268 158.539 40.3268L157.959 40.2794C157.718 40.2321 157.621 40.09 157.573 39.7584V37.7312C157.573 37.3996 157.573 37.0681 157.718 36.6892C157.911 36.2155 159.495 33.6199 159.833 33.1462C160.123 32.862 160.22 32.7673 160.413 32.6252C160.461 32.6252 160.896 32.5305 160.896 32.5305C161.186 32.5305 161.186 32.3884 161.186 32.341C161.186 32.1989 161.089 32.1516 160.896 32.1516H160.316L160.297 32.1421Z" fill="#656668"/>
</g>
<defs>
<clipPath id="clip0_8025_5257">
<rect width="161" height="48" fill="white" transform="translate(0.166504)"/>
</clipPath>
</defs>
</svg>
