<svg width="155" height="56" viewBox="0 0 155 56" fill="none" xmlns="http://www.w3.org/2000/svg">
<g clip-path="url(#clip0_8025_5037)">
<path d="M13.9711 55.2995C13.856 55.2995 13.3122 55.2571 12.8415 55.0554C11.9526 54.6838 11.6597 54.3972 10.0596 52.8897C9.31706 52.1996 5.65662 48.3566 4.94545 47.571C5.55204 46.9022 8.63726 43.8978 9.07652 43.4626C9.93411 42.6345 10.3315 42.1674 11.0845 41.8383C11.4506 41.6684 11.8375 41.5835 12.0885 41.5835C12.2454 41.5835 12.3918 41.5304 12.3918 41.4349C12.3918 41.3287 12.235 41.2863 11.9944 41.2863C11.5133 41.2863 10.2688 41.3287 10.1851 41.3287C9.7354 41.3287 9.21248 41.2863 8.82552 41.2863C8.64772 41.2863 8.48039 41.3287 8.48039 41.4349C8.48039 41.5623 8.64772 41.5623 8.72093 41.5941C8.83598 41.6472 8.87781 41.6897 8.88827 41.8808C8.90918 42.1037 8.43855 42.6345 7.90518 43.1759C7.27767 43.866 4.33886 46.9128 3.61723 47.6772V46.7536C3.61723 43.7598 3.61723 43.229 3.64861 42.6133C3.7009 41.9444 3.80548 41.7321 4.25519 41.6366C4.48528 41.5941 4.58986 41.5835 4.7049 41.5835C4.80949 41.5835 4.96636 41.541 4.97682 41.4561C4.97682 41.2756 4.7572 41.2863 4.55849 41.2863C3.98327 41.2863 2.93743 41.3287 2.78056 41.3287C2.67597 41.3287 1.60922 41.2863 0.762086 41.2863C0.563377 41.2863 0.34375 41.2863 0.34375 41.4561C0.34375 41.541 0.511084 41.5835 0.615669 41.5835C0.772545 41.5835 1.09676 41.6047 1.23271 41.6366C1.81839 41.7852 1.90205 41.9763 1.95434 42.6239C1.99618 43.229 1.99618 43.7704 1.99618 46.7642V50.1401C1.99618 51.9767 1.99618 53.4948 1.90205 54.291C1.82884 54.8536 1.72426 55.1934 1.45234 55.2464C1.28501 55.2783 1.06538 55.3208 0.908504 55.3208C0.751628 55.3208 0.636585 55.3844 0.636585 55.4481C0.636585 55.6286 0.856212 55.618 1.05492 55.618C1.61968 55.618 2.66552 55.5755 2.81193 55.5755C2.95835 55.5755 4.00419 55.618 4.93499 55.618C5.14416 55.618 5.34287 55.6499 5.35333 55.4481C5.35333 55.3738 5.23828 55.3208 5.08141 55.3208C4.92453 55.3208 4.62124 55.2783 4.35978 55.2464C3.86823 55.1721 3.79502 54.8643 3.72181 54.3016C3.62769 53.5054 3.62769 51.9873 3.62769 50.1507V48.4946C4.72582 49.8216 8.44901 53.8982 9.28569 54.5989C10.091 55.2464 10.6034 55.4906 11.6388 55.5862C12.0676 55.6286 12.3186 55.6286 12.8415 55.6286H13.8037C14.1175 55.6286 14.3266 55.6817 14.3371 55.4588C14.3057 55.2358 14.1175 55.3314 13.9711 55.3314V55.2995Z" fill="#016F78"/>
<path d="M25.5796 55.3521C25.4227 55.3521 25.1822 55.3309 24.9521 55.2672C24.6384 55.1717 24.1887 54.9593 23.5925 53.5474C22.5885 51.1163 19.9844 44.5237 19.7334 43.908C19.5347 43.4196 19.4719 43.2816 19.2732 43.271C19.064 43.2922 19.0117 43.4515 18.813 43.961L15.0585 53.8871C14.7552 54.6833 14.4519 55.2354 13.7512 55.3203C13.6257 55.3309 13.3956 55.3521 13.2805 55.3521C13.176 55.3521 13.0295 55.3097 13.0295 55.4689C13.04 55.6706 13.2492 55.6069 13.4479 55.6069C14.2323 55.6069 15.1421 55.5751 15.3199 55.5751C15.4977 55.5751 16.2089 55.6069 16.6168 55.6069C16.7632 55.6069 16.9619 55.6175 16.9724 55.4689C16.9724 55.3734 16.8259 55.3521 16.7004 55.3521H16.5331C16.2821 55.3521 16.0102 55.2247 16.0102 54.9912C16.0102 54.7152 16.0939 54.3436 16.2403 53.9508L17.2338 51.1163C17.2652 51.0632 17.2652 51.0632 17.307 51.0526H20.8629C20.9152 51.0526 20.8838 51.0526 20.9256 51.0951L22.463 55.023C22.4839 55.0867 22.4944 55.1398 22.4944 55.1823C22.4944 55.2778 22.4421 55.3203 22.4212 55.3203C22.2748 55.3415 22.2329 55.3734 22.2329 55.4477C22.2748 55.5963 22.4839 55.5432 22.8291 55.5645C23.9795 55.5963 25.1822 55.6069 25.4332 55.6069C25.611 55.6069 25.8411 55.6494 25.8725 55.4689C25.8725 55.384 25.6947 55.3521 25.6005 55.3521H25.5796ZM17.5267 50.2882L18.9804 45.9993C18.9804 45.9993 18.9908 45.9569 19.0013 45.9356C19.0013 45.9569 19.0222 45.9781 19.0222 45.9993L20.591 50.2882H17.5267Z" fill="#016F78"/>
<path d="M127.34 55.3521C127.183 55.3521 126.943 55.3309 126.713 55.2672C126.399 55.1717 125.949 54.9593 125.353 53.5474C124.339 51.1163 121.745 44.5237 121.494 43.908C121.295 43.4196 121.232 43.2816 121.034 43.271C120.825 43.2922 120.772 43.4515 120.574 43.961L116.819 53.8871C116.516 54.6833 116.212 55.2354 115.512 55.3203C115.386 55.3309 115.156 55.3521 115.041 55.3521C114.936 55.3521 114.79 55.3097 114.79 55.4689C114.8 55.6706 115.01 55.6069 115.208 55.6069C115.993 55.6069 116.903 55.5751 117.08 55.5751C117.258 55.5751 117.969 55.6069 118.367 55.6069C118.513 55.6069 118.712 55.6175 118.722 55.4689C118.722 55.3734 118.576 55.3521 118.45 55.3521H118.283C118.032 55.3521 117.76 55.2247 117.75 54.9912C117.75 54.7152 117.833 54.3436 117.98 53.9508L118.973 51.1163C119.005 51.0632 119.005 51.0632 119.047 51.0526H122.602C122.655 51.0526 122.623 51.0526 122.655 51.0951L124.192 55.023C124.213 55.0867 124.224 55.1398 124.224 55.1823C124.224 55.2778 124.171 55.3203 124.15 55.3203C124.004 55.3415 123.962 55.3734 123.962 55.4477C124.004 55.5963 124.213 55.5432 124.558 55.5645C125.709 55.5963 126.911 55.6069 127.162 55.6069C127.34 55.6069 127.57 55.6494 127.602 55.4689C127.602 55.384 127.424 55.3521 127.33 55.3521H127.34ZM119.287 50.2882L120.741 45.9993C120.741 45.9993 120.762 45.9569 120.762 45.9356C120.762 45.9569 120.783 45.9781 120.783 45.9993L122.351 50.2882H119.287Z" fill="#016F78"/>
<path d="M38.9038 43.6642C38.2554 43.6642 37.722 43.696 37.5652 43.696C37.4083 43.696 36.6344 43.6642 35.9232 43.6642C35.7559 43.6642 35.5362 43.6429 35.5049 43.7915C35.5049 43.8659 35.5885 43.9189 35.7349 43.9189C35.85 43.9189 36.216 43.9402 36.4879 43.9933C36.9063 44.11 37.0004 44.3648 37.0213 45.4158L37.1887 53.2717C36.5402 52.5605 34.9924 50.8194 33.591 49.2907C31.1646 46.6579 28.8219 44.0251 28.5814 43.7491C28.4141 43.5898 28.2258 43.2607 27.9434 43.2607C27.6715 43.3032 27.6924 43.558 27.682 44.1631V53.3142C27.6715 54.7792 27.5669 55.1826 27.2636 55.2463C27.044 55.3206 26.7616 55.3419 26.6466 55.3419C26.4688 55.3419 26.4165 55.395 26.4165 55.448C26.4165 55.5861 26.5943 55.5967 26.7721 55.5967C27.4833 55.5967 28.1526 55.5648 28.2781 55.5648C28.4036 55.5648 29.052 55.5967 29.9514 55.5967C30.2757 55.5967 30.3279 55.5436 30.3384 55.448C30.3384 55.395 30.2861 55.3419 30.1083 55.3419C29.9724 55.3419 29.6272 55.3206 29.3449 55.2463C28.9997 55.1508 28.8324 54.8005 28.801 53.4841L28.6023 46.1059C29.2716 46.8702 30.8822 48.675 32.5347 50.4797C34.208 52.3057 36.4357 54.6518 36.6239 54.8217C37.4606 55.6604 37.6279 55.8408 37.858 55.8727C38.109 55.8727 38.109 55.671 38.1195 54.6412L38.1508 45.2778C38.1613 44.3011 38.2031 44.057 38.6528 43.9508C38.8411 43.8977 38.9352 43.8977 39.0084 43.8977C39.1444 43.8977 39.2803 43.8765 39.2803 43.7703C39.2594 43.6323 39.0398 43.6429 38.8934 43.6429L38.9038 43.6642Z" fill="#016F78"/>
<path d="M98.046 43.6642C97.3976 43.6642 96.8642 43.696 96.7073 43.696C96.5505 43.696 95.7765 43.6642 95.0654 43.6642C94.898 43.6642 94.6784 43.6429 94.6575 43.7915C94.6575 43.8659 94.7412 43.9189 94.8876 43.9189C95.0026 43.9189 95.3687 43.9402 95.6406 43.9933C96.0589 44.11 96.153 44.3648 96.174 45.4158L96.3413 53.2717C95.6929 52.5605 94.145 50.8194 92.7436 49.2907C90.3172 46.6579 87.9746 44.0251 87.7445 43.7491C87.5771 43.5898 87.3889 43.2607 87.1065 43.2607C86.8346 43.3032 86.8555 43.558 86.8451 44.1631V53.3142C86.8451 54.7792 86.73 55.1826 86.4267 55.2463C86.2071 55.3206 85.9247 55.3419 85.8097 55.3419C85.6319 55.3419 85.5796 55.395 85.5796 55.448C85.5796 55.5861 85.7574 55.5967 85.9352 55.5967C86.6463 55.5967 87.3157 55.5648 87.4412 55.5648C87.5667 55.5648 88.2151 55.5967 89.1145 55.5967C89.4387 55.5967 89.491 55.5436 89.5015 55.448C89.5015 55.395 89.4492 55.3419 89.2714 55.3419C89.1354 55.3419 88.7903 55.3206 88.5079 55.2463C88.1628 55.1508 87.9955 54.8005 87.9641 53.4841L87.7654 46.1059C88.4347 46.8702 90.0453 48.675 91.6978 50.4797C93.3711 52.3057 95.5987 54.6518 95.787 54.8217C96.6341 55.6604 96.791 55.8408 97.0211 55.8727C97.2721 55.8727 97.2721 55.671 97.2825 54.6412L97.3139 45.2778C97.3244 44.3011 97.3662 44.057 97.8159 43.9508C97.9937 43.8977 98.0983 43.8977 98.1715 43.8977C98.297 43.8977 98.4434 43.8765 98.4434 43.7703C98.4225 43.6323 98.2133 43.6429 98.0565 43.6429L98.046 43.6642Z" fill="#016F78"/>
<path d="M140.298 43.6642C139.649 43.6642 139.116 43.696 138.959 43.696C138.802 43.696 138.039 43.6642 137.317 43.6642C137.15 43.6642 136.93 43.6429 136.899 43.7915C136.899 43.8659 136.983 43.9189 137.129 43.9189C137.244 43.9189 137.61 43.9402 137.882 43.9933C138.3 44.11 138.394 44.3648 138.415 45.4158L138.583 53.2717C137.934 52.5605 136.386 50.8194 134.985 49.2907C132.559 46.6579 130.216 44.0251 129.975 43.7491C129.808 43.5898 129.62 43.2607 129.337 43.2607C129.066 43.3032 129.086 43.558 129.076 44.1631L129.055 53.3142C129.055 54.7792 128.951 55.1826 128.658 55.2463C128.438 55.3206 128.156 55.3419 128.041 55.3419C127.863 55.3419 127.811 55.395 127.811 55.448C127.811 55.5861 127.988 55.5967 128.166 55.5967C128.877 55.5967 129.547 55.5648 129.672 55.5648C129.798 55.5648 130.446 55.5967 131.345 55.5967C131.67 55.5967 131.722 55.5436 131.722 55.448C131.722 55.395 131.67 55.3419 131.492 55.3419C131.356 55.3419 131.011 55.3206 130.728 55.2463C130.383 55.1508 130.226 54.8005 130.185 53.4841L129.986 46.1059C130.655 46.8702 132.266 48.675 133.918 50.4797C135.592 52.3057 137.819 54.6518 138.007 54.8217C138.844 55.6604 139.012 55.8408 139.242 55.8727C139.493 55.8727 139.493 55.671 139.493 54.6412L139.524 45.2778C139.524 44.3011 139.576 44.057 140.026 43.9508C140.204 43.8977 140.308 43.8977 140.382 43.8977C140.507 43.8977 140.653 43.8765 140.653 43.7703C140.643 43.6323 140.423 43.6429 140.277 43.6429L140.298 43.6642Z" fill="#016F78"/>
<path d="M52.3951 49.7578C51.914 49.7578 50.9205 49.8003 50.8577 49.8003C50.795 49.8003 49.791 49.7578 49.0798 49.7578C48.9125 49.7578 48.7242 49.7896 48.7242 49.9064C48.7242 49.9807 48.8602 50.0126 48.9543 50.0126C49.0903 50.0126 49.3622 50.0338 49.4668 50.0551C50.0524 50.2355 50.0734 50.2886 50.1047 51.605V54.3227C50.1047 54.5669 50.0211 54.6943 49.8433 54.7898C49.4668 55.0128 48.651 55.1189 48.0967 55.1189C46.6639 55.1189 45.2625 54.6518 44.0389 53.431C43.5055 52.9108 42.3969 51.2971 42.3969 49.0784C42.3969 47.2312 43.0348 45.8086 43.9238 45.0973C45.0952 44.1525 46.2456 44.0676 47.2287 44.0676C49.2367 44.0676 50.4917 44.7576 50.8473 45.3097C51.0669 45.6706 51.1506 46.1059 51.161 46.3182C51.1819 46.435 51.161 46.6367 51.2865 46.6473C51.412 46.6473 51.4434 46.4456 51.4434 46.212C51.4434 44.609 51.5584 44.1843 51.5584 43.9402C51.5689 43.834 51.5375 43.696 51.3702 43.696C50.9728 43.6748 50.5126 43.6111 50.1884 43.5368C49.8851 43.4731 48.7661 43.2607 47.7516 43.2607C46.5384 43.2607 44.9592 43.3775 43.5055 44.2799C42.0727 45.1929 40.8281 47.0295 40.8281 49.6198C40.8281 51.6475 41.7485 53.3779 42.7316 54.2484C44.5095 55.8302 46.779 55.9788 47.9817 55.9788C48.902 55.9788 50.3348 55.7984 51.3702 55.2463C51.6003 55.1189 51.6421 54.9915 51.6317 54.2909V52.4968C51.6317 51.8279 51.6317 51.3502 51.663 50.8406C51.7049 50.2886 51.7885 50.0975 52.165 50.0232C52.3533 49.9914 52.4474 49.9807 52.5415 49.9807C52.6252 49.9807 52.7612 49.9383 52.7716 49.8746C52.7716 49.7684 52.5834 49.726 52.416 49.726L52.3951 49.7578Z" fill="#016F78"/>
<path d="M70.9796 43.6639C70.4881 43.6639 69.8083 43.6958 69.7037 43.6958C69.5677 43.6958 68.8984 43.6639 68.0931 43.6639C67.9153 43.6639 67.7271 43.6851 67.7271 43.7913C67.7271 43.8868 67.8526 43.9187 67.9676 43.9187C68.6892 43.9399 68.752 44.0673 68.7624 44.3009C68.7624 44.5026 68.752 44.7043 68.5951 45.2988C68.0722 47.2521 66.7231 51.5941 66.2315 53.2503L63.1672 44.3858C62.958 43.8444 62.9267 43.6108 62.6757 43.5684C62.4769 43.6002 62.4247 43.7276 62.1946 44.3752L58.942 53.2503C58.555 51.8489 57.1222 46.7107 56.9026 45.7659C56.7457 45.0652 56.5993 44.492 56.6098 44.3221C56.6098 44.1522 56.6935 44.0567 56.7562 44.0249C56.9131 43.9505 57.2059 43.9399 57.3314 43.9399C57.4046 43.9399 57.5824 43.9187 57.5824 43.8125C57.5824 43.6851 57.4674 43.6851 57.2164 43.6851C56.432 43.6851 55.7104 43.717 55.5744 43.717C55.4071 43.717 54.5181 43.6851 53.7023 43.6851C53.5559 43.6851 53.3781 43.6958 53.3677 43.8125C53.3677 43.8975 53.5141 43.9399 53.5978 43.9399C53.7023 43.9399 54.1102 43.9612 54.288 44.0249C54.6645 44.1735 54.8319 44.3646 55.0933 45.2032L57.8962 54.6834C58.2204 55.7557 58.2622 55.9786 58.5446 56.0211C58.827 55.9998 58.9106 55.7663 59.1512 55.1081C59.695 53.6855 61.6926 48.2607 62.3619 46.4559L65.3739 55.1187C65.604 55.7344 65.6668 55.9892 65.9387 56.0211C66.242 55.9786 66.2733 55.745 66.6917 54.5773C67.3087 52.7831 68.8984 47.698 69.5887 45.6703C69.8815 44.7892 70.143 44.1416 70.5508 44.0036C70.6973 43.9505 71.0006 43.9293 71.0528 43.9293C71.1783 43.9293 71.2934 43.8762 71.2934 43.7807C71.2829 43.6427 71.1051 43.6745 70.9692 43.6639H70.9796Z" fill="#016F78"/>
<path d="M77.7986 43.271C81.3859 43.271 84.0737 45.5853 84.0841 49.3646C84.0841 52.9954 81.5532 55.9997 77.7045 55.9997C73.3329 55.9997 71.5027 52.5283 71.5027 49.6194C71.5027 46.9866 73.3957 43.271 77.8091 43.271H77.7986ZM78.1333 55.1929C79.5243 55.1823 82.369 54.4073 82.3794 49.8105C82.3794 46.0206 80.1204 44.0141 77.6941 44.0141C75.1108 44.0141 73.2074 45.7127 73.1969 49.1736C73.1969 52.8573 75.3618 55.1929 78.1333 55.1929Z" fill="#016F78"/>
<path d="M114.758 52.9637C114.633 52.9637 114.581 53.1761 114.57 53.3141C114.518 53.6538 114.34 54.1209 114.11 54.4075C113.713 54.9065 112.918 54.9383 111.914 54.9383C110.439 54.9383 108.285 54.8003 108.034 54.5349C107.762 54.2907 107.647 53.038 107.657 50.2248V46.7533C107.657 43.7596 107.657 43.2288 107.699 42.613C107.751 41.9442 107.845 41.7319 108.337 41.6363C108.557 41.5939 108.818 41.5833 108.944 41.5833C109.038 41.5833 109.205 41.5408 109.216 41.4559C109.216 41.3285 108.985 41.2754 108.797 41.2754C108.232 41.2754 106.904 41.3391 106.81 41.3391C106.716 41.3391 105.576 41.2754 104.729 41.2754C104.53 41.2754 104.311 41.3179 104.311 41.4559C104.311 41.5408 104.478 41.5833 104.582 41.5833C104.739 41.5833 105.064 41.6045 105.2 41.6363C105.785 41.785 105.869 41.9761 105.921 42.6236C105.963 43.2288 105.963 43.7702 105.963 46.7639V50.1398C105.963 51.9764 105.963 53.4945 105.869 54.2907C105.796 54.8534 105.691 55.1931 105.419 55.2462C105.252 55.278 105.032 55.3205 104.875 55.3205C104.718 55.3205 104.603 55.4267 104.603 55.4585C104.603 55.5965 104.823 55.6284 105.032 55.6284C105.597 55.6284 106.664 55.5753 106.831 55.5753C107.919 55.5753 110.816 55.6921 113.535 55.6921C113.619 55.6921 113.681 55.6921 113.754 55.6921C114.539 55.6921 114.528 55.7239 114.633 55.2887C114.79 54.7048 114.926 53.6325 114.926 53.399C114.926 53.2185 114.926 52.9956 114.79 52.985L114.758 52.9637Z" fill="#016F78"/>
<path d="M152.785 45.3416C151.112 43.5899 148.675 43.6536 147.054 43.6536C146.814 43.6536 146.594 43.6536 146.395 43.6536C145.444 43.6536 144.45 43.6748 144.272 43.6748C144.199 43.6748 143.205 43.6536 142.494 43.6536C142.327 43.6536 142.149 43.6536 142.149 43.8022C142.149 43.9084 142.285 43.9084 142.379 43.9084C142.515 43.9084 142.787 43.9296 142.892 43.9509C143.383 44.0676 143.446 44.2375 143.498 44.7683C143.53 45.2779 143.53 45.7131 143.53 48.2079V51.0212C143.53 52.5605 143.53 53.8132 143.456 54.4714C143.394 54.9385 143.31 55.2252 143.08 55.2676C142.944 55.2995 142.756 55.3313 142.63 55.3313C142.505 55.3313 142.4 55.3844 142.4 55.4375C142.4 55.5861 142.588 55.5861 142.756 55.5861C143.226 55.5861 144.23 55.5649 144.293 55.5649C144.44 55.5649 146.427 55.7241 147.786 55.7241C150.485 55.7241 151.928 54.7581 152.618 54.0256C153.517 53.0701 154.344 51.4989 154.344 49.45C154.344 47.5179 153.591 46.159 152.785 45.3203V45.3416ZM152.723 49.9702C152.723 51.414 152.283 52.9321 151.499 53.7177C150.589 54.6413 149.261 55.1827 147.818 55.1827C145.966 55.1827 145.391 54.8324 145.224 54.5882C145.13 54.4714 145.078 53.8132 145.067 53.4311C145.046 53.1338 145.036 51.6582 145.036 49.9702V47.985C145.036 46.7535 145.036 45.1293 145.046 44.5878C145.057 44.4286 145.067 44.418 145.172 44.3543C145.245 44.3012 145.862 44.2481 146.155 44.2481C148.027 44.2481 149.773 44.4711 151.227 46.021C151.865 46.7004 152.712 47.9744 152.712 49.9808L152.723 49.9702Z" fill="#016F78"/>
<path d="M108.526 17.4845L107.291 14.374C88.3617 14.374 86.6884 6.27393 77.3386 6.27393C67.9888 6.27393 66.3154 14.374 47.3857 14.374L46.1516 17.4845C65.8762 17.4845 67.8946 7.18691 77.3386 7.18691C86.7825 7.18691 88.801 17.4845 108.526 17.4845Z" fill="#016F78"/>
<path d="M100.19 6.24228L99.5521 4.17213C84.7639 4.17213 83.7076 0 77.3384 0C70.9693 0 69.913 4.17213 55.1248 4.17213L54.4868 6.24228C68.8148 6.24228 70.0489 0.849289 77.3384 0.849289C84.6279 0.849289 85.862 6.24228 100.19 6.24228Z" fill="#016F78"/>
<path d="M104.008 11.3913L103.255 9.06635C86.8662 9.06635 85.653 3.1001 77.3386 3.1001C69.0242 3.1001 67.8005 9.06635 51.4227 9.06635L50.6697 11.3913C67.6018 11.3913 68.9405 3.96 77.3386 3.94939C85.7367 3.94939 87.0754 11.3913 104.008 11.3913Z" fill="#016F78"/>
<path d="M118.22 28.8439C92.0431 28.8439 89.3448 13.7266 77.3281 13.7266C65.3114 13.7266 62.6131 28.8439 36.4357 28.8439L34.7415 32.8674C62.6759 32.8674 65.8657 14.7988 77.3281 14.7988C88.7905 14.7988 91.9908 32.8674 119.915 32.8674L118.22 28.8439Z" fill="#016F78"/>
<path d="M113.525 24.226L112.29 21.0093C89.9303 21.0093 87.9746 9.83057 77.3384 9.83057C66.7022 9.83057 64.736 21.0093 42.3864 21.0093L41.1523 24.226C64.3909 24.226 66.5872 10.9346 77.3384 10.9346C88.0897 10.9346 90.2859 24.226 113.525 24.226Z" fill="#016F78"/>
</g>
<defs>
<clipPath id="clip0_8025_5037">
<rect width="154" height="56" fill="white" transform="translate(0.333252)"/>
</clipPath>
</defs>
</svg>
