<svg width="164" height="56" viewBox="0 0 164 56" fill="none" xmlns="http://www.w3.org/2000/svg">
<path d="M70.198 28.7182C70.198 36.4912 64.2114 42.219 56.8644 42.219C49.5174 42.219 43.5308 36.4912 43.5308 28.7182C43.5308 20.8903 49.5174 15.2173 56.8644 15.2173C64.2114 15.2173 70.198 20.8903 70.198 28.7182ZM64.3612 28.7182C64.3612 23.8608 60.8915 20.5373 56.8644 20.5373C52.8373 20.5373 49.3676 23.8608 49.3676 28.7182C49.3676 33.5268 52.8373 36.899 56.8644 36.899C60.8915 36.899 64.3612 33.5208 64.3612 28.7182Z" fill="#EA4335"/>
<path d="M98.9629 28.7182C98.9629 36.4912 92.9763 42.219 85.6293 42.219C78.2823 42.219 72.2957 36.4912 72.2957 28.7182C72.2957 20.8964 78.2823 15.2173 85.6293 15.2173C92.9763 15.2173 98.9629 20.8903 98.9629 28.7182ZM93.1261 28.7182C93.1261 23.8608 89.6564 20.5373 85.6293 20.5373C81.6022 20.5373 78.1325 23.8608 78.1325 28.7182C78.1325 33.5268 81.6022 36.899 85.6293 36.899C89.6564 36.899 93.1261 33.5208 93.1261 28.7182Z" fill="#FBBC05"/>
<path d="M126.529 16.0329V40.2712C126.529 50.2416 120.74 54.3138 113.897 54.3138C107.454 54.3138 103.577 49.9373 102.115 46.3582L107.197 44.2095C108.102 46.4068 110.319 48.9999 113.891 48.9999C118.271 48.9999 120.986 46.2547 120.986 41.0868V39.1451H120.782C119.476 40.7825 116.959 42.2129 113.783 42.2129C107.137 42.2129 101.048 36.3329 101.048 28.7668C101.048 21.146 107.137 15.2173 113.783 15.2173C116.953 15.2173 119.47 16.6477 120.782 18.2364H120.986V16.039H126.529V16.0329ZM121.399 28.7668C121.399 24.0129 118.277 20.5373 114.304 20.5373C110.277 20.5373 106.903 24.0129 106.903 28.7668C106.903 33.4721 110.277 36.899 114.304 36.899C118.277 36.899 121.399 33.4721 121.399 28.7668Z" fill="#4285F4"/>
<path d="M135.668 1.82617V41.3914H129.975V1.82617H135.668Z" fill="#34A853"/>
<path d="M157.853 33.1619L162.383 36.2297C160.921 38.4271 157.397 42.2132 151.309 42.2132C143.758 42.2132 138.119 36.2845 138.119 28.7123C138.119 20.6836 143.806 15.2114 150.656 15.2114C157.553 15.2114 160.927 20.7871 162.03 23.8001L162.635 25.334L144.867 32.8088C146.227 35.5175 148.342 36.8992 151.309 36.8992C154.281 36.8992 156.343 35.414 157.853 33.1619ZM143.908 28.3045L155.785 23.2949C155.132 21.6088 153.166 20.434 150.853 20.434C147.887 20.434 143.758 23.094 143.908 28.3045Z" fill="#EA4335"/>
<path d="M21.9814 25.2061V19.4783H40.9841C41.1698 20.4766 41.2657 21.6574 41.2657 22.9357C41.2657 27.2331 40.1091 32.547 36.3817 36.3331C32.7562 40.1679 28.1239 42.2131 21.9874 42.2131C10.6133 42.2131 1.04907 32.8027 1.04907 21.2496C1.04907 9.69657 10.6133 0.286133 21.9874 0.286133C28.2797 0.286133 32.7622 2.79396 36.13 6.06265L32.1509 10.1044C29.7359 7.80353 26.4639 6.01396 21.9814 6.01396C13.6756 6.01396 7.17955 12.8131 7.17955 21.2496C7.17955 29.6861 13.6756 36.4853 21.9814 36.4853C27.3688 36.4853 30.437 34.2879 32.4026 32.2914C33.9966 30.6722 35.0454 28.3592 35.4589 25.2L21.9814 25.2061Z" fill="#4285F4"/>
</svg>
