<svg width="174" height="48" viewBox="0 0 174 48" fill="none" xmlns="http://www.w3.org/2000/svg">
<g clip-path="url(#clip0_8025_4919)">
<path d="M156.857 16.13C156.857 16.13 159.086 15.9686 159.086 19.3768V33.2025C159.086 33.2025 159.099 33.7586 159.587 33.7586H162.096C162.096 33.7586 162.621 33.7272 162.621 33.2025V18.4844C162.621 18.4844 162.851 12.8025 156.776 12.8025C150.7 12.8025 150.989 18.4844 150.989 18.4844V33.207C150.989 33.207 150.98 33.7631 151.495 33.7631H154.176C154.176 33.7631 154.664 33.7855 154.664 33.2204V19.5113C154.664 19.5113 154.429 16.13 156.857 16.13Z" fill="white"/>
<path d="M43.5626 14.7397C44.8872 15.8518 45.5517 17.26 45.5517 18.9641C45.5517 20.6682 44.8872 22.027 43.5626 23.1392C42.3284 24.1885 40.8908 24.7177 39.2543 24.7177C37.6178 24.7177 36.1305 24.1885 34.9008 23.1392C33.5898 22.027 32.9343 20.6323 32.9343 18.9641C32.9343 17.2958 33.5898 15.8518 34.9008 14.7397C36.135 13.6858 37.5862 13.1611 39.2543 13.1611C40.9225 13.1611 42.3284 13.6858 43.5626 14.7397ZM37.3466 17.0896C36.7815 17.5963 36.5012 18.2197 36.5012 18.9596C36.5012 19.6995 36.7815 20.296 37.3466 20.7893C37.88 21.2691 38.5174 21.5068 39.2543 21.5068C39.9505 21.5068 40.5608 21.2691 41.0943 20.7893C41.6594 20.2825 41.9396 19.6726 41.9396 18.9596C41.9396 18.2466 41.6594 17.5963 41.0943 17.0896C40.5608 16.6097 39.946 16.372 39.2543 16.372C38.5174 16.372 37.88 16.6142 37.3466 17.0896ZM53.5534 25.4756H50.8726C50.8726 25.4756 50.4839 25.5339 50.4839 25.0585V13.6455C50.4839 13.6455 50.4929 13.2239 50.8907 13.2239H53.5534C54.0055 13.2239 53.992 13.632 53.992 13.632V25.0675C53.992 25.5249 53.5534 25.4801 53.5534 25.4801V25.4756ZM53.5534 34.0993H35.0952C34.5211 34.0993 34.1097 33.9782 33.8656 33.7316C33.5718 33.4401 33.4226 32.9513 33.4226 32.2696V26.9555C33.4226 26.9555 33.4226 26.4667 33.8611 26.4667H36.4922C36.9307 26.4667 36.8945 26.942 36.8945 26.942V31.0543H53.5128C54.0869 31.0543 53.9829 31.5386 53.9829 31.5386V33.615C53.9829 34.1172 53.5489 34.0993 53.5489 34.0993H53.5534Z" fill="white"/>
<path d="M68.6888 24.7179C67.5089 24.5968 66.4149 24.2246 65.3932 23.6236C64.2178 22.9196 63.3363 22.0227 62.7395 20.9284C62.1111 22.0227 61.1573 22.933 59.8869 23.6505C58.8607 24.2246 57.8255 24.5743 56.7767 24.7089C56.3427 24.7492 56.3246 24.3008 56.3246 24.3008V21.933C56.3246 21.933 56.3065 21.4845 56.7495 21.3948C57.9114 21.1616 58.8065 20.7177 59.4394 20.0719C60.0497 19.4351 60.452 18.5427 60.6509 17.3991H56.6501C56.6501 17.3991 56.2522 17.3947 56.2522 16.9462V14.7712C56.2522 14.7712 56.2387 14.3586 56.6501 14.3586H60.8996V12.8877C60.8996 12.8877 60.8589 12.4482 61.3064 12.4482H64.1319C64.6201 12.4482 64.5523 12.8877 64.5523 12.8877V14.3586H68.6617C69.1319 14.3586 69.0957 14.7712 69.0957 14.7712V16.9462C69.0957 17.4216 68.6617 17.3991 68.6617 17.3991H64.697C64.8959 18.5292 65.3163 19.4172 65.9583 20.0719C66.6093 20.7177 67.5179 21.1572 68.6843 21.3993C68.6843 21.3993 69.064 21.4397 69.1002 21.933V24.3187C69.1002 24.3187 69.0776 24.7627 68.6843 24.7223L68.6888 24.7179ZM77.3234 13.6277V25.0632C77.3234 25.5116 76.8307 25.4757 76.8307 25.4757H74.2945C74.2945 25.4757 73.8153 25.5116 73.8153 25.0632V20.637H71.2023C71.2023 20.637 70.7503 20.61 70.7503 20.1347V18.0539C70.7503 18.0539 70.7141 17.592 71.2023 17.592H73.8153V13.6322C73.8153 13.6322 73.7837 13.1882 74.2719 13.1882H76.8307C76.8307 13.1882 77.3234 13.1702 77.3234 13.6322V13.6277Z" fill="white"/>
<path d="M100.302 34.0008H79.9771C79.5069 34.0008 79.5702 33.4985 79.5702 33.4985V31.467C79.5702 31.467 79.5205 30.9558 79.9771 30.9558H83.4671V22.6191C83.4671 22.6191 83.4536 22.1527 83.9237 22.1527H86.4101C86.4101 22.1527 86.93 22.1034 86.93 22.6191V30.9558H90.3884V22.6191C90.3884 22.6191 90.3567 22.1527 90.8721 22.1527H93.3585C93.8693 22.1527 93.8513 22.6415 93.8513 22.6415V30.9513H100.302C100.302 30.9513 100.795 30.9513 100.795 31.4894V33.5478C100.795 34.0142 100.302 34.0008 100.302 34.0008ZM99.5474 26.4399H96.9389C96.4959 26.4399 96.4869 25.9959 96.4869 25.9959V16.8386H80.7773C80.3704 16.8386 80.3523 16.3856 80.3523 16.3856V14.0627C80.3523 14.0627 80.3388 13.6008 80.7411 13.6008H98.4172C98.4172 13.6008 99.9904 13.52 99.9904 15.1524V26.0318C99.9904 26.4309 99.5384 26.4444 99.5384 26.4444L99.5474 26.4399Z" fill="white"/>
<path d="M104.529 13.1926L123.417 13.2106C123.417 13.2106 123.901 13.1702 123.901 13.6411V15.3228C123.901 15.3228 123.928 15.7757 123.417 15.7757H106.491V16.5022H123.417C123.417 16.5022 123.901 16.4708 123.901 16.9551V18.2242C123.901 18.731 123.417 18.7265 123.417 18.7265H106.491V19.5023H123.318C123.318 19.5023 123.865 19.4037 123.865 19.9822V21.3679C123.865 21.9823 123.318 21.9195 123.318 21.9195H115.411V22.6908H124.032C124.032 22.6908 124.624 22.6729 124.624 23.2828V24.812C124.624 25.4084 124.018 25.395 124.018 25.395H119.158C119.624 25.8703 119.99 26.3995 120.257 26.9915C120.537 27.6148 120.677 28.2785 120.677 28.9826C120.677 30.8347 119.936 32.3773 118.449 33.6061C117.065 34.7721 115.429 35.3506 113.548 35.3506C111.668 35.3506 110.031 34.7676 108.648 33.6061C107.178 32.3773 106.446 30.8347 106.446 28.9826C106.446 28.3099 106.568 27.6552 106.817 27.0184C107.002 26.5565 107.111 26.2156 107.825 25.395H102.798C102.228 25.395 102.228 24.812 102.228 24.812V23.2828C102.228 22.6684 102.798 22.6908 102.798 22.6908H111.952V21.9195H104.588C104.028 21.9195 103.616 21.7939 103.358 21.5517C103.078 21.2558 102.938 20.767 102.938 20.0763V14.9057C102.938 14.9057 102.884 13.1971 104.534 13.1971L104.529 13.1926ZM111.039 26.5968C110.316 27.2516 109.954 28.0588 109.954 29.0229C109.954 29.9871 110.316 30.7809 111.039 31.4535C111.744 32.0903 112.581 32.4087 113.553 32.4087C114.525 32.4087 115.334 32.0903 116.039 31.4535C116.758 30.7853 117.124 29.9736 117.124 29.0229C117.124 28.0722 116.758 27.2516 116.039 26.5968C115.334 25.96 114.502 25.6416 113.553 25.6416C112.603 25.6416 111.749 25.96 111.039 26.5968Z" fill="white"/>
<path d="M147.933 14.9505V20.6144C147.933 21.1615 147.418 21.1391 147.418 21.1391H144.931C144.371 21.1391 144.425 20.6144 144.425 20.6144V16.2555H127.847C127.296 16.2555 127.355 15.6994 127.355 15.6994V13.6993C127.355 13.6993 127.337 13.2105 127.847 13.2105H146.075C146.075 13.2105 147.933 12.9997 147.933 14.9505Z" fill="white"/>
<path d="M167.973 13.2107H170.632C170.632 13.2107 171.174 13.1613 171.174 13.6995V21.0002H173.484C173.484 21.0002 173.995 20.9375 173.995 21.4846V23.5161C173.995 24.1125 173.412 24.0452 173.412 24.0452H171.174V33.3326C171.174 33.947 170.559 33.9425 170.559 33.9425H168.05C167.49 33.9425 167.472 33.2833 167.472 33.2833V13.6995C167.472 13.6995 167.481 13.2107 167.978 13.2107H167.973Z" fill="white"/>
<path d="M148.222 25.5653H143.448C143.914 26.0407 144.276 26.5744 144.542 27.1663C144.823 27.7897 144.967 28.4534 144.967 29.1574C144.967 31.0095 144.226 32.5522 142.739 33.781C141.355 34.9424 139.719 35.5254 137.838 35.5254C135.958 35.5254 134.326 34.9424 132.938 33.781C131.468 32.5522 130.732 31.0095 130.732 29.1574C130.732 28.4848 130.854 27.83 131.102 27.1887C131.333 26.6147 131.667 26.0721 132.11 25.5653H127.002C126.5 25.5653 126.514 25.072 126.514 25.072V23.3635C126.514 23.3635 126.514 22.8567 127.002 22.8567H135.071V19.5023C135.071 19.5023 135.049 18.9866 135.6 18.9866H137.987C138.548 18.9866 138.534 19.5157 138.534 19.5157V22.8567H148.209C148.209 22.8567 148.72 22.8343 148.72 23.3948V25.072C148.72 25.6057 148.227 25.5653 148.227 25.5653H148.222ZM135.325 26.7627C134.601 27.4174 134.24 28.2247 134.24 29.1888C134.24 30.153 134.601 30.9468 135.325 31.6194C136.03 32.2562 136.866 32.5746 137.834 32.5746C138.801 32.5746 139.615 32.2517 140.32 31.6194C141.043 30.9468 141.405 30.1395 141.405 29.1888C141.405 28.2381 141.043 27.4174 140.32 26.7627C139.615 26.1259 138.788 25.8075 137.834 25.8075C136.88 25.8075 136.03 26.1259 135.325 26.7627Z" fill="white"/>
<path d="M76.9437 34.1174H58.4901C57.9159 34.1174 57.5045 33.9963 57.2604 33.7542C56.9666 33.4627 56.8174 32.9739 56.8174 32.2922V26.9781C56.8174 26.9781 56.8174 26.4893 57.2559 26.4893H59.887C60.3255 26.4893 60.2893 26.9601 60.2893 26.9601V31.0724H76.9076C77.4817 31.0724 77.3777 31.5567 77.3777 31.5567V33.6331C77.3777 34.1309 76.9437 34.1174 76.9437 34.1174Z" fill="white"/>
<path d="M18.2419 25.8254L21.9851 24.7626C22.0981 24.7267 22.1931 24.6012 22.1976 24.4846L22.826 15.5066C22.826 15.39 22.7356 15.2958 22.618 15.2913L19.2546 15.2151C19.3088 15.973 19.336 16.7353 19.336 17.5067C19.336 20.3812 18.9517 23.1706 18.2374 25.8254H18.2419Z" fill="#E94816"/>
<path d="M28.2373 25.0314L17.1841 29.0496C15.5747 33.2022 13.12 36.9378 10.0323 40.0545L9.88313 42.2026C9.87409 42.3147 9.9419 42.3327 10.0549 42.3058C20.5792 39.4446 25.3622 32.6775 25.3622 32.6775C27.7491 29.8702 28.4046 25.157 28.4046 25.157C28.4227 25.0449 28.3458 24.9866 28.2373 25.027V25.0314Z" fill="#217CB3"/>
<path d="M25.5835 12.6545C25.7011 12.6634 25.7644 12.5827 25.7237 12.4751C25.7237 12.4751 24.7879 9.7171 22.9389 8.36278C22.9389 8.36278 20.9091 6.36269 17.1343 5.82007C17.8938 7.74841 18.4679 9.77092 18.8431 11.8607L25.5835 12.6545Z" fill="#5BA532"/>
<path d="M1.12192 15.0086L0.000775407 30.8075C-0.00826608 30.9197 0.0776281 30.9824 0.190647 30.9466L18.242 25.8208C18.9563 23.1659 19.3405 20.3766 19.3405 17.502C19.3405 16.7352 19.3134 15.9683 19.2591 15.2104L1.35248 14.7979C1.23494 14.7979 1.13096 14.8875 1.12644 14.9997L1.12192 15.0086Z" fill="url(#paint0_linear_8025_4919)"/>
<path d="M10.8324 31.3592C10.7239 31.3995 10.629 31.5251 10.6199 31.6372L10.0322 40.0501C13.1199 36.9334 15.5701 33.1978 17.184 29.0452L10.8324 31.3547V31.3592Z" fill="url(#paint1_linear_8025_4919)"/>
<path d="M15.1498 5.88279L14.7836 11.1835C14.7745 11.2956 14.865 11.3987 14.9825 11.4077L18.8432 11.8606C18.468 9.77086 17.8939 7.74834 17.1344 5.82001C16.5828 5.73929 15.9997 5.69444 15.3758 5.68547C15.2583 5.68099 15.1543 5.76619 15.1498 5.88279Z" fill="url(#paint2_linear_8025_4919)"/>
</g>
<defs>
<linearGradient id="paint0_linear_8025_4919" x1="21.7275" y1="22.8789" x2="9.31803" y2="22.8789" gradientUnits="userSpaceOnUse">
<stop stop-color="#F8B500"/>
<stop offset="1" stop-color="#E94816"/>
</linearGradient>
<linearGradient id="paint1_linear_8025_4919" x1="17.1569" y1="29.0227" x2="8.10744" y2="38.1408" gradientUnits="userSpaceOnUse">
<stop stop-color="#71B4D2"/>
<stop offset="1" stop-color="#217CB3"/>
</linearGradient>
<linearGradient id="paint2_linear_8025_4919" x1="21.1352" y1="13.6903" x2="5.6014" y2="-1.96903" gradientUnits="userSpaceOnUse">
<stop stop-color="#F7F28A"/>
<stop offset="0.03" stop-color="#E8EA81"/>
<stop offset="0.12" stop-color="#C3D86C"/>
<stop offset="0.22" stop-color="#A2C85A"/>
<stop offset="0.33" stop-color="#88BB4B"/>
<stop offset="0.44" stop-color="#74B140"/>
<stop offset="0.58" stop-color="#65AA38"/>
<stop offset="0.73" stop-color="#5DA633"/>
<stop offset="1" stop-color="#5BA532"/>
</linearGradient>
<clipPath id="clip0_8025_4919">
<rect width="174" height="48" fill="white"/>
</clipPath>
</defs>
</svg>
