<svg width="164" height="28" viewBox="0 0 164 28" fill="none" xmlns="http://www.w3.org/2000/svg">
<g clip-path="url(#clip0_8025_5326)">
<path d="M124.481 1.56393V4.6751H127.595C128.954 4.6751 129.847 5.5122 130.356 6.05288C130.764 6.49821 139.729 16.4194 139.944 16.6801C140.159 16.9413 140.159 16.9441 140.159 17.1099V22.0259C140.159 22.2513 140.135 22.4761 140.09 22.6971C140.027 22.8398 139.932 22.9673 139.813 23.0706C139.693 23.174 139.552 23.2507 139.4 23.2956C139.105 23.3316 138.809 23.3497 138.513 23.3496L135.396 23.3459V26.4575H152.876V23.3459H149.587C149.292 23.3474 148.998 23.3292 148.706 23.2914C148.554 23.2469 148.413 23.1703 148.294 23.067C148.175 22.9637 148.081 22.8361 148.019 22.6934C147.973 22.4724 147.949 22.2476 147.947 22.0221V17.109C147.928 16.9475 147.97 16.7847 148.064 16.651L157.762 5.8523C158.653 4.88461 159.116 4.67464 160.283 4.67464H163.5V1.56299H149.095V4.66806H151.269C151.385 4.66117 151.502 4.6871 151.604 4.74277C151.705 4.79845 151.789 4.88152 151.844 4.98211C151.899 5.0827 151.923 5.19659 151.913 5.31021C151.904 5.42383 151.861 5.53241 151.791 5.62306C151.745 5.68647 145.759 12.5561 145.684 12.6228C145.609 12.6895 145.561 12.6736 145.505 12.6008C145.45 12.5275 139.536 5.62306 139.536 5.62306C139.119 5.12324 139.445 4.66853 139.934 4.66853H142.053V1.56346L124.481 1.56393Z" fill="#0F0F0F"/>
<path d="M81.6101 1.56396V4.67513H84.4002C86.4149 4.67513 86.552 5.77012 86.552 6.72466V21.2879C86.552 22.1593 86.604 23.3558 85.3199 23.3558H81.8768V26.4641H96.5764V23.3558H92.9908C91.5594 23.3558 91.494 22.7169 91.4781 21.3579V8.88176L111.667 26.4646H116.801L116.53 6.60675C116.557 5.15568 116.648 4.67232 118.187 4.67232H121.404V1.56396H106.408V4.67232H109.701C111.214 4.67232 111.468 5.24165 111.487 6.60675L111.667 16.9986L94.1411 1.56396H81.6101Z" fill="#0F0F0F"/>
<path d="M15.4161 -0.00195312C12.2573 -0.00195312 8.66835 0.577249 5.63619 1.90712C2.80618 3.14163 0.50173 5.12399 0.50173 8.41038C0.4974 10.1318 1.16816 11.7895 2.37638 13.0435C3.19458 13.7815 4.51477 15.0353 7.9642 15.7733C9.50579 16.0918 12.8017 16.6038 16.0846 16.9411C19.367 17.2783 22.5494 17.5776 23.8527 17.9182C24.8899 18.1756 26.6336 18.526 26.6336 20.4351C26.6336 22.3442 24.7984 22.9163 24.4789 23.0408C24.1598 23.1648 21.9554 24.1513 17.9977 24.1513C15.3757 24.0802 12.7774 23.6441 10.2816 22.8562C8.80503 22.3404 7.2567 21.663 5.81233 19.9414C5.22942 19.1308 4.906 18.1697 4.88297 17.1797H1.29732V26.9797H5.28098V25.6531C5.28043 25.5547 5.30672 25.458 5.35718 25.3728C5.40764 25.2876 5.48043 25.2171 5.56807 25.1685C5.65571 25.1199 5.75505 25.095 5.85584 25.0962C5.95663 25.0975 6.05524 25.125 6.14155 25.1758C8.01827 25.9729 9.97039 26.5889 11.97 27.0149C14.0632 27.441 15.4161 27.7501 18.0175 27.7501C20.7625 27.8009 23.4983 27.4238 26.1215 26.633C27.8635 26.1669 29.4979 25.3795 30.9364 24.3133C31.7455 23.7068 32.3994 22.9254 32.8469 22.0305C33.2943 21.1356 33.5231 20.1517 33.5152 19.156C33.5291 17.2641 32.7812 15.4425 31.4326 14.0836C30.6826 13.3733 29.8137 12.7935 28.8634 12.369C27.842 11.9186 26.7815 11.5576 25.6946 11.2904C23.6279 10.7972 18.9859 10.1799 16.7661 9.96338C14.4381 9.7285 10.3986 9.40014 8.78529 8.91347C8.29629 8.76362 7.29857 8.3028 7.29857 7.17305C7.29857 6.36836 7.75484 5.68721 8.65486 5.13666C10.0857 4.26198 12.9745 3.71754 15.9864 3.71754C18.9021 3.68305 21.794 4.23422 24.4822 5.33679C25.2044 5.64401 25.8835 6.03975 26.5032 6.51445C27.5134 7.35667 28.213 8.49884 28.4948 9.76607H31.7127V1.23585H28.1271V2.22514C28.1271 2.54363 27.8007 2.9636 27.1486 2.61692C25.5314 1.79579 20.9875 0.020595 15.4161 -0.00195312Z" fill="#0F0F0F"/>
<path d="M58.5727 0.000488281C52.9233 0.000488281 46.9244 1.90956 43.5342 4.91597C42.2417 6.06456 41.2099 7.46457 40.5052 9.02587C39.8005 10.5872 39.4386 12.2752 39.4427 13.9812C39.4225 15.6943 39.7769 17.3918 40.4824 18.9605C41.1879 20.5292 42.2281 21.933 43.5337 23.078C47.1853 26.2817 52.6624 28.0001 58.5727 28.0001C64.4927 28.0001 70.0867 26.301 73.6502 23.078C74.9172 21.9061 75.9278 20.4959 76.6213 18.9325C77.3148 17.3691 77.6768 15.6849 77.6854 13.9812C77.7029 12.2794 77.3526 10.593 76.6573 9.03223C75.962 7.47143 74.9374 6.07124 73.6502 4.92302C69.8259 1.53752 64.8219 0.000488281 58.5727 0.000488281ZM58.5727 3.64013C61.6631 3.64013 64.6394 4.72526 66.644 6.65077C68.5837 8.51522 69.5973 11.1496 69.5973 13.9686C69.5973 16.9214 68.6751 19.3143 66.6445 21.2868C64.6135 23.2598 61.7055 24.3158 58.5727 24.3158C55.4626 24.3158 52.4926 23.2372 50.488 21.2868C49.5291 20.3158 48.7762 19.1694 48.2727 17.9135C47.7692 16.6576 47.525 15.3169 47.554 13.9686C47.554 11.1623 48.5546 8.51851 50.488 6.65077C52.4926 4.71586 55.4823 3.64013 58.5727 3.64013Z" fill="#0F0F0F"/>
</g>
<defs>
<clipPath id="clip0_8025_5326">
<rect width="163" height="28" fill="white" transform="translate(0.5)"/>
</clipPath>
</defs>
</svg>
