<svg width="161" height="36" viewBox="0 0 161 36" fill="none" xmlns="http://www.w3.org/2000/svg">
<g clip-path="url(#clip0_8025_5405)">
<path d="M111.89 14.5914C112.051 14.1165 112.582 12.1888 112.582 7.37548V5.79898L112.603 4.14665V4.04688H101.673V5.90275H110.407V9.21938C110.407 10.1493 110.288 13.7294 109.723 14.5994H108.636V9.85397H106.547V14.5994H104.969V9.85397H102.876V14.5994H100.198V16.4513H113.959V14.5994H111.886L111.89 14.5914Z" fill="#950022"/>
<path d="M79.2767 3.91162V8.74089H77.8882V3.91162H75.8777V13.1631C74.9754 13.7258 73.3851 13.6899 73.3686 13.6899H70.8101V5.78745H74.1143V4.00741H68.6265V13.8136C68.6429 15.3542 70.1138 15.5178 70.1303 15.5178C70.155 15.5178 71.6217 15.5498 73.1255 15.4819C74.5922 15.4141 75.4203 15.1906 75.8818 14.991V17.3697H77.8923V10.6207H79.2808V17.3697H81.2872V3.91162H79.2808H79.2767Z" fill="#950022"/>
<path d="M36.6387 16.4793H50.4365V14.6235H48.3683C48.5372 14.1006 49.0563 12.125 49.0563 7.47534V5.26425L49.0481 4.14275V4.04297H38.1466V5.90284H46.881V9.30727C46.881 9.35117 46.8521 13.5578 46.2177 14.6235H43.0988V9.81015H41.0017V14.6235H36.6428V16.4793H36.6387Z" fill="#950022"/>
<path d="M142.296 14.8869V12.5281H144.319V10.6762H135.428V9.21148H144.319V4.04297H133.248V5.88687H142.135V7.36359H133.248V11.1831C133.248 11.6501 133.347 11.9813 133.549 12.2048C133.743 12.4204 134.043 12.5281 134.435 12.5281H135.267V14.8869H131.897V16.6909H145.662V14.8869H142.292H142.296ZM137.36 12.5281H140.207V14.8869H137.36V12.5281Z" fill="#950022"/>
<path d="M150.552 12.7598H148.397V15.9726C148.397 16.4556 148.5 16.8068 148.715 17.0383C148.904 17.2578 149.213 17.3735 149.625 17.3735H160.144V15.6054H150.552V12.7598Z" fill="#950022"/>
<path d="M155.76 8.92823C156.176 8.35351 156.39 7.68699 156.39 6.93267C156.39 5.84708 155.97 4.94508 155.142 4.25063C154.363 3.59209 153.44 3.25684 152.39 3.25684C151.339 3.25684 150.387 3.59209 149.613 4.25063C148.797 4.94508 148.381 5.84708 148.381 6.93267C148.381 7.68699 148.591 8.35351 149.007 8.92823H147.549V10.7163H151.5V13.4861H153.651V10.7163H157.231V8.92823H155.756H155.76ZM151.108 5.59963C151.467 5.25639 151.891 5.08877 152.39 5.08877C152.888 5.08877 153.28 5.25639 153.638 5.59963C154.03 5.96681 154.223 6.40584 154.223 6.93267C154.223 7.4595 154.03 7.87857 153.638 8.24974C153.267 8.61692 152.855 8.78854 152.39 8.78854C151.924 8.78854 151.483 8.61692 151.108 8.24974C150.725 7.87857 150.54 7.44752 150.54 6.93267C150.54 6.41781 150.725 5.96681 151.108 5.59963Z" fill="#950022"/>
<path d="M157.993 14.4677H160.152V3.93115H157.993V11.5742H156.024V13.3502H157.993V14.4677Z" fill="#950022"/>
<path d="M117.811 10.9435C118.66 11.6779 119.694 12.0491 120.872 12.0491C122.051 12.0491 123.043 11.6779 123.892 10.9435C124.803 10.1653 125.264 9.1635 125.264 7.97415C125.264 6.78479 124.803 5.75109 123.892 4.97282C123.043 4.23845 122.026 3.86328 120.872 3.86328C119.719 3.86328 118.66 4.23845 117.811 4.97282C116.913 5.75508 116.456 6.76483 116.456 7.97415C116.456 9.18346 116.913 10.1613 117.811 10.9435ZM119.278 6.32581C119.727 5.89876 120.242 5.69122 120.86 5.69122C121.478 5.69122 121.96 5.89876 122.405 6.32581C122.887 6.7808 123.122 7.3196 123.122 7.97415C123.122 8.62869 122.887 9.14355 122.405 9.60253C121.943 10.0495 121.437 10.269 120.86 10.269C120.283 10.269 119.739 10.0495 119.278 9.60253C118.808 9.14355 118.569 8.61273 118.569 7.97415C118.569 7.33556 118.808 6.78479 119.278 6.32581Z" fill="#950022"/>
<path d="M129.05 4.01514H127.056V13.3504C126.759 13.9451 125.091 13.961 125.091 13.961H116.348V15.7291H124.329C126.599 15.7291 126.99 15.3819 127.06 15.2502V17.3735H129.227V4.01514H129.054H129.05Z" fill="#950022"/>
<path d="M94.8088 12.2008H85.1392V14.0048H94.7099V17.3693H96.8729V12.1968H94.8088V12.2008Z" fill="#950022"/>
<path d="M89.0531 11.3269C91.179 11.3269 92.9094 9.73444 92.9094 7.77479C92.9094 7.11226 92.6952 6.48965 92.2997 5.94286H93.6098V4.21869H90.0666V2.88965H87.9572V4.21869H84.3398V5.94286H85.7612C85.3616 6.48965 85.1391 7.11626 85.1391 7.77479C85.1391 9.69852 86.9313 11.3269 89.0531 11.3269ZM89.0531 9.61071C88.0478 9.61071 87.228 8.81648 87.228 7.83865C87.228 6.86082 88.0478 6.06659 89.0531 6.06659C90.0584 6.06659 90.8742 6.86082 90.8742 7.83865C90.8742 8.81648 90.0584 9.61071 89.0531 9.61071Z" fill="#950022"/>
<path d="M96.8605 3.95117H94.6934V11.4106H96.8605V8.69264H98.2984V6.82878H96.8605V3.95117Z" fill="#950022"/>
<path d="M62.9202 3.87549V6.29012H60.5801V8.04622H62.9202V10.0817H60.5801V11.8378H62.9202V13.3145C62.1828 14.0409 60.1763 14.0249 60.1557 14.0249H55.2818V10.5207H59.7067V4.03114H52.9375V5.81917H57.6137V8.66484H53.0817V8.70077H53.0487V14.2125C53.1147 15.6972 54.5402 15.8569 54.5525 15.8609C54.569 15.8609 59.9003 15.8249 59.9003 15.8249C61.5936 15.8249 62.6442 15.5176 62.9202 15.3779V17.3815H65.108V3.87549H62.9202Z" fill="#950022"/>
<path d="M40.8699 25.6792C40.9853 25.7909 41.0965 25.8947 41.2077 25.9905C41.319 26.0863 41.4179 26.1741 41.5126 26.2499C41.6156 26.3377 41.7145 26.4175 41.8093 26.4894L42.0153 26.6291H41.1459C40.6227 26.6291 40.2643 26.4974 40.0706 26.2339L37.6316 23.6078V26.6331H36.5728V20.6982H37.6316V23.524L39.9676 20.6982H41.0182L40.8905 20.822C40.5032 21.2849 40.153 21.704 39.8399 22.0792C39.7081 22.2388 39.5803 22.3945 39.4526 22.5501C39.3249 22.7058 39.2096 22.8415 39.1066 22.9612C39.0036 23.0809 38.917 23.1847 38.8511 23.2645C38.7811 23.3444 38.744 23.3883 38.7399 23.4002C38.7728 23.4401 38.8305 23.5 38.9088 23.5878C38.9871 23.6716 39.0818 23.7714 39.1889 23.8911C39.2919 24.0069 39.4032 24.1306 39.5309 24.2623C39.6545 24.394 39.7822 24.5257 39.9058 24.6574C40.1942 24.9727 40.5156 25.312 40.8699 25.6832" fill="#950022"/>
<path d="M45.0148 25.9624C45.6452 25.9624 46.156 25.7549 46.5392 25.3438C46.9141 24.9407 47.1036 24.4139 47.1036 23.7673C47.1036 23.436 47.0583 23.1327 46.9677 22.8533C46.877 22.5739 46.737 22.3185 46.5516 22.091C46.1478 21.5881 45.6287 21.3407 44.9901 21.3407C44.3515 21.3407 43.82 21.5482 43.4368 21.9593C43.0454 22.3824 42.8477 22.9172 42.8477 23.5637C42.8477 24.2103 43.0454 24.7491 43.4368 25.2161C43.853 25.719 44.3762 25.9664 45.0148 25.9664M45.056 20.5664C45.9706 20.5784 46.7328 20.8857 47.3426 21.4923C47.9359 22.0751 48.2284 22.7775 48.2284 23.5917C48.2284 24.0387 48.1501 24.4498 47.9894 24.821C47.8288 25.1961 47.5898 25.5314 47.2643 25.8307C46.9471 26.134 46.5928 26.3615 46.2096 26.5092C45.8264 26.6569 45.4103 26.7327 44.9695 26.7327C44.0631 26.7327 43.305 26.4453 42.6911 25.8666C42.0484 25.2839 41.7271 24.5376 41.7271 23.6356C41.7271 22.7815 42.0525 22.0591 42.6994 21.4604C43.3297 20.8657 44.1166 20.5664 45.0519 20.5664" fill="#950022"/>
<path d="M52.9744 25.2919C53.1721 25.5393 53.3864 25.7708 53.613 25.9903C53.8396 26.2058 54.062 26.3894 54.2763 26.5331L54.4534 26.6488H53.5841C53.1021 26.6488 52.7313 26.4932 52.4758 26.1859L50.3376 23.4998L50.4488 23.4839C51.45 23.3482 51.9567 22.9491 51.965 22.2945C51.965 22.0151 51.862 21.7996 51.656 21.6599C51.6148 21.632 51.5612 21.6041 51.487 21.5761C51.4129 21.5482 51.3181 21.5242 51.1986 21.5003C51.075 21.4803 50.9226 21.4604 50.7454 21.4524C50.5683 21.4404 50.3582 21.4364 50.1068 21.4364V25.3358C50.1068 25.695 50.1068 25.9584 50.1068 26.134C50.1068 26.3056 50.1151 26.4453 50.1274 26.5451V26.6369H49.0356V20.7061H51.075C51.6848 20.7061 52.1627 20.8457 52.517 21.1291C52.8508 21.4045 53.0197 21.7597 53.0197 22.1947C53.0197 22.5819 52.8672 22.9291 52.5582 23.2444C52.414 23.3881 52.2616 23.4998 52.1009 23.5797C51.9402 23.6595 51.8043 23.7194 51.6972 23.7593C51.7301 23.7992 51.7754 23.8511 51.8249 23.9149C51.8743 23.9828 51.9361 24.0546 52.002 24.1304C52.0638 24.2143 52.1339 24.2981 52.208 24.3859C52.2822 24.4737 52.3564 24.5615 52.4305 24.6493C52.5953 24.8528 52.7725 25.0724 52.9661 25.2998" fill="#950022"/>
<path d="M55.9655 25.8069H58.8413V26.6331H54.8984V20.6982H58.4581V21.4925H55.9655V23.0291H57.9266V23.8153H55.9655V25.8069Z" fill="#950022"/>
<path d="M63.3444 23.6394C63.3321 23.6195 63.3074 23.5596 63.2703 23.4638C63.2332 23.368 63.1879 23.2523 63.1384 23.1206C63.089 22.9928 63.0313 22.8571 62.9736 22.7055C62.9118 22.5578 62.8583 22.4141 62.8088 22.2744C62.7512 22.1427 62.7017 22.023 62.6605 21.9152C62.6193 21.8075 62.5905 21.7316 62.5699 21.6877C62.5534 21.7316 62.5246 21.8075 62.4792 21.9112C62.438 22.015 62.3886 22.1348 62.3309 22.2665C62.2732 22.4022 62.2156 22.5498 62.1579 22.7015C62.0961 22.8532 62.0425 22.9928 61.9931 23.1206C61.9354 23.2523 61.8901 23.364 61.853 23.4598C61.8159 23.5516 61.7912 23.6155 61.7788 23.6394H63.3486H63.3444ZM63.2167 20.666L65.7176 26.6328H64.5392C64.3868 26.2376 64.2467 25.8784 64.119 25.5591C64.0696 25.4274 64.016 25.2957 63.9666 25.164C63.9171 25.0323 63.8677 24.9126 63.8306 24.8088C63.7853 24.705 63.7482 24.6172 63.7235 24.5494C63.6988 24.4815 63.6864 24.4416 63.6864 24.4297H61.4781C61.4781 24.4297 61.4575 24.4815 61.4328 24.5494C61.408 24.6172 61.3751 24.705 61.3339 24.8088C61.2927 24.9126 61.2515 25.0323 61.202 25.164C61.1526 25.2957 61.1032 25.4274 61.0537 25.5591C60.9342 25.8784 60.7983 26.2376 60.6458 26.6328H59.6982L62.1991 20.666H63.2208H63.2167Z" fill="#950022"/>
<path d="M73.6237 20.6899V24.3498C73.6237 24.7848 73.6073 25.0922 73.5743 25.2758C73.5084 25.611 73.3642 25.8984 73.1499 26.1338C72.7462 26.5569 72.1776 26.7684 71.4443 26.7684H70.9334C70.2 26.7684 69.6315 26.5569 69.2277 26.1338C69.0093 25.8984 68.8693 25.611 68.8034 25.2758C68.7704 25.0922 68.7539 24.7848 68.7539 24.3498V20.6899H69.821C69.8169 21.3684 69.8127 21.9751 69.8127 22.5179V24.3538C69.8127 25.4713 70.2783 26.0301 71.2012 26.0301H71.1847C71.5308 26.0301 71.8151 25.9942 72.0293 25.9183C72.2435 25.8425 72.4125 25.7347 72.5319 25.5911C72.6514 25.4514 72.7297 25.2797 72.7709 25.0722C72.8121 24.8647 72.8286 24.6212 72.8286 24.3538V20.6939H73.632L73.6237 20.6899Z" fill="#950022"/>
<path d="M79.7626 20.6899H79.8327V26.6407L78.9551 26.6327L75.3625 22.1946V26.6327H74.5591V20.6899H75.482L79.021 25.0522V20.6899H79.7626Z" fill="#950022"/>
<path d="M81.9998 20.6982H80.9409V26.6331H81.9998V20.6982Z" fill="#950022"/>
<path d="M88.5217 20.6982L86.1486 26.6331H85.1845L82.8896 20.6982H84.1009C84.4017 21.5045 84.6736 22.2348 84.9208 22.8974C85.0238 23.1767 85.1268 23.4561 85.2298 23.7315C85.3328 24.0069 85.4276 24.2583 85.51 24.4818C85.5965 24.7093 85.6665 24.8969 85.7242 25.0526C85.7819 25.2082 85.819 25.304 85.8354 25.3399C85.8519 25.3 85.889 25.2042 85.9467 25.0526C86.0044 24.8969 86.0744 24.7093 86.1609 24.4818C86.2474 24.2543 86.3381 24.0069 86.4411 23.7315C86.5441 23.4561 86.6471 23.1767 86.7583 22.8974C87.0096 22.2348 87.2857 21.5045 87.5947 20.6982H88.5258H88.5217Z" fill="#950022"/>
<path d="M90.3141 25.8069H93.1899V26.6331H89.2471V20.6982H92.8067V21.4925H90.3141V23.0291H92.2753V23.8153H90.3141V25.8069Z" fill="#950022"/>
<path d="M98.0593 25.2919C98.2571 25.5393 98.4713 25.7708 98.6979 25.9903C98.9245 26.2058 99.147 26.3894 99.3612 26.5331L99.5384 26.6488H98.6691C98.187 26.6488 97.8162 26.4932 97.5608 26.1859L95.4225 23.4998L95.5338 23.4839C96.5349 23.3482 97.0417 22.9491 97.0499 22.2945C97.0499 22.0151 96.9469 21.7996 96.7409 21.6599C96.6997 21.632 96.6462 21.6041 96.572 21.5761C96.4978 21.5482 96.4031 21.5242 96.2836 21.5003C96.16 21.4803 96.0076 21.4604 95.8304 21.4524C95.6532 21.4404 95.4431 21.4364 95.1918 21.4364V25.3358C95.1918 25.695 95.1918 25.9584 95.1918 26.134C95.1918 26.3056 95.2 26.4453 95.2124 26.5451V26.6369H94.1206V20.7061H96.16C96.7698 20.7061 97.2477 20.8457 97.602 21.1291C97.9357 21.4045 98.1046 21.7597 98.1046 22.1947C98.1046 22.5819 97.9522 22.9291 97.6432 23.2444C97.499 23.3881 97.3466 23.4998 97.1859 23.5797C97.0252 23.6595 96.8892 23.7194 96.7821 23.7593C96.8151 23.7992 96.8604 23.8511 96.9098 23.9149C96.9593 23.9828 97.0211 24.0546 97.087 24.1304C97.1488 24.2143 97.2188 24.2981 97.293 24.3859C97.3672 24.4737 97.4413 24.5615 97.5155 24.6493C97.6803 24.8528 97.8574 25.0724 98.0511 25.2998" fill="#950022"/>
<path d="M103.918 24.8607C103.918 25.3995 103.7 25.8425 103.271 26.1897C103.045 26.3654 102.777 26.501 102.464 26.5889C102.155 26.6807 101.813 26.7246 101.434 26.7246C100.841 26.7246 100.297 26.6367 99.7982 26.4611L99.584 26.3773L99.6005 25.4195L99.7199 25.4873C100.272 25.7906 100.878 25.9463 101.537 25.9583C101.825 25.9583 102.093 25.8864 102.34 25.7427C102.625 25.5871 102.765 25.3795 102.765 25.1161C102.765 24.7729 102.509 24.4736 101.998 24.2141C101.698 24.0665 101.45 23.9427 101.257 23.8509C101.063 23.7591 100.911 23.6833 100.795 23.6274C100.68 23.5795 100.577 23.5316 100.478 23.4957C99.9218 23.1485 99.6417 22.7015 99.6417 22.1507C99.6417 21.5999 99.893 21.2088 100.4 20.9294C100.816 20.694 101.339 20.5742 101.978 20.5742C102.46 20.5742 102.917 20.6381 103.341 20.7738L103.383 20.7818V21.8234L103.28 21.7396C103.14 21.6359 102.942 21.5481 102.695 21.4802C102.447 21.4124 102.188 21.3724 101.924 21.3685C101.595 21.3525 101.339 21.4004 101.158 21.5081C100.919 21.6199 100.799 21.8035 100.799 22.0629C100.799 22.3702 101.055 22.6536 101.566 22.905C101.735 22.9928 101.912 23.0806 102.089 23.1645C102.266 23.2483 102.431 23.3241 102.579 23.392C102.723 23.4638 102.888 23.5396 103.074 23.6234C103.63 23.9667 103.91 24.3778 103.91 24.8647" fill="#950022"/>
<path d="M105.958 20.6982H104.899V26.6331H105.958V20.6982Z" fill="#950022"/>
<path d="M106.979 20.6982H111.491V21.4845H110.358C110.255 21.4845 110.16 21.4845 110.078 21.4765H109.752V22.3346C109.748 22.5821 109.744 22.8574 109.744 23.1648V26.6331H108.685V21.4765H106.979V20.6982Z" fill="#950022"/>
<path d="M116.669 20.6982H117.691C117.267 21.3169 116.884 21.8676 116.55 22.3586C116.41 22.5701 116.27 22.7736 116.134 22.9732C115.998 23.1727 115.874 23.3523 115.767 23.508C115.66 23.6676 115.569 23.7954 115.503 23.8911C115.433 23.9869 115.4 24.0388 115.4 24.0428V26.6291H114.333V24.0428C114.333 24.0428 114.3 23.9869 114.235 23.8911C114.169 23.7954 114.086 23.6676 113.983 23.508C113.876 23.3523 113.757 23.1767 113.625 22.9732C113.493 22.7736 113.361 22.5661 113.225 22.3586C112.908 21.8676 112.541 21.3129 112.133 20.6982H113.353C113.637 21.1373 113.897 21.5364 114.127 21.8876C114.226 22.0353 114.321 22.1869 114.416 22.3346C114.515 22.4823 114.605 22.614 114.688 22.7297C114.766 22.8495 114.832 22.9532 114.89 23.037C114.943 23.1209 114.976 23.1727 114.988 23.1927L116.669 20.6982Z" fill="#950022"/>
<path d="M126.607 21.8236L124.679 26.6329H124.192L122.079 21.8475L121.44 26.6329H120.567L121.465 20.6821H122.66L124.51 24.8608L126.215 20.6821H127.427L128.28 26.6329H127.196L126.607 21.8236Z" fill="#950022"/>
<path d="M129.944 25.8069H132.816V26.6331H128.877V20.6982H132.433V21.4925H129.944V23.0291H131.905V23.8153H129.944V25.8069Z" fill="#950022"/>
<path d="M137.15 25.3436C137.406 25.152 137.595 24.9006 137.723 24.5893C137.851 24.278 137.912 23.9467 137.912 23.5955C137.912 23.2802 137.859 22.9928 137.756 22.7294C137.649 22.466 137.5 22.2345 137.299 22.0429C136.895 21.6638 136.314 21.4722 135.56 21.4722H134.802V25.8784H135.399C136.12 25.8784 136.705 25.7028 137.158 25.3476M138.147 21.4762C138.769 21.999 139.078 22.7095 139.078 23.6075C139.078 24.5055 138.753 25.2279 138.106 25.7906C137.459 26.3534 136.619 26.6327 135.589 26.6327H133.755V20.6899H135.638C136.689 20.6899 137.525 20.9534 138.147 21.4762Z" fill="#950022"/>
<path d="M141.117 20.6982H140.059V26.6331H141.117V20.6982Z" fill="#950022"/>
<path d="M147.368 26.3413C147.31 26.3692 147.232 26.4051 147.125 26.449C147.017 26.4929 146.894 26.5368 146.745 26.5807C146.593 26.6207 146.416 26.6526 146.222 26.6845C146.029 26.7164 145.81 26.7284 145.58 26.7284C144.492 26.7284 143.647 26.453 143.038 25.9023C142.411 25.3595 142.098 24.6211 142.098 23.6872C142.098 22.7533 142.395 22.0668 142.992 21.508C143.289 21.2207 143.635 20.9972 144.039 20.8375C144.438 20.6779 144.887 20.5861 145.382 20.5581C145.683 20.5422 145.95 20.5502 146.181 20.5861C146.412 20.622 146.605 20.6619 146.766 20.7058C146.951 20.7657 147.116 20.8335 147.252 20.9054V21.9031C147.12 21.8193 146.993 21.7475 146.869 21.6796C146.745 21.6118 146.614 21.5559 146.478 21.508C146.338 21.4601 146.185 21.4202 146.02 21.3963C145.86 21.3723 145.678 21.3604 145.481 21.3683C145.122 21.3803 144.805 21.4521 144.525 21.5839C144.245 21.7156 144.01 21.8792 143.816 22.0708C143.441 22.4499 143.256 22.9448 143.256 23.5595C143.256 24.1741 143.454 24.7408 143.853 25.1878C144.068 25.4233 144.306 25.5989 144.57 25.7107C144.83 25.8224 145.126 25.8863 145.456 25.8943C145.711 25.9062 145.946 25.8943 146.156 25.8623C146.366 25.8304 146.556 25.7865 146.721 25.7386C146.881 25.6907 147.013 25.6349 147.12 25.579C147.228 25.5231 147.314 25.4712 147.376 25.4353V26.3453L147.368 26.3413Z" fill="#950022"/>
<path d="M149.407 20.6982H148.348V26.6331H149.407V20.6982Z" fill="#950022"/>
<path d="M155.719 20.6899H155.785V26.6407L154.907 26.6327L151.319 22.1946V26.6327H150.515V20.6899H151.438L154.977 25.0522V20.6899H155.719Z" fill="#950022"/>
<path d="M157.791 25.8069H160.667V26.6331H156.724V20.6982H160.284V21.4925H157.791V23.0291H159.752V23.8153H157.791V25.8069Z" fill="#950022"/>
<path d="M14.6049 36C25.1645 31.4182 28.3163 26.2098 28.3163 18.0639V0H0.666992V18.0678C0.666992 26.2137 3.82291 31.4222 14.3825 36.004H14.6049V36Z" fill="#C69A58"/>
<path d="M14.5968 35.162C24.5342 30.8475 27.5541 25.9504 27.5541 18.2835V0.730469H1.50342V18.2795C1.50342 25.9464 4.44921 30.8475 14.3866 35.158H14.5968V35.162Z" fill="#970022"/>
<path d="M9.01007 26.0141C9.21607 26.3214 9.61983 26.7565 10.1348 26.9121C10.5056 27.0239 10.8723 26.968 11.2101 26.7804C11.3255 26.8682 11.445 26.98 11.548 27.1197C11.4079 27.1755 11.2884 27.2713 11.2555 27.419C11.2266 27.5308 11.2143 27.6385 11.2143 27.7463C11.2143 28.1454 11.4203 28.4926 11.8199 28.8199C11.8281 28.8518 11.8323 28.8877 11.8323 28.8877C11.8529 29.0474 11.8776 29.2509 11.9971 29.4265C12.0341 29.4864 12.0959 29.5702 12.1783 29.6421C12.2401 29.8696 12.4173 30.145 12.9035 30.3006C13.0394 30.3844 13.2042 30.4523 13.369 30.5201L13.5956 30.6119L13.5215 30.552C13.5709 30.596 13.6739 30.6718 13.7357 30.6877C14.0241 30.7795 14.3825 30.7676 14.4855 30.7596C14.502 30.7596 14.5185 30.7596 14.535 30.7556C15.0788 30.6877 15.4826 30.3525 15.8369 29.9733C15.9646 29.8376 16.1129 29.67 16.1583 29.4904C16.2077 29.2948 16.1789 29.0913 16.1789 28.8957C16.1789 28.6523 16.1789 28.4208 16.2036 28.1813C16.2242 27.9977 16.2571 27.8341 16.4467 27.7463C16.6856 27.6345 16.904 27.7423 17.1223 27.8381C17.2253 27.882 17.3325 27.9299 17.4396 27.9658C17.5632 28.0097 17.6662 28.0057 17.7527 28.1095C17.8104 28.1773 17.8681 28.1973 17.9546 28.2053C18.0864 28.2172 18.1153 28.2292 18.21 28.325C18.3048 28.4208 18.4078 28.4846 18.5273 28.5565C18.655 28.6323 18.7827 28.7081 18.9351 28.7441C19.0299 28.764 19.1576 28.7441 19.24 28.6962C19.3224 28.6483 19.343 28.5645 19.4089 28.5006C19.4913 28.4168 19.6067 28.3809 19.7056 28.325C19.7715 28.2851 19.8498 28.2731 19.9075 28.2252C19.9775 28.1653 19.9816 28.0855 20.0187 28.0097C20.1052 27.8421 20.3277 27.882 20.4307 27.7183C20.5255 27.5667 20.4843 27.3432 20.3689 27.2155C20.2947 27.1316 20.1959 27.0758 20.1217 26.992C20.0805 26.9441 20.0269 26.9121 20.0022 26.8563C19.9734 26.7964 19.9857 26.7325 19.9487 26.6767C19.8827 26.5769 19.7385 26.509 19.6932 26.3893C19.5779 26.082 19.7015 25.6988 19.5655 25.3995C19.5037 25.2678 19.4007 25.2398 19.4337 25.0722C19.479 24.8527 19.4707 24.5933 19.5861 24.3897C19.7179 24.1543 19.9775 24.717 20.0269 24.7769C20.1341 24.8966 20.2453 25.0283 20.3689 25.1321C20.5172 25.2558 20.6573 25.3396 20.8592 25.3316C21.0157 25.3316 21.1435 25.3037 21.23 25.164C21.3577 24.9565 21.1764 24.7809 21.1064 24.5893C21.0199 24.3418 20.9169 24.0984 20.8715 23.835C20.8386 23.6434 20.7891 23.4478 20.9127 23.2682C20.9622 23.1964 21.0652 23.2124 21.1229 23.1445C21.1805 23.0767 21.1805 22.9569 21.3 22.945C21.3989 22.937 21.4731 23.0447 21.5555 23.0767C21.7203 23.1445 21.848 23.0687 21.9221 22.925C21.9427 22.8811 21.9386 22.8132 21.9716 22.7773C22.0045 22.7414 22.0869 22.7254 22.1322 22.7055C22.2764 22.6297 22.33 22.4341 22.2764 22.2904C22.2146 22.1268 22.0416 22.039 21.951 21.8993C21.885 21.7955 21.9262 21.6997 21.9345 21.58C21.9468 21.4323 21.951 21.2687 21.9098 21.125C21.8851 21.0412 21.8438 20.9773 21.7862 20.9095C21.712 20.8137 21.7326 20.7977 21.7532 20.674C21.7656 20.6061 21.7408 20.4305 21.7862 20.3787C21.8438 20.3148 22.0045 20.4465 22.0787 20.4704C22.2641 20.5263 22.5236 20.5583 22.7132 20.5064C22.8409 20.4744 22.9562 20.4265 23.018 20.3068C23.1458 20.0673 22.9686 19.8319 22.7708 19.6962C22.6472 19.6124 22.6926 19.5605 22.8326 19.5285C23.018 19.4846 23.187 19.4966 23.3641 19.4008C23.5001 19.329 23.5701 19.2452 23.5948 19.0935C23.6113 19.0017 23.6113 18.9458 23.6855 18.886C23.8874 18.7263 24.2334 18.7423 24.1181 18.3911C24.0604 18.2155 23.8091 18.0319 23.8791 17.8323C23.9368 17.6687 24.1758 17.5769 24.1346 17.3773C24.0728 17.082 23.7267 17.0221 23.4836 16.9702C23.2446 16.9223 22.9892 16.8625 22.7502 16.8026C22.7502 16.8026 22.503 16.7387 22.4948 16.7348C22.4907 16.7348 22.2888 16.631 22.2888 16.631L21.9221 16.4594C21.9221 16.4594 21.3577 16.2957 21.3371 16.2917C21.3371 16.2917 21.3289 16.2877 21.3247 16.2838C21.3083 16.2758 21.2877 16.2638 21.2877 16.2638L21.1187 16.172L20.7273 16.0483L20.4225 15.9525L20.3895 15.9365L20.2783 15.8846L20.1093 15.8208L20.0311 15.7928C19.4584 15.5933 18.9269 15.5135 18.3995 15.5454C18.4037 15.5454 18.2224 15.5454 18.2224 15.5454C18.0164 15.5454 17.7362 15.5374 17.3943 15.6332L17.0729 15.7609L16.9493 15.8168L16.8999 15.8328L16.665 15.9086L16.5455 15.9605L16.389 16.0203C16.2242 16.0563 15.9811 16.0523 15.7463 16.0443C15.4949 16.0403 15.2354 16.0323 14.9882 16.0762C14.6792 16.1241 14.4526 16.2518 14.2713 16.3556L14.0076 16.4873L13.9705 16.4953L13.7728 16.5432L13.7275 16.5551L13.472 16.6509C13.4926 16.639 13.3278 16.7068 13.3278 16.7068L13.1671 16.7667L12.9817 16.8665L12.9199 16.9024L12.6851 17.0421L12.6398 17.074L12.5739 17.1219C12.5739 17.1219 12.5533 17.1339 12.5409 17.1498C12.5409 17.1498 12.3349 17.3374 12.3184 17.3534C12.2896 17.3853 12.1866 17.509 12.1866 17.509L12.1413 17.5689C12.0012 17.7285 11.7911 17.9161 11.6427 18.0239C11.5768 18.0598 11.4203 18.1476 11.4203 18.1476L11.3214 18.2234L11.239 18.2873L10.9259 18.4629L10.7858 18.5347C10.7858 18.5347 10.7652 18.5467 10.7528 18.5547L10.6375 18.6305L10.4273 18.7902L10.3408 18.854L10.0854 19.0935L10.0442 19.1414L9.80523 19.4527L9.77639 19.5006C9.61159 19.7321 9.52507 20.0075 9.43855 20.2749L9.31907 20.6141C9.28611 20.674 9.07599 20.9614 9.01007 21.0212C9.01007 21.0212 9.03067 21.0093 9.04715 21.0013C9.01419 21.0212 8.98535 21.0372 8.96887 21.0492C8.96887 21.0492 8.90707 21.105 8.91119 21.101C8.91119 21.101 8.82055 21.1889 8.81643 21.1968L8.75051 21.2447L8.47447 21.5081L8.34675 21.7197L8.30143 21.8035L8.19843 21.9512L7.96771 22.3064C7.96771 22.3064 7.93063 22.3862 7.91003 22.4381C7.88531 22.474 7.83587 22.5618 7.76995 22.7454C7.76171 22.7534 7.68755 22.8332 7.68755 22.8332C7.65047 22.8691 7.40327 23.1006 7.37031 23.2602C7.37031 23.2602 6.51335 23.1685 5.85827 22.8412C5.20731 22.5179 5.55339 23.0367 5.74291 23.1964C5.92419 23.3481 6.14667 23.5157 6.72347 23.6713C6.72347 23.6713 6.30735 23.6274 5.66051 23.372C5.01779 23.1206 5.54515 23.6434 5.71819 23.7591C5.88711 23.8669 6.10547 23.9667 6.39387 24.0186C6.39387 24.0186 5.43803 23.9667 4.84887 23.7751C4.26383 23.5835 4.56459 23.9268 4.73351 24.0385C5.03427 24.2381 5.72231 24.3259 5.72231 24.3259C5.72231 24.3259 5.52867 24.3458 4.98071 24.2261C4.44511 24.1104 5.03427 24.5254 5.49983 24.5853C5.49983 24.5853 5.16611 24.6731 4.91067 24.709C4.65523 24.7489 4.94363 24.8727 5.28147 24.8727C5.50395 24.8727 6.02307 24.8168 6.13843 24.7809C6.13843 24.7809 6.49687 24.8487 6.84707 24.8687L6.62871 24.9964C6.62871 24.9964 5.43803 25.1281 5.20731 25.1321C4.97247 25.1321 4.94363 25.3556 5.37211 25.3875C5.67699 25.4075 5.86239 25.4035 6.02719 25.3875C6.02719 25.3875 5.63991 25.611 5.45039 25.7068C5.22791 25.8186 5.29795 25.9622 5.73879 25.8585C6.17551 25.7547 6.69051 25.5631 6.93771 25.4514C6.93771 25.4514 7.42387 25.4314 7.64635 25.3636C7.64635 25.3636 7.36619 25.7986 7.06131 26.0301C6.83883 26.1977 7.06955 26.2456 7.34147 26.1738C7.61339 26.1059 8.02127 25.9024 8.24787 25.5192C8.24787 25.5192 8.36323 25.5512 8.47035 25.5512C8.47035 25.5512 8.57747 25.8665 9.01831 26.0101" fill="#D2AD78"/>
<path d="M19.722 18.009C19.722 18.009 19.722 17.9964 19.7263 17.9922C19.722 18.009 19.7177 18.009 19.722 18.009Z" fill="#750013"/>
<path d="M18.4487 18.4951C18.4487 18.4951 18.6093 18.5629 18.7535 18.527C18.8524 18.503 19.0419 18.4192 19.1367 18.4033C19.1944 18.3873 19.2727 18.4192 19.3303 18.4033C19.4869 18.3554 19.7753 18.06 19.4333 18.0281C19.3097 18.0161 18.9348 18.1518 18.8195 18.1837C18.7041 18.2117 18.6299 18.2316 18.5352 18.2795C18.5063 18.2915 18.3745 18.3993 18.3951 18.3793C18.3951 18.3793 18.3045 18.4512 18.4528 18.4911" fill="#750013"/>
<path d="M14.1973 21.7955C14.2302 21.7516 14.2838 21.7796 14.325 21.7955C14.3662 21.8075 14.3662 21.8794 14.3868 21.9153C14.3991 21.9432 14.4733 22.019 14.4815 22.043C14.5433 22.3144 14.4815 22.6736 14.3579 22.8811C14.3209 22.945 14.2632 22.9809 14.2179 22.9809C14.1643 22.9849 14.1478 22.9131 14.1313 22.8811C14.0489 22.7694 14.1107 22.5099 14.1313 22.3862C14.1519 22.2266 14.0242 21.9751 14.1066 21.8594L14.1973 21.7915V21.7955Z" fill="#750013"/>
<path d="M10.349 22.0827C10.4149 22.0628 10.5138 22.0987 10.555 22.0827L10.6456 22.0508C10.7527 21.983 10.8599 22.0029 10.967 22.0109C11.0205 22.0189 11.1853 22.0827 11.2348 22.0867C11.3213 22.0947 11.7251 22.1386 12.1535 22.1985C12.1535 22.1985 12.3801 22.1705 12.3266 22.1067C12.3595 22.1466 12.3225 22.0748 12.2318 22.0428L12.1989 22.0109C12.1989 22.0109 12.1247 21.947 12.2648 21.9031C12.2153 21.9191 12.3554 21.8832 12.3801 21.8513C12.4378 21.7954 12.3554 21.7355 12.3554 21.7355C12.1494 21.6677 11.9228 21.7954 11.6179 21.7634C11.4696 21.7515 11.2554 21.6677 11.0453 21.6996C10.8104 21.7395 10.4726 21.8672 10.3119 21.9909C10.3119 21.9909 10.2336 22.1187 10.3449 22.0867" fill="#750013"/>
<path d="M12.9199 20.4707C13.13 20.4587 13.1383 20.6703 13.1424 20.6463C13.1177 20.794 12.7427 20.81 12.6521 20.9257C12.3843 21.2609 12.4997 21.5802 11.8734 21.6122C11.8734 21.6122 11.7498 21.5842 11.7951 21.5363C11.8322 21.4924 11.9847 21.4565 12.0423 21.4246C12.1247 21.3767 12.1165 21.253 12.1701 21.1731C12.1824 21.1532 12.2525 21.1332 12.2689 21.1133C12.442 20.8858 12.4667 20.6543 12.7716 20.5146C12.7839 20.5106 12.8952 20.4787 12.9199 20.4707Z" fill="#750013"/>
<path d="M14.9182 19.5727C14.9882 19.5328 15.0624 19.5727 15.1077 19.6126C15.1365 19.6326 15.3631 20.1594 15.3755 20.2153C15.4002 20.4068 15.4249 20.8498 15.3714 20.9935C15.2931 21.1931 15.1077 21.3447 15.1448 21.696C15.1695 21.9035 15.2643 22.0671 15.3508 22.2467C15.3631 22.2747 15.4579 22.4503 15.462 22.4902C15.4991 22.6818 15.392 22.9252 15.3755 23.0809C15.3261 23.46 15.4826 23.8113 15.4208 24.1745C15.392 24.3301 15.3425 24.4099 15.2519 24.5057L15.1819 24.5656C15.1613 24.6015 15.1283 24.6175 15.0912 24.6414L15.0459 24.6853C14.9841 24.7013 14.9717 24.7372 14.947 24.7412C14.7781 24.7771 14.7451 24.6813 14.7575 24.7053C14.5845 24.2383 14.8729 23.6915 14.7245 23.2405C14.6916 23.1368 14.5639 23.033 14.5474 22.9252C14.4897 22.5181 14.877 22.3066 14.8729 22.0352C14.8729 21.8396 14.6092 21.5882 14.5515 21.3966C14.4732 21.1731 14.4279 20.7461 14.5268 20.4627C14.5515 20.3949 14.6421 20.2791 14.6669 20.1913C14.7163 20.0157 14.7905 19.872 14.8152 19.7563C14.8234 19.7204 14.8481 19.6685 14.8687 19.6365C14.8687 19.6246 14.9058 19.5807 14.9223 19.5767" fill="#750013"/>
<path d="M19.9075 18.6067C20.1877 18.5708 20.3154 18.6825 20.1836 18.918L20.13 18.9699C20.1053 18.9779 20.0311 19.0737 20.0147 19.0856C19.8787 19.1814 19.751 19.2453 19.6439 19.369C19.6068 19.4089 19.5821 19.5167 19.5367 19.5526C19.4626 19.6045 19.1948 19.7202 19.1206 19.7282C18.7828 19.7801 18.3214 19.4528 18.2678 19.2612C18.2266 19.0976 18.2678 18.938 18.342 18.902C18.4532 18.8462 18.7622 18.8741 18.8652 18.8661C19.1247 18.8462 19.2895 18.8621 19.4914 18.7943C19.6109 18.7544 19.7551 18.6346 19.9034 18.6187" fill="#750013"/>
<path d="M15.989 19.0575C15.8901 19.0416 15.8901 18.8779 15.6388 18.9338C15.4575 18.9697 15.4122 19.2212 15.1527 19.2132L15.0249 19.1533C14.9137 19.1254 14.8313 19.1653 14.7365 19.1174C14.2833 18.9139 15.0867 17.8602 15.3463 17.8762C15.3587 17.8762 15.4946 17.924 15.507 17.94C15.5935 18.0079 15.5935 18.2992 15.6677 18.407C15.7253 18.4788 15.816 18.4748 15.8943 18.5307C15.9767 18.5906 16.1332 18.7981 16.1538 18.9059C16.1538 18.9059 16.1991 19.0855 15.9931 19.0615" fill="#750013"/>
<path d="M12.0092 20.7738C11.828 20.8137 11.8115 20.4426 11.383 20.5863C11.3583 20.5942 11.2347 20.702 11.2264 20.722C11.177 20.8297 11.2058 21.1131 11.1482 21.145C11.1482 21.145 10.9792 21.1849 11.0122 20.9774C11.0616 20.6501 11.1276 20.5902 11.3006 20.4506C11.3212 20.4306 11.3912 20.3867 11.4201 20.3787C11.622 20.3308 12.001 20.4067 12.0669 20.5064C12.1246 20.5902 12.001 20.7738 12.0092 20.7738ZM14.0445 19.1335C13.8715 19.2293 13.4883 19.3769 13.4059 19.5406C13.3606 19.6284 13.3606 19.7002 13.3276 19.804C13.3235 19.816 13.2741 19.8319 13.2617 19.8678C13.0763 19.8678 12.9115 19.8559 12.7508 19.8998C12.6231 19.9357 12.4418 20.0674 12.3018 20.0874C12.0134 20.1353 11.795 20.0115 11.5272 20.0554C11.4077 20.0754 11.3294 20.1951 11.2347 20.243C11.1482 20.2829 11.1152 20.2829 11.0493 20.3388L10.9916 20.4067C10.9834 20.4306 10.9545 20.4945 10.9339 20.5224C10.8762 20.6062 10.8515 20.694 10.8392 20.7818C10.8268 20.8736 10.7732 21.0812 10.7238 21.169C10.6991 21.2129 10.5796 21.3086 10.5631 21.3446C10.5549 21.3725 10.526 21.4004 10.5631 21.4404C10.5219 21.3965 10.5302 21.4843 10.7609 21.4962C11.0163 21.4962 11.5684 21.3366 11.5684 21.3366L11.8362 21.1969C11.8898 21.157 12.0958 21.0053 12.1411 20.9534C12.3347 20.722 12.8538 19.8718 13.2576 20.0914L13.3318 20.1432C13.4265 20.2989 13.307 20.7459 13.2329 20.8457L13.1422 20.9534C13.0722 20.9774 13.0228 21.161 13.0104 21.2408C12.9939 21.3765 13.0351 21.4962 13.0434 21.5721C13.064 21.7317 13.0804 21.9353 12.9774 22.1348C12.9568 22.1707 12.895 22.2426 12.9115 22.3463C12.928 22.4701 13.1093 22.5579 13.134 22.6577C13.1505 22.7095 13.1958 22.7175 13.134 22.8133C13.101 22.8652 12.9527 22.953 12.9115 23.0009C12.8538 23.0608 12.9033 23.1486 12.9404 23.1845C13.0516 23.2843 13.1422 23.2962 13.2288 23.408C13.3524 23.5596 13.3441 23.6914 13.616 23.7193C13.8303 23.7392 14.131 23.7472 13.9992 23.4679L13.9333 23.3641C13.8591 23.1805 13.7273 23.0169 13.7108 22.8173C13.6861 22.5619 13.8962 22.4302 13.8097 22.2266C13.7396 22.067 13.4183 22.0869 13.3894 21.8794C13.373 21.7636 13.4966 21.5242 13.5213 21.4124C13.5419 21.2608 13.5048 21.169 13.5542 21.0373C13.5872 20.9494 13.7273 20.8417 13.7438 20.7299C13.7726 20.5224 13.6078 20.3947 13.682 20.1672C13.719 20.0514 13.9044 20.0634 13.9704 19.9796C14.061 19.8639 14.0116 19.7082 14.0651 19.5446C14.0734 19.5286 14.1187 19.4328 14.1269 19.4129C14.1228 19.4049 14.164 19.2053 14.164 19.2053C14.1393 19.0816 14.0569 19.1295 14.0486 19.1255" fill="#750013"/>
<path d="M7.12693 25.0883C7.29997 24.9925 7.46065 24.8808 7.61721 24.773C7.68725 24.8528 7.76553 24.9287 7.85205 25.0005C7.76553 25.0245 7.48125 25.0564 7.12693 25.0883ZM6.43477 24.5256C6.76849 24.4378 7.06101 24.342 7.18873 24.2741C7.22993 24.2741 7.27525 24.2741 7.32057 24.2701C7.34117 24.354 7.37413 24.4418 7.42769 24.5296C7.44005 24.5455 7.45241 24.5655 7.46065 24.5775C7.25877 24.5814 6.85089 24.5575 6.43889 24.5256M9.65249 25.695C9.90793 25.6351 9.98209 25.699 10.1016 25.9783C10.1922 26.142 10.3817 26.3655 10.4518 26.4653C10.1592 26.5012 9.69781 26.114 9.56597 25.9025C9.48357 25.7987 9.60717 25.7189 9.65249 25.695ZM10.2252 24.8049C10.2252 24.8049 10.2128 24.8129 10.2293 24.8049H10.2252C10.2746 24.785 10.4806 24.6892 10.5342 24.6693C10.7525 24.5934 10.872 24.7092 11.0739 24.5974C11.1233 24.5695 11.1769 24.4936 11.2181 24.4577C11.2552 24.4258 11.3252 24.4298 11.3705 24.3979C11.4818 24.322 11.6919 24.0905 11.832 24.0666C11.9144 24.0546 11.9144 24.0706 11.9556 24.0786C11.9556 24.0865 12.0174 24.0666 12.0009 24.1863C11.9638 24.4138 12.5241 24.1823 12.8867 24.2661C13.138 24.322 13.3811 24.4058 13.3152 24.5615C13.3234 24.5415 13.241 24.6094 13.2245 24.6214C13.0556 24.7411 12.9196 24.6094 12.8331 24.5974C12.6807 24.5814 12.5736 24.6253 12.4211 24.6094C12.4211 24.6054 12.2357 24.5495 12.2357 24.5495C12.1162 24.5415 11.9514 24.6014 11.8608 24.6094C11.6919 24.6214 11.6095 24.5655 11.457 24.5775C11.387 24.5854 11.2634 24.6812 11.2098 24.6972C11.1604 24.7132 11.1027 24.7331 11.0533 24.7451C11.0203 24.7531 10.942 24.797 10.9008 24.8129C10.7443 24.8848 10.6536 24.8848 10.4682 24.9367L10.357 24.9646C10.1222 24.9965 10.1428 24.8369 10.2169 24.797M13.5335 26.0262C13.653 26.2018 13.8219 26.3056 13.8137 26.6888C13.8013 26.7806 13.8302 26.8005 13.9126 26.7885C13.9867 26.7686 13.9455 26.3296 14.1639 26.3615C14.3493 26.3854 14.2257 26.6409 14.3163 26.9202C14.3452 27.02 14.5594 27.3792 14.5017 27.9979C14.5017 28.1575 14.1845 28.365 14.0032 28.2453C13.859 28.1575 13.859 28.0537 13.7725 27.3992C13.7395 27.012 13.2492 26.8803 13.0474 26.7047C12.8414 26.5571 12.9567 26.4852 12.9196 26.2178C12.8002 25.8307 12.3346 25.6511 12.487 25.3916C12.5406 25.3278 12.5859 25.2679 12.7301 25.3198C12.7384 25.5114 13.2122 25.659 13.5253 26.0262M13.4594 28.7362C13.3646 28.6564 12.6724 27.946 12.8455 27.6187C13.0391 27.8023 13.5624 28.2732 13.756 28.3211C13.8096 28.4528 13.8013 28.828 13.4594 28.7362ZM12.6271 28.7362C12.52 28.7362 11.799 28.1535 11.9102 27.7903C12.1204 27.942 12.5983 28.2653 12.656 28.2573C12.7178 28.2932 12.7672 28.6963 12.6271 28.7362ZM10.8638 25.5872C10.7978 25.5194 10.8514 25.3877 10.9668 25.3318C11.1851 25.232 11.2675 25.3477 11.317 25.3996C11.5271 25.7149 11.799 26.122 11.9968 26.2817C11.8114 26.2976 11.1233 26.0941 10.8638 25.5872ZM23.7758 18.3114C23.7429 18.1597 23.3185 18.1717 23.1455 17.9681C23.0837 17.8843 23.129 17.8404 23.1455 17.7806C23.1908 17.6049 23.5822 17.7087 23.677 17.5531C23.714 17.4852 23.7223 17.2896 23.7017 17.2657C23.4586 16.9743 22.9395 17.114 22.5769 16.9743C22.3998 16.9065 22.1814 16.7628 22.0001 16.699C21.7694 16.6112 21.5922 16.5992 21.3574 16.5114C21.3038 16.4874 21.2008 16.4156 21.1473 16.3956C20.8877 16.2959 20.6858 16.2759 20.4263 16.1681C20.3974 16.1562 20.315 16.1123 20.2862 16.1003C20.1832 16.0564 20.1461 16.0484 20.0431 16.0125C19.6435 15.8728 19.1367 15.7531 18.564 15.785C18.3127 15.797 18.0202 15.7531 17.6329 15.8608C17.5011 15.8928 17.3116 16.0045 17.1838 16.0444C17.0932 16.0684 17.019 16.0843 16.9366 16.1202C16.8254 16.1641 16.7306 16.224 16.5741 16.2639C16.1374 16.3597 15.5441 16.2559 15.0991 16.3238C14.7118 16.3837 14.4852 16.6231 14.1639 16.7269C14.065 16.7588 14.0279 16.7469 13.9332 16.7828C13.8755 16.8027 13.7478 16.8347 13.6983 16.8586C13.5665 16.9265 13.4758 16.9464 13.3275 17.0063C13.2534 17.0382 13.1627 17.1061 13.0927 17.138C12.9814 17.1899 12.9773 17.2058 12.8867 17.2657L12.8166 17.3176C12.8166 17.3176 12.6601 17.4533 12.6395 17.4732C12.5777 17.5331 12.5159 17.6209 12.4623 17.6888C12.2975 17.8724 12.0544 18.1038 11.8526 18.2475C11.7784 18.2994 11.729 18.2874 11.663 18.3433C11.5889 18.4032 11.5188 18.459 11.4488 18.5149C11.2758 18.6307 11.111 18.7105 10.9256 18.8063L10.8061 18.8821C10.6495 18.9819 10.6536 19.0218 10.493 19.1216C10.39 19.1934 10.3405 19.2972 10.2416 19.381C10.1757 19.4289 10.1016 19.5806 10.0604 19.6484C9.85849 19.9358 9.78021 20.3548 9.64013 20.7061C9.59893 20.8098 9.24873 21.3007 9.16221 21.3287L9.10041 21.3885C9.05097 21.4285 9.05097 21.4404 9.00565 21.4843C8.90265 21.5721 8.79553 21.624 8.71725 21.7358C8.65133 21.8196 8.61425 21.9194 8.55657 22.0151C8.46181 22.1588 8.31349 22.3225 8.23933 22.4821C8.20637 22.542 8.18577 22.5979 8.16105 22.6537C8.15281 22.6617 8.14869 22.6737 8.14869 22.6737C8.10749 22.7216 8.04157 22.9211 8.04157 22.9211C7.97153 23.0848 7.80261 23.1726 7.57601 23.4799C7.31233 23.4959 6.41005 23.2763 5.79618 22.993C5.93213 23.1446 6.62017 23.5956 7.43181 23.6795C7.37825 23.7553 7.37413 23.8351 7.27937 23.859C6.95389 23.9349 6.39357 23.7633 5.63962 23.5078C5.68494 23.6076 6.34825 23.9868 7.32881 24.0426C7.18049 24.2063 5.83737 24.1704 4.78266 23.891C4.74146 23.9987 6.09693 24.2901 6.84265 24.2781C6.71905 24.342 6.38121 24.4138 6.16697 24.4896C5.82914 24.4537 5.35122 24.3979 5.26058 24.3619C5.28118 24.4298 5.61902 24.5176 5.89505 24.5775C5.62726 24.6693 5.23174 24.7211 5.0793 24.7571C5.19054 24.781 5.61902 24.7171 6.07221 24.6094C6.46773 24.6812 7.07749 24.761 7.40709 24.7451C7.32057 24.785 7.01157 24.9806 6.76437 25.1242C6.13401 25.1841 5.44186 25.232 5.29354 25.252C5.37594 25.2639 5.93214 25.2719 6.52541 25.2599C6.16697 25.4635 5.7797 25.675 5.59018 25.7588C5.86621 25.691 6.35649 25.5114 6.85913 25.252C7.35765 25.236 7.81909 25.1961 8.01273 25.1282C7.94269 25.2679 7.54305 25.9384 7.16813 26.0941C7.33293 26.0701 7.85205 25.9265 8.16517 25.1641C8.27641 25.212 8.40413 25.24 8.55245 25.248C8.63485 25.3677 8.83261 25.679 9.20341 25.695C9.28169 25.9025 9.96561 26.9881 10.9297 26.565C10.6495 26.4174 10.4806 26.2617 10.3446 25.8307C10.7772 25.8027 11.9102 26.4094 12.2481 27.7105C11.9803 27.6227 11.6424 27.471 11.6095 27.3433C11.5353 27.6466 11.4859 28.0338 12.178 28.7043C12.1904 28.844 12.1863 29.0196 12.2192 29.1832C12.3305 29.299 12.4623 29.3828 12.5859 29.4826C12.5942 29.6701 12.5694 29.9336 13.0803 30.0772C13.2534 30.2129 13.8137 30.3646 13.8961 30.4604C14.065 30.5123 14.3081 30.5242 14.4935 30.5123C14.4935 30.5123 14.7366 30.4724 14.7984 30.3845C14.9178 30.3806 15.0826 30.3766 15.8284 29.6063C15.9849 29.4267 15.8284 28.4329 15.8654 28.1894C15.9396 28.0138 15.9684 27.8502 16.0673 27.6387C16.0673 27.6387 16.1703 27.4271 16.3598 27.3393C16.3722 27.3313 16.3887 27.3313 16.401 27.3273C16.8295 27.2316 17.3857 27.6227 17.6494 27.7304C17.7442 27.7704 17.7977 27.7504 17.876 27.7943C17.9131 27.8143 17.9666 27.8981 18.0037 27.922C18.0985 27.9739 18.1891 27.9579 18.2962 28.0138C18.4528 28.0976 18.7618 28.5367 19.0337 28.4848C19.1202 28.4648 19.1862 28.2772 19.2603 28.2333C19.388 28.1575 19.5652 28.1655 19.6806 28.0817C19.8083 27.9819 19.7547 27.8701 19.7753 27.7344C19.7753 27.7265 19.8371 27.6666 19.8412 27.6387C19.903 27.6307 20.0431 27.6387 20.1296 27.6107C20.142 27.6067 20.1791 27.5628 20.1956 27.5469C20.2491 27.491 20.212 27.4311 20.1956 27.3872C20.1708 27.3393 20.0431 27.2755 20.0019 27.2355C19.9072 27.1438 19.7382 27.0081 19.6806 26.8963C19.6476 26.8364 19.6888 26.8245 19.6435 26.7686C19.6023 26.7047 19.491 26.6369 19.4581 26.5531C19.3345 26.2857 19.3798 25.691 19.3262 25.6072C19.2768 25.5234 19.2109 25.5353 19.1614 25.4635C19.0543 25.2998 19.1862 24.769 19.1944 24.5615C19.2026 24.3939 19.0337 24.4976 19.0337 24.4976C18.8936 24.8329 18.9101 24.9845 18.873 25.4635C18.873 25.5034 18.8112 25.7628 18.8112 25.8067C18.8112 25.9704 18.9101 26.2577 18.8442 26.4613C18.8195 26.5251 18.6794 26.6528 18.4899 26.6488C18.4157 26.6488 18.0614 26.5571 17.9749 26.5251C17.9584 26.5132 17.8842 26.4293 17.8801 26.4293C17.6988 26.2936 17.6618 26.4214 17.6535 26.4892C17.6494 26.561 17.6782 26.577 17.6906 26.6169C17.6988 26.6568 17.773 26.8045 17.7606 26.8165C17.7606 26.8324 17.6947 26.9961 17.3651 26.8045C17.1138 26.6568 16.8625 26.2497 16.8501 26.1819C16.8172 26.0262 16.8666 25.9105 16.8954 25.8546C17.019 25.7469 17.1715 25.8945 17.2951 25.9624C17.328 25.9783 17.4063 26.0302 17.4434 26.0382C17.5176 26.0502 17.637 26.0262 17.6494 26.0262C18.1397 25.9983 18.6423 26.1699 18.7288 25.8546C18.7824 25.6551 18.5805 25.5473 18.5434 25.4675C18.4981 25.3637 18.5228 25.3597 18.494 25.248C18.494 25.24 18.4569 25.1681 18.4487 25.1562C18.3951 25.0724 18.4322 25.0005 18.3828 24.9087C18.3333 24.8049 18.185 24.7451 18.1232 24.6573C18.0408 24.5415 18.0408 24.3979 17.9296 24.314C17.7689 24.1823 17.1056 23.9947 17.0314 23.8471C16.9078 23.6116 17.0561 23.1806 16.9984 22.8852C16.9655 22.7096 16.9078 22.6178 16.8007 22.514C16.7595 22.4701 16.7389 22.4103 16.7554 22.3544C16.7842 22.2506 16.8419 22.2786 16.8748 22.0471C16.8913 21.9194 16.8625 21.7757 16.8748 21.644C16.8748 21.62 16.9366 21.4205 16.9408 21.3925C16.9696 21.0453 16.9243 20.6821 16.846 20.4307C16.8089 20.3069 16.6936 20.1992 16.6524 20.0874C16.6194 19.9916 16.6606 19.9318 16.6194 19.836C16.5864 19.7522 16.4752 19.6923 16.4299 19.6245C16.3434 19.5007 16.3681 19.2892 16.2362 19.2174C16.1374 19.1655 16.1044 19.2373 16.1085 19.2174C16.0756 19.3331 16.0838 19.4449 16.1415 19.5885C16.1662 19.6524 16.2857 19.7442 16.3063 19.8081C16.331 19.9238 16.2898 20.0635 16.3063 20.1832L16.3681 20.3109C16.4175 20.6222 16.2445 21.0373 16.1126 21.2129C16.022 21.3287 15.7418 21.4763 15.7295 21.648C15.7171 21.7557 15.7624 21.7597 15.7872 21.8036C15.8325 21.8595 15.9643 21.9353 15.9849 21.9912C16.0014 22.0311 16.0138 22.0231 16.0344 22.063L16.0508 22.1508C16.0714 22.3704 15.7789 22.4183 15.919 22.6777C15.9602 22.7535 16.1003 22.7535 16.1786 22.8054C16.3228 22.8932 16.5988 23.1446 16.6276 23.3642C16.64 23.4559 16.6276 23.9588 16.5988 24.0187C16.5329 24.1584 16.1744 24.2143 16.2156 24.4857C16.261 24.785 17.0726 24.7012 17.3033 24.8568C17.4146 24.9327 17.4352 25.0923 17.4681 25.236C17.4887 25.3118 17.4104 25.3398 17.3734 25.3557C17.2868 25.4036 17.225 25.3677 17.1138 25.3877C16.846 25.4395 16.4258 25.5553 16.3145 25.7628C16.1744 26.0023 16.3392 26.3256 16.2816 26.601C16.2239 26.8484 16.0344 27.1477 15.8943 27.3513C15.8078 27.475 15.7006 27.5908 15.6594 27.7664C15.5647 28.1296 15.6306 28.5646 15.6018 28.9956C15.6018 28.9956 15.6182 29.2231 15.4658 29.3868C15.2886 29.5743 14.6789 30.1291 14.2422 30.1291C14.0815 30.1291 14.0156 30.0732 13.8384 29.9495C13.7272 29.9415 13.4758 29.8817 13.3275 29.73C13.2822 29.6502 12.8043 29.1792 13.105 29.0475C13.3893 28.9198 13.8425 29.1952 14.0568 29.3309C14.1433 29.3309 14.7613 29.3588 15.4205 28.5247C15.3916 28.0896 15.3504 27.5269 15.3051 27.4271C15.2351 27.2116 14.8643 26.8324 14.7819 26.6049C14.7324 26.4214 14.6418 26.0582 14.6995 25.8067C14.6748 25.5273 14.4894 25.4675 14.4152 25.24C14.3946 25.1841 14.3699 25.1402 14.3575 25.1202C14.3369 25.0404 14.3163 24.9646 14.2669 24.8928C14.1515 24.7251 14.0403 24.6852 13.9373 24.5216C13.826 24.35 13.8466 24.1344 13.6777 24.0227C13.583 23.9668 13.4594 23.9588 13.3564 23.899C13.2822 23.8551 13.1874 23.7513 13.1009 23.7154C12.9979 23.6715 12.9691 23.6595 12.8661 23.6156C12.8166 23.5916 12.726 23.5517 12.6807 23.5278C12.6354 23.5038 12.59 23.5278 12.553 23.4959C12.4294 23.3961 12.52 23.3003 12.4541 23.1247C12.4458 23.1047 12.4005 23.1007 12.3882 23.0608C12.3346 23.0489 12.2481 22.965 12.1739 23.0129C12.0792 23.0848 12.0503 23.0648 11.9926 23.2085C11.9597 23.3003 11.8896 23.5797 11.8278 23.6475C11.7702 23.7114 11.696 23.8032 11.6054 23.867C11.523 23.9109 11.4488 23.903 11.4488 23.903L11.2098 23.9349L11.0904 24.1145C11.0904 24.1145 10.9585 24.0945 10.8926 24.0945C10.872 24.1384 10.7113 24.2582 10.6619 24.2981C10.4559 24.4138 10.3323 24.334 10.3199 24.2941C10.3076 24.2582 10.2416 24.1783 10.3817 24.0985C10.8555 23.9708 11.4323 23.3642 11.4776 23.2285C11.4158 23.3202 10.4435 23.8391 10.2581 23.9109C10.4518 23.4639 11.6466 22.8134 11.7207 22.7375C11.4158 22.7814 10.3982 23.3801 10.221 23.6395C10.0521 23.9069 9.85849 23.8311 9.66485 23.8231C9.48357 23.8191 9.50005 24.0067 9.49181 24.1225C9.49181 24.2342 9.39705 24.4657 9.47533 24.5096C9.59893 24.6134 9.92853 24.1943 10.0356 24.4218C10.0892 24.6732 9.41353 24.6653 9.42177 24.8648C9.39293 24.9766 10.048 25.0085 10.1675 25.1242C9.95737 25.2759 9.43825 25.3198 9.28581 25.3318C9.19105 25.3398 9.10453 25.3318 9.05509 25.3278C8.96857 25.3158 8.85733 25.24 8.75845 25.0803C8.56893 24.7531 8.89029 24.5256 8.89441 24.4418C8.90265 24.35 8.85733 24.4018 8.85321 24.2622C8.84909 24.1265 9.00977 24.0985 9.05097 24.0706C9.09629 24.0387 9.03861 24.0027 9.05097 23.871C9.13337 23.5677 9.64013 23.2205 9.51241 23.1207C9.39705 23.0608 9.14573 23.3242 9.05097 23.448C8.70077 23.883 8.28877 23.7473 8.15281 23.7513C7.84381 23.7673 7.89737 23.44 8.11161 23.4599C8.36293 23.412 8.34233 23.0768 8.51949 23.1127C8.57717 23.3562 8.29701 23.3921 8.42885 23.444C8.60601 23.5118 8.62661 23.2843 8.68017 23.1885C8.73373 23.0928 8.98093 22.8852 8.95621 22.8333C8.88205 22.8094 8.69665 22.9371 8.61425 22.997C8.41237 22.5061 8.91913 22.1309 8.94797 21.9872C9.11689 21.7318 10.0562 21.4005 10.0727 21.0094L10.1016 20.9854C10.1016 20.9854 10.118 20.9735 10.1469 21.0214C10.151 21.0453 10.1592 21.0692 10.1634 21.0932C10.1634 21.1251 10.1634 21.1571 10.1634 21.1571V21.1171C10.1757 21.177 10.1757 21.2289 10.1757 21.2169V21.2768C10.184 21.3127 10.2334 21.3287 10.2375 21.3327C10.2581 21.3287 10.3076 21.3127 10.357 21.2568C10.3652 21.2488 10.4147 21.201 10.4147 21.189C10.5053 21.1251 10.5218 21.1171 10.5877 21.0293C10.7484 20.8018 10.4394 20.4706 10.5218 20.1633C10.5836 19.9597 10.7772 19.7163 10.7772 19.7163C10.8308 19.6005 10.7484 19.6005 10.7484 19.6005C10.6207 19.5766 10.5383 19.7083 10.5548 19.6923C10.3941 19.836 10.3488 19.9038 10.2334 20.0994C10.2334 20.0994 10.1386 20.1832 10.1098 20.0675C10.0562 19.8759 10.2787 19.4967 10.3529 19.4449C10.4847 19.3571 10.6166 19.3211 10.7814 19.2573C10.8679 19.2214 10.9915 19.0936 11.0739 19.0737C11.1151 19.0577 11.1563 19.0497 11.2016 19.0737C11.2016 19.0737 11.2634 19.1176 11.2346 19.2573C11.2346 19.2573 11.1686 19.4249 11.1934 19.4848C11.2098 19.5247 11.2016 19.5646 11.2964 19.5646C11.5312 19.5726 12.0421 19.5167 12.1945 19.4409C12.2275 19.4289 12.2646 19.381 12.2934 19.3531C12.3428 19.3052 12.3305 19.2373 12.2934 19.2293L12.1945 19.1974C12.2728 19.1894 11.7619 19.1814 11.8402 19.1695C11.7537 19.1854 11.9638 18.938 11.9391 18.8222C11.9267 18.7664 11.8278 18.7424 11.8114 18.6985C11.8031 18.6706 11.7496 18.6307 11.8114 18.6027L11.8855 18.5748C11.9102 18.5588 11.9391 18.5309 11.972 18.5109C12.1327 18.4391 12.4211 18.475 12.5488 18.5109C12.5653 18.5189 12.7713 18.5748 12.8414 18.7624C12.8578 18.8143 12.8743 18.8741 12.9032 18.918C12.9979 19.0457 13.2822 19.0936 13.447 18.942C13.48 18.914 13.5212 18.8382 13.5459 18.7983C13.7066 18.4311 13.4635 18.1797 13.1586 18.0799C13.035 18.04 12.8331 18.024 12.6766 17.9881C12.5653 17.9602 12.6312 17.8684 12.6642 17.8404L12.7095 17.7965C12.7713 17.7127 12.965 17.6329 13.0309 17.6089C13.1998 17.5491 13.3687 17.4852 13.6077 17.581C13.6448 17.593 13.7395 17.6648 13.7642 17.6728C13.9455 17.7167 14.0156 17.7287 14.1845 17.6449C14.2545 17.6129 14.2422 17.6049 14.2504 17.585C14.3081 17.4174 14.1886 17.3056 14.1927 17.3256C14.1598 17.1021 14.819 17.3775 14.9178 17.2378C15.0167 17.11 14.9549 16.8666 15.0826 16.7708C15.095 16.7628 15.1692 16.7109 15.1774 16.7109C15.301 16.687 15.4081 16.7349 15.507 16.7708L15.61 16.8187C15.816 16.9025 15.9973 16.9464 16.1085 17.11C16.1786 17.2178 16.1703 17.3775 16.2362 17.4852C16.2651 17.5291 16.3351 17.561 16.3681 17.6089C16.401 17.6449 16.4546 17.6688 16.4917 17.6888C16.5494 17.7247 16.5741 17.7406 16.6524 17.7646C16.71 17.7845 16.7924 17.8724 16.846 17.8883C17.0396 17.9681 17.2745 17.9562 17.4887 17.9522C17.6123 17.9442 17.6865 18.02 17.806 17.9841C17.8678 17.9642 17.8513 17.8604 17.8101 17.8125C17.7359 17.7167 17.6741 17.7406 17.5464 17.6728C17.497 17.6409 17.4352 17.5451 17.3857 17.5171C17.2374 17.4253 17.0273 17.4094 16.9366 17.2657C16.9284 17.2418 16.9078 17.2018 16.9078 17.1739L16.8707 17.11C16.6936 16.7628 16.6359 16.5553 16.8048 16.4874C16.9078 16.4475 17.1426 16.4715 17.258 16.4236C17.2827 16.4116 17.3322 16.3398 17.3528 16.3278C17.6082 16.212 18.0861 16.0724 18.3498 16.2041C18.4281 16.24 18.3498 16.4395 18.3828 16.5154C18.3992 16.5513 18.461 16.6032 18.5228 16.6271C19.0708 16.7708 19.6229 16.7469 20.0308 16.9304C20.2697 17.0422 20.4551 17.2138 20.6735 17.3974C20.863 17.5571 20.6405 17.7367 20.8342 17.7925C20.7023 17.8085 20.5911 17.8245 20.5705 17.7606C20.5622 17.7446 20.5252 17.6848 20.5046 17.6688C20.3645 17.5331 20.1914 17.3296 19.9937 17.2617C19.8907 17.2258 19.8454 17.2617 19.7341 17.2298L19.6064 17.1859C19.4622 17.15 19.454 17.1579 19.318 17.13C19.2562 17.118 19.1202 17.0462 19.0584 17.0422C18.7824 17.0023 18.63 17.11 18.3828 17.0422C18.2674 17.0103 18.1191 16.8307 18.0243 16.7828C17.909 16.7189 17.8018 16.699 17.67 16.6591C17.6164 16.6431 17.5917 16.6431 17.5546 16.663C17.4846 16.703 17.5093 16.7628 17.5423 16.8147C17.5629 16.8426 17.5835 16.8905 17.6082 16.9025C17.6988 16.9664 17.8842 16.9664 17.9296 17.0582C18.0738 17.3296 17.8636 17.4253 17.8348 17.5052C17.8183 17.5531 17.7812 17.593 17.8348 17.6608C17.8636 17.6967 17.9254 17.7367 17.9625 17.7526C18.0944 17.8045 18.1974 17.7845 18.3168 17.8484C18.4034 17.8923 18.494 18.044 18.6052 18.0679C18.8607 18.1198 18.9225 17.9362 19.0543 17.9083C19.2397 17.8684 19.3551 17.9641 19.5693 17.9083C19.6394 17.8883 19.6806 17.8085 19.73 17.7845C19.8536 17.7247 19.9772 17.7127 20.0555 17.7526C20.0555 17.7526 20.1379 17.7885 20.0225 17.8484C19.9525 17.8843 19.8989 17.8843 19.833 17.9163C19.7877 17.9402 19.7424 18.0041 19.7382 18.012C19.7176 18.0559 19.7012 18.1198 19.7012 18.1278C19.7259 18.1637 19.7465 18.1837 19.7671 18.1916C19.9896 18.2635 20.2162 18.1238 20.4098 18.0959C20.5499 18.0759 20.9495 18.0959 21.0649 18.1797C21.0649 18.1797 21.172 18.2036 21.102 18.3872C21.0608 18.499 20.8754 18.5788 20.8053 18.6746C20.7641 18.7265 20.7188 18.8302 20.6776 18.8821C20.6076 18.9659 20.5952 18.9619 20.5293 19.0418L20.484 19.1056C20.4551 19.1854 20.1296 19.4528 20.0678 19.5446C20.0308 19.5965 20.0143 19.6564 19.9772 19.7123C19.9195 19.7921 19.8742 19.8081 19.8454 19.8559C19.7506 19.9877 19.5652 20.2551 19.4128 20.3229C19.3427 20.3508 19.248 20.3229 19.1532 20.299C19.0873 20.279 19.0172 20.1673 18.9637 20.1433C18.7371 20.0435 18.4899 20.0715 18.288 19.9557C18.1891 19.8998 18.1026 19.7322 18.0284 19.6444C17.9831 19.5845 17.9419 19.4848 17.8719 19.4568C17.7565 19.4169 17.4764 19.4568 17.4228 19.5486C17.3157 19.7482 17.5917 20.2471 17.6164 20.4546C17.6329 20.6302 17.5505 20.71 17.6164 20.8577C17.6453 20.9336 17.7689 20.9535 17.806 21.0134C17.979 21.2768 17.8307 21.652 17.8719 22.0072C17.8884 22.1149 17.9543 22.2546 17.9337 22.4143C17.9048 22.6617 17.5752 22.8772 17.7071 23.2524C17.7153 23.2684 17.7771 23.3123 17.7812 23.3163C17.8307 23.3402 17.909 23.3282 17.9666 23.3163C18.0738 23.2803 18.1768 23.0728 18.288 23.0049C18.3004 22.993 18.3374 22.977 18.358 22.977C18.3704 22.9571 18.3992 22.9571 18.4157 22.9451C18.4652 22.9132 18.4816 22.9132 18.5105 22.8533C18.5558 22.7535 18.5393 22.6497 18.5764 22.51C18.6094 22.3903 18.7206 22.1788 18.7371 22.0431C18.7783 21.6599 18.4899 20.9136 18.6959 20.7939C18.7783 20.746 18.8524 20.6582 18.9843 20.6382C19.0461 20.6222 19.2356 20.6821 19.3221 20.6821C19.215 20.9256 19.6023 21.5442 19.5693 21.8874C19.4952 22.7256 18.9348 23.1885 18.4446 23.6355C18.3869 23.6874 18.4363 23.7513 18.4775 23.7872C18.5723 23.879 18.8112 23.8391 18.9266 23.8191C19.1038 23.7832 19.182 23.7074 19.3098 23.6635C19.3551 23.6475 19.4169 23.6755 19.4704 23.6635C19.6023 23.6316 19.7176 23.4559 19.7918 23.3522C19.7918 23.3522 19.9484 23.1845 19.9813 23.4041V23.416C19.9813 23.6196 19.9484 23.8391 19.9813 24.0347C20.0225 24.2701 20.4592 24.9726 20.69 25.0005C21.2214 25.0763 20.6776 24.4258 20.6529 24.3779C20.5664 24.1823 20.4798 23.8311 20.4922 23.5677C20.4963 23.4719 20.5787 23.2803 20.587 23.1925C20.5911 23.1486 20.5705 23.0449 20.587 23.0049C20.6323 22.9251 20.9166 22.8972 20.9742 22.7894C20.9907 22.7575 20.9701 22.7016 20.9742 22.6617C20.9866 22.5899 21.0443 22.4462 21.1061 22.3863C21.1432 22.3384 21.2008 22.3105 21.2668 22.3863C21.3203 22.4422 21.3327 22.5859 21.4274 22.6857L21.5057 22.7695C21.6005 22.8293 21.7529 22.7495 21.7158 22.7575C21.8147 22.7296 21.8024 22.6338 21.8436 22.5979C21.8518 22.5939 21.9012 22.5699 21.9012 22.5699C22.1361 22.3344 21.617 22.1269 21.6128 21.9114C21.6128 21.6719 21.6705 21.4005 21.5799 21.1371C21.5593 21.0692 21.4357 20.9775 21.4233 20.9176C21.3862 20.7699 21.4686 20.6103 21.4851 20.5145C21.5181 20.3149 21.4522 20.0076 21.5181 19.9198C21.5593 19.8719 21.617 19.836 21.7406 19.8599C21.823 19.8719 21.8765 20.0036 21.9342 20.0475C22.1443 20.2112 22.3874 20.303 22.7376 20.263C22.7829 20.263 22.8159 20.1992 22.8241 20.1792C22.8488 20.1194 22.8406 20.0355 22.7994 19.9797C22.6717 19.816 22.1855 19.6883 22.1567 19.6125C22.1402 19.5526 22.0619 19.4688 22.1443 19.4249C22.099 19.4528 22.4451 19.4169 22.5728 19.389C22.7376 19.3571 22.7458 19.1974 22.8612 19.1415C23.0219 19.0617 23.2567 19.1296 23.3474 18.9859C23.4009 18.8941 23.3556 18.7584 23.405 18.6746C23.471 18.5668 23.6605 18.5429 23.7594 18.4551C23.7882 18.4311 23.7758 18.3353 23.7717 18.3034" fill="#750013"/>
<path d="M10.2264 24.8047C10.2264 24.8047 10.2264 24.8047 10.231 24.8047C10.2079 24.8141 10.2125 24.8141 10.2264 24.8047Z" fill="#750013"/>
<path d="M6.98274 7.43532C6.92094 7.38343 6.84678 7.31958 6.77262 7.25572C6.69846 7.18787 6.62018 7.12002 6.5419 7.04419C6.30294 6.79275 6.07634 6.55328 5.86622 6.32578L5.60254 6.04641C5.51602 5.95461 5.43774 5.8668 5.36358 5.78698L5.16583 5.57545C5.14111 5.55151 5.12051 5.52756 5.10403 5.5076C5.11227 5.49962 5.12051 5.48765 5.12875 5.47966C5.17818 5.42379 5.23587 5.35195 5.31002 5.26813C5.38006 5.18432 5.46246 5.08853 5.5531 4.97678C5.64374 4.86902 5.73438 4.75727 5.82502 4.64552L6.55426 3.77146L6.81382 3.52002H5.78382L4.29651 5.31603V3.52002H3.35303V7.87035H4.29651V5.91071L5.82502 7.55505C5.98158 7.76259 6.26174 7.87035 6.65726 7.87035H7.58838L7.18874 7.59496C7.12282 7.54707 7.0569 7.49119 6.98686 7.43133" fill="white"/>
<path d="M10.1349 3.51611V6.1782C10.1349 6.36179 10.1226 6.52143 10.0937 6.66512C10.069 6.79283 10.0196 6.90059 9.94954 6.98441C9.8795 7.06822 9.7765 7.13607 9.64054 7.17997C9.50046 7.22786 9.31918 7.25181 9.09258 7.25181C8.50754 7.25181 8.22738 6.8966 8.22738 6.1782V4.89305C8.22738 4.5139 8.22738 4.09084 8.2315 3.61589V3.51611H7.27979V6.1782C7.27979 6.4935 7.29215 6.70902 7.31687 6.84472C7.36631 7.09616 7.47755 7.31567 7.64235 7.49527C7.9431 7.81057 8.37158 7.97421 8.9113 7.97421H9.26974C9.80946 7.97421 10.2379 7.81456 10.5387 7.49527C10.6994 7.31567 10.8106 7.10015 10.8601 6.84472C10.8848 6.70902 10.8971 6.4935 10.8971 6.1782V3.51611H10.1308H10.1349Z" fill="white"/>
<path d="M6.77272 9.81026L5.59028 12.7597H5.29364L3.99585 9.82623L3.60445 12.7597H3.06885L3.61681 9.11182H4.35017L5.48728 11.6741L6.53376 9.11182H7.27536L7.7986 12.7597H7.13528L6.77272 9.81026Z" fill="white"/>
<path d="M8.66387 12.2527H10.4231V12.7595H8.00879V9.11963H10.1883V9.60655H8.66387V10.5485H9.86691V11.0314H8.66387V12.2527Z" fill="white"/>
<path d="M12.821 11.9693C12.9776 11.8496 13.093 11.6979 13.1712 11.5063C13.2495 11.3148 13.2866 11.1112 13.2866 10.8957C13.2866 10.7041 13.2536 10.5245 13.1918 10.3649C13.1259 10.2012 13.0353 10.0615 12.9117 9.94579C12.6645 9.71431 12.306 9.59457 11.8446 9.59457H11.379V12.2966H11.7457C12.1907 12.2966 12.5491 12.1888 12.8252 11.9733M13.4349 9.59856C13.814 9.91785 14.0035 10.3569 14.0035 10.9077C14.0035 11.4584 13.8057 11.9014 13.4061 12.2447C13.0064 12.5879 12.4956 12.7635 11.8611 12.7635H10.7363V9.11963H11.894C12.5409 9.11963 13.0518 9.27927 13.4308 9.60256" fill="white"/>
<path d="M14.9921 9.11963H14.3452V12.7595H14.9921V9.11963Z" fill="white"/>
<path d="M18.5064 12.5839C18.4735 12.5999 18.4199 12.6238 18.3581 12.6518C18.2963 12.6797 18.218 12.7077 18.1274 12.7316C18.0326 12.7555 17.9255 12.7755 17.806 12.7955C17.6866 12.8154 17.5547 12.8234 17.4105 12.8234C16.7431 12.8234 16.224 12.6558 15.8532 12.3165C15.47 11.9813 15.2764 11.5303 15.2764 10.9595C15.2764 10.3888 15.4576 9.96575 15.8243 9.62251C16.0056 9.4469 16.2198 9.3112 16.467 9.21142C16.7142 9.11165 16.9862 9.05577 17.291 9.03981C17.4764 9.02783 17.6371 9.03581 17.7813 9.05577C17.9255 9.07573 18.0409 9.10366 18.1398 9.12761C18.2551 9.16353 18.354 9.20344 18.4364 9.24734V9.86198C18.354 9.81009 18.2757 9.76619 18.2016 9.72628C18.1233 9.68637 18.045 9.65045 17.9626 9.61852C17.8761 9.58659 17.7813 9.56663 17.6824 9.55067C17.5836 9.53471 17.4723 9.53071 17.3487 9.53471C17.1304 9.54269 16.9326 9.58659 16.7637 9.66641C16.5948 9.74624 16.4464 9.84601 16.3311 9.96575C16.1004 10.1972 15.985 10.5046 15.985 10.8797C15.985 11.2549 16.1086 11.6061 16.3517 11.8775C16.4835 12.0212 16.6318 12.1289 16.7925 12.2008C16.9532 12.2686 17.1345 12.3085 17.3364 12.3165C17.4929 12.3245 17.6371 12.3165 17.7648 12.2966C17.8926 12.2766 18.0079 12.2527 18.1109 12.2207C18.2098 12.1888 18.2922 12.1569 18.3581 12.121C18.424 12.085 18.4776 12.0571 18.5147 12.0332V12.5919L18.5064 12.5839Z" fill="white"/>
<path d="M19.4955 9.11963H18.8486V12.7595H19.4955V9.11963Z" fill="white"/>
<path d="M23.1085 9.11572H23.1497V12.7636L22.61 12.7596L20.4058 10.0377V12.7596H19.9155V9.11572H20.48L22.6512 11.7898V9.11572H23.1085Z" fill="white"/>
<path d="M24.221 12.2527H25.9844V12.7595H23.5659V9.11963H25.7495V9.60655H24.221V10.5485H25.424V11.0314H24.221V12.2527Z" fill="white"/>
</g>
<defs>
<clipPath id="clip0_8025_5405">
<rect width="160" height="36" fill="white" transform="translate(0.666992)"/>
</clipPath>
</defs>
</svg>
