<svg width="164" height="46" viewBox="0 0 164 46" fill="none" xmlns="http://www.w3.org/2000/svg">
<g clip-path="url(#clip0_8025_5213)">
<path d="M24.0039 24.3905C34.6863 22.2942 40.6553 28.2783 43.766 33.5718C45.4003 30.4056 46.3215 26.8165 46.3215 23.0033C46.3215 21.4731 46.1701 19.974 45.8861 18.5309C22.2182 14.4254 14.7475 32.5019 12.4128 43.1886C15.675 44.9863 19.423 46.0065 23.4108 46.0065C29.771 46.0065 35.5192 43.4063 39.671 39.2075C35.0081 24.7015 24.0039 24.3905 24.0039 24.3905Z" fill="#E8380D"/>
<path d="M38.2513 5.48019C34.1247 12.6897 28.3513 16.0611 28.3513 16.0611C31.5629 12.1734 33.1593 6.66207 33.9417 2.56903C30.7868 0.926842 27.2092 0 23.4107 0C15.3342 0 8.23576 4.19878 4.15335 10.5374C7.47859 13.3801 14.9683 18.0952 27.165 16.8573C27.165 16.8573 14.0786 19.1651 1.62314 15.8745C0.891205 18.1201 0.5 20.5149 0.5 23.0031C0.5 29.0183 2.80306 34.4922 6.56368 38.5915C13.1826 16.3908 39.0085 15.0596 44.9144 15.0472C43.5389 11.3025 41.2169 8.0119 38.2513 5.47397V5.48019ZM22.6788 15.551C20.565 15.551 18.8488 13.8467 18.8488 11.7442C18.8488 9.64165 20.565 7.93726 22.6788 7.93726C24.7926 7.93726 26.5151 9.64165 26.5151 11.7442C26.5151 13.8467 24.7989 15.551 22.6788 15.551Z" fill="#E8380D"/>
<path d="M151.575 10.3509C151.575 12.3477 152.124 14.052 153.215 15.4703C154.307 16.8823 156.471 17.6163 157.884 17.8714L156.181 19.3456C155.045 19.2523 153.02 18.8915 151.896 18.0331C150.78 17.1747 150.079 16.2727 149.802 15.321C149.555 16.2727 148.861 17.1747 147.738 18.0207C146.615 18.8667 144.741 19.1839 143.605 19.2896L141.883 17.8154C143.309 17.5604 145.315 16.8823 146.401 15.4579C147.486 14.0396 148.029 12.3352 148.029 10.3509V7.92494C148.029 7.50195 148.06 6.35117 148.029 6.33251H151.575C151.575 6.33251 151.575 7.49573 151.575 7.92494V10.3509ZM158.307 5.87842H161.803C161.803 5.87842 161.771 26.7355 161.803 26.7604H158.307C158.307 26.7604 158.339 5.89086 158.307 5.87842Z" fill="#231815"/>
<path d="M85.606 8.32921C85.606 8.32921 79.4729 8.31677 79.454 8.32921V6.40088H95.2915V8.32921H89.1394V8.46606C89.1394 9.97762 89.966 11.315 91.6192 12.472C93.2723 13.629 94.9823 14.2137 96.7553 14.2324L94.894 15.8186C93.4175 15.8186 92.0924 15.3458 90.5024 14.6305C88.9123 13.9089 87.8649 13.0567 87.3727 12.0739C86.8932 13.0754 85.8521 13.9276 84.262 14.6429C82.6719 15.3521 81.1261 15.7066 79.637 15.7066L77.9838 14.2324C79.7695 14.2137 81.4857 13.6352 83.1326 12.4844C84.7794 11.3337 85.606 9.99628 85.606 8.46606V8.32921ZM85.6312 19.2958H77.3591V17.3675H95.9224C96.2821 17.3675 97.3737 17.3799 97.3926 17.3675V19.2958H89.1205C89.1205 19.2958 89.089 26.5053 89.1205 26.5364H85.6249V19.2958H85.6312Z" fill="#231815"/>
<path d="M130.752 16.1048C131.522 15.7751 132.178 15.3459 132.721 14.7985H137.169V17.2307H140.665C140.665 17.2307 140.634 5.89708 140.665 5.87842H137.169V7.87517H132.904C132.374 7.25313 131.705 6.76794 130.904 6.41337C130.096 6.05881 129.225 5.87842 128.298 5.87842C126.67 5.87842 125.276 6.40093 124.115 7.44596C122.954 8.49099 122.379 9.75374 122.379 11.2342C122.379 12.7147 122.954 13.9587 124.115 15.0162C125.269 16.0675 126.664 16.5962 128.298 16.5962C129.169 16.5962 129.989 16.4345 130.752 16.111V16.1048ZM134.179 10.4877C134.141 10.2452 134.084 10.0088 134.002 9.78484H137.169V12.8951H133.933C134.04 12.64 134.122 12.3725 134.166 12.0864C134.21 11.8065 134.235 11.5203 134.235 11.2342C134.235 10.9792 134.217 10.7241 134.179 10.4877ZM126.601 13.6539C126.121 12.9821 125.875 12.1735 125.875 11.2342C125.875 10.2949 126.115 9.49248 126.601 8.81446C127.08 8.14265 127.648 7.80675 128.304 7.80675C128.96 7.80675 129.547 8.14265 130.027 8.81446C130.506 9.48626 130.746 10.2949 130.746 11.2342C130.746 12.1735 130.506 12.9759 130.027 13.6539C129.547 14.3257 128.973 14.6617 128.304 14.6617C127.635 14.6617 127.086 14.3257 126.601 13.6539Z" fill="#231815"/>
<path d="M140.665 21.0127C140.627 19.7935 139.599 18.8169 138.337 18.8169H125.175V20.7452H137.169C137.169 20.7452 137.201 26.7293 137.169 26.7604H140.665C140.665 26.7604 140.665 23.3578 140.665 21.0127Z" fill="#231815"/>
<path d="M108.088 8.26707V10.8299C108.088 11.4333 108.056 12.0304 107.993 12.6214C107.93 13.2123 107.804 13.7286 107.621 14.164H110.649C110.895 13.909 111.116 13.4238 111.299 12.7209C111.489 12.018 111.577 11.3524 111.577 10.7366V8.60297C111.577 7.34645 110.536 6.33252 109.249 6.33252H99.9543V8.26085H108.081L108.088 8.26707Z" fill="#231815"/>
<path d="M116.846 10.0337C116.846 10.0337 116.814 5.89708 116.846 5.87842H113.35V14.5746C112.915 14.7239 112.366 14.8545 111.709 14.9602C111.047 15.066 110.302 15.122 109.463 15.122H105.715C105.715 15.122 105.696 10.5748 105.715 10.5562H102.409V15.122C102.409 15.122 99.1783 15.1344 99.1467 15.122V17.0503H109.324C110.1 17.0503 110.845 16.9694 111.558 16.8139C112.271 16.6584 112.87 16.4656 113.35 16.2354V18.1202H116.846V11.9682C116.846 11.9682 120.322 11.9558 120.341 11.9682V10.0399H116.846V10.0337Z" fill="#231815"/>
<path d="M115.035 19.2524C113.792 18.3131 112.284 17.8403 110.523 17.8403C108.763 17.8403 107.255 18.3131 106.012 19.2524C104.769 20.1979 104.144 21.3486 104.144 22.7109C104.144 24.0732 104.769 25.2053 106.012 26.157C107.255 27.1025 108.763 27.5815 110.523 27.5815C112.284 27.5815 113.792 27.1088 115.035 26.157C116.278 25.2053 116.902 24.0608 116.902 22.7109C116.902 21.3611 116.284 20.1979 115.035 19.2524ZM112.025 24.745C111.47 25.3235 110.788 25.6159 109.993 25.6159C109.198 25.6159 108.517 25.3235 107.961 24.745C107.4 24.1665 107.122 23.5009 107.122 22.7482C107.122 21.9956 107.4 21.3051 107.961 20.7204C108.517 20.1294 109.198 19.8371 109.993 19.8371C110.788 19.8371 111.47 20.1294 112.025 20.7204C112.58 21.3051 112.864 21.9831 112.864 22.7482C112.864 23.5134 112.587 24.1603 112.025 24.745Z" fill="#231815"/>
<path d="M65.5095 8.08055V10.6434C65.5095 11.2467 65.478 11.8439 65.4212 12.4348C65.3581 13.0258 65.2319 13.5421 65.0489 13.9775H68.0776C68.33 13.7225 68.5445 13.2373 68.7275 12.5344C68.9168 11.8315 69.0051 11.1659 69.0051 10.5501V8.41645C69.0051 7.15992 67.964 6.146 66.6768 6.146H57.6602V8.07433H65.5095V8.08055Z" fill="#231815"/>
<path d="M74.2675 9.85299C74.2675 9.85299 74.2359 5.71642 74.2675 5.69775H70.7719V14.3939C70.3365 14.5432 69.7875 14.6738 69.1313 14.7796C68.4688 14.8853 67.7243 14.9351 66.8851 14.9351H63.1371C63.1371 14.9351 63.1244 10.388 63.1371 10.3755H59.8307V14.9351C59.8307 14.9351 56.8841 14.9537 56.8525 14.9351V16.8634H66.7526C67.5287 16.8634 68.2732 16.7825 68.9862 16.627C69.6992 16.4653 70.2986 16.2725 70.7845 16.0485V17.9333H74.2801V11.7813C74.2801 11.7813 77.7568 11.7689 77.7757 11.7813V9.85299H74.2801H74.2675Z" fill="#231815"/>
<path d="M72.0337 19.0654C70.7907 18.1261 69.2827 17.6533 67.5222 17.6533C65.7618 17.6533 64.2538 18.1261 63.0108 19.0654C61.7677 20.0046 61.1431 21.1616 61.1431 22.5239C61.1431 23.8862 61.7614 25.0183 63.0108 25.97C64.2538 26.9155 65.7618 27.3945 67.5222 27.3945C69.2827 27.3945 70.7907 26.9217 72.0337 25.97C73.2767 25.0183 73.9014 23.8737 73.9014 22.5239C73.9014 21.1741 73.2767 20.0109 72.0337 19.0654ZM69.4467 24.558C68.8914 25.1365 68.21 25.4288 67.415 25.4288C66.6199 25.4288 65.9385 25.1365 65.3832 24.558C64.8217 23.9795 64.544 23.3139 64.544 22.5612C64.544 21.8086 64.8217 21.1243 65.3832 20.5334C65.9385 19.9424 66.6199 19.6501 67.415 19.6501C68.21 19.6501 68.8914 19.9424 69.4467 20.5334C70.0083 21.1243 70.2859 21.7961 70.2859 22.5612C70.2859 23.3263 70.0083 23.9733 69.4467 24.558Z" fill="#231815"/>
<path d="M70.122 40.8995L67.6296 30.5425H69.8128L71.3839 37.6586L73.3021 30.5425H75.8513L77.6685 37.7768L79.2775 30.5425H81.4102L78.8799 40.8995H76.5895L74.5262 33.1551L72.4377 40.8995H70.122Z" fill="#231815"/>
<path d="M84.0664 36.9119L85.4924 33.0615L86.9562 36.9119H84.0664ZM86.7291 30.6479H84.4891L80.4004 41.0049H82.653L83.5237 38.6536H87.7513L88.6536 41.0049H90.944L86.7291 30.6479Z" fill="#231815"/>
<path d="M91.8274 41.0112V30.6479H93.8907L98.2066 37.5899V30.6479H100.175V41.0112H98.0488L93.796 34.206V41.0112H91.8274Z" fill="#231815"/>
<path d="M106.485 37.2107V35.4628H111.06V39.6056C110.618 40.0286 109.974 40.4018 109.129 40.7252C108.29 41.0487 107.432 41.2042 106.567 41.2042C105.469 41.2042 104.51 40.9803 103.696 40.52C102.876 40.0659 102.264 39.4127 101.854 38.5668C101.444 37.7208 101.235 36.7939 101.235 35.7987C101.235 34.7163 101.463 33.7584 101.923 32.9186C102.384 32.0789 103.053 31.4319 103.936 30.9841C104.611 30.6357 105.444 30.4678 106.447 30.4678C107.747 30.4678 108.769 30.7353 109.501 31.2702C110.233 31.8052 110.706 32.5516 110.915 33.4971L108.801 33.889C108.656 33.3789 108.378 32.9808 107.968 32.6885C107.564 32.3961 107.053 32.2468 106.447 32.2468C105.526 32.2468 104.788 32.5392 104.245 33.1177C103.702 33.7024 103.431 34.567 103.431 35.7116C103.431 36.9495 103.709 37.8763 104.258 38.4921C104.813 39.1079 105.532 39.419 106.435 39.419C106.876 39.419 107.324 39.3319 107.766 39.1577C108.214 38.9835 108.593 38.7783 108.914 38.5294V37.2107H106.485Z" fill="#231815"/>
<path d="M62.6132 37.2107V35.4628H67.1878V39.6056C66.7461 40.0286 66.1025 40.4018 65.257 40.7252C64.4115 41.0487 63.5597 41.2042 62.6953 41.2042C61.5974 41.2042 60.6383 40.9803 59.8243 40.52C59.0104 40.0659 58.392 39.4127 57.9819 38.5668C57.5717 37.7208 57.3635 36.7939 57.3635 35.7987C57.3635 34.7163 57.5907 33.7584 58.0513 32.9186C58.5119 32.0789 59.1807 31.4319 60.0641 30.9841C60.7329 30.6357 61.5721 30.4678 62.5754 30.4678C63.8752 30.4678 64.8974 30.7353 65.6293 31.2702C66.3612 31.8052 66.8345 32.5516 67.0427 33.4971L64.9289 33.889C64.7838 33.3789 64.5062 32.9808 64.096 32.6885C63.6922 32.3961 63.1811 32.2468 62.5754 32.2468C61.6542 32.2468 60.9159 32.5392 60.3733 33.1177C59.8306 33.7024 59.5593 34.567 59.5593 35.7116C59.5593 36.9495 59.837 37.8763 60.3859 38.4921C60.9412 39.1079 61.6605 39.419 62.5628 39.419C63.0044 39.419 63.4524 39.3319 63.8941 39.1577C64.3421 38.9835 64.7207 38.7783 65.0425 38.5294V37.2107H62.6132Z" fill="#231815"/>
<path d="M116.694 30.6479H118.821V37.2167C118.821 38.0751 118.745 38.7345 118.594 39.201C118.385 39.8044 118.013 40.2896 117.477 40.6566C116.934 41.0236 116.221 41.204 115.338 41.204C114.297 41.204 113.502 40.9179 112.94 40.3394C112.378 39.7609 112.094 38.9149 112.094 37.8014L114.107 37.5837C114.133 38.1871 114.221 38.6101 114.372 38.8589C114.599 39.2383 114.946 39.425 115.413 39.425C115.88 39.425 116.215 39.2943 116.41 39.0269C116.606 38.7594 116.701 38.2058 116.701 37.366V30.6604L116.694 30.6479Z" fill="#231815"/>
<path d="M120.764 30.6479H122.891V36.2712C122.891 37.1607 122.916 37.7392 122.966 38.0067C123.055 38.4297 123.275 38.7718 123.61 39.0269C123.951 39.2881 124.417 39.4125 125.004 39.4125C125.591 39.4125 126.052 39.2881 126.355 39.0517C126.657 38.8091 126.84 38.5106 126.904 38.156C126.967 37.8014 126.998 37.2167 126.998 36.3894V30.6479H129.125V36.097C129.125 37.3411 129.068 38.2244 128.954 38.7345C128.841 39.2446 128.626 39.68 128.323 40.0346C128.014 40.3891 127.604 40.669 127.087 40.8805C126.569 41.092 125.9 41.1916 125.067 41.1916C124.064 41.1916 123.307 41.0796 122.79 40.8494C122.272 40.6193 121.862 40.3269 121.559 39.9599C121.256 39.5929 121.061 39.2135 120.966 38.8091C120.827 38.212 120.758 37.3349 120.758 36.1779V30.6479H120.764Z" fill="#231815"/>
<path d="M141.365 40.2335C140.583 40.7374 139.674 40.9862 138.646 40.9862C137.889 40.9862 137.176 40.8369 136.52 40.5383C135.857 40.246 135.276 39.823 134.765 39.2569C134.343 38.7717 134.021 38.2306 133.8 37.6334C133.579 37.0176 133.466 36.3769 133.466 35.7051C133.466 35.0022 133.598 34.3366 133.869 33.7145C134.134 33.0801 134.532 32.5078 135.049 31.9977C135.541 31.5249 136.09 31.1642 136.696 30.9153C137.308 30.6665 137.964 30.5483 138.665 30.5483C139.706 30.5483 140.627 30.8096 141.422 31.3321C142.242 31.8733 142.886 32.6508 143.347 33.6834H141.233C140.905 33.2356 140.526 32.9059 140.097 32.6944C139.681 32.5016 139.195 32.402 138.652 32.402C138.204 32.402 137.794 32.4767 137.422 32.626C137.037 32.7815 136.696 33.0178 136.406 33.3226C136.065 33.6461 135.813 34.0193 135.642 34.4299C135.472 34.8404 135.39 35.2759 135.39 35.7237C135.39 36.1965 135.466 36.6444 135.617 37.0549C135.775 37.4717 136.015 37.8262 136.324 38.1373C136.627 38.4607 136.986 38.7095 137.397 38.8899C137.794 39.0641 138.217 39.1512 138.652 39.1512C139.176 39.1512 139.649 39.0517 140.059 38.8464C140.476 38.6411 140.842 38.3425 141.157 37.9382H143.366C142.848 38.9521 142.186 39.7172 141.372 40.2335H141.365Z" fill="#231815" stroke="#231815" stroke-width="0.25"/>
<path d="M145.208 40.8183V30.7661H147.088V40.8183H145.208Z" fill="#231815" stroke="#231815" stroke-width="0.25"/>
<path d="M150.647 40.8121V32.5016H148.666V30.7661H154.502V32.5016H152.508V40.8121H150.647Z" fill="#231815" stroke="#231815" stroke-width="0.25"/>
<path d="M160.232 40.8183H158.351V37.1109L155.222 30.7661H157.323L159.317 35.0644L161.285 30.7661H163.374L160.232 37.1918V40.8183Z" fill="#231815" stroke="#231815" stroke-width="0.25"/>
</g>
<defs>
<clipPath id="clip0_8025_5213">
<rect width="163" height="46" fill="white" transform="translate(0.5)"/>
</clipPath>
</defs>
</svg>
